<svg width="201" height="56" viewBox="0 0 201 56" fill="none" xmlns="http://www.w3.org/2000/svg">
<path fill-rule="evenodd" clip-rule="evenodd" d="M124.08 43.6429C112.491 51.4482 95.6434 55.5928 81.1171 55.5738C60.7662 55.5471 42.5296 48.6642 28.6498 37.2357C27.5984 36.3369 28.5123 35.1201 29.8447 35.827C44.7816 43.7953 63.2315 48.5631 82.3192 48.5882C95.1613 48.605 109.34 46.1877 122.399 41.1407C124.365 40.4381 125.977 42.3633 124.08 43.6429Z" fill="#BBBBBB"/>
<path fill-rule="evenodd" clip-rule="evenodd" d="M128.963 38.5903C127.492 36.8576 119.14 37.7441 115.42 38.1879C114.297 38.3147 114.087 37.4169 115.141 36.7773C121.813 32.4912 132.689 33.7875 133.95 35.1994C135.211 36.6113 133.584 46.6092 127.332 51.3446C126.349 52.0485 125.437 51.6627 125.859 50.7017C127.267 47.4984 130.434 40.3871 128.963 38.5903Z" fill="#BBBBBB"/>
<path fill-rule="evenodd" clip-rule="evenodd" d="M115.657 6.64447L115.662 2.47779C115.663 1.83677 116.155 1.45279 116.786 1.45362L137.137 1.4803C137.769 1.48113 138.33 1.93059 138.329 2.50751L138.324 6.03316C138.324 6.61008 137.761 7.37858 136.777 8.65935L126.233 22.3635C130.163 22.3046 134.302 22.8228 137.809 24.6223C138.58 25.0079 138.79 25.6492 138.859 26.2262L138.853 30.6493C138.853 31.2903 138.15 31.9946 137.379 31.6089C131.137 28.5879 122.786 28.2565 115.905 31.6449C115.203 31.9645 114.432 31.3224 114.432 30.6814L114.438 26.4506C114.439 25.8096 114.44 24.6558 115.214 23.6311L127.445 7.68557L116.849 7.67168C116.217 7.67085 115.656 7.22139 115.657 6.64447V6.64447ZM41.4476 32.3806L35.2722 32.3725C34.7109 32.3076 34.2202 31.9224 34.1507 31.4095L34.1887 2.43508C34.1894 1.85816 34.7514 1.41017 35.383 1.411L41.1374 1.41854C41.7689 1.41937 42.1894 1.86864 42.2589 2.38155L42.2539 6.16361L42.3943 6.16379C43.8728 2.51187 46.7522 0.784877 50.5417 0.789845C54.4013 0.794905 56.8552 2.52889 58.5346 6.18495C60.0131 2.53303 63.454 0.806774 67.1031 0.811559C69.6996 0.814963 72.5053 1.78018 74.2568 4.02608C76.2185 6.46455 75.7928 9.98966 75.7887 13.1307L75.7647 31.464C75.7639 32.041 75.2019 32.4889 74.5703 32.4881L68.4651 32.4801C67.8336 32.4152 67.3429 31.9658 67.3436 31.453L67.3638 16.0684C67.3654 14.8504 67.5098 11.7737 67.2306 10.6194C66.7419 8.69572 65.4093 8.11705 63.5847 8.11466C62.1111 8.11273 60.4958 9.00806 59.8623 10.4816C59.2288 11.9551 59.2958 14.3911 59.2936 16.0578L59.2734 31.4424C59.2727 32.0193 58.7107 32.4673 58.0791 32.4665L51.9037 32.4584C51.2722 32.3935 50.7816 31.9441 50.7822 31.4313L50.8024 16.0466C50.8066 12.8415 51.3743 8.03454 47.0234 8.02884C42.6024 8.02304 42.7367 12.6386 42.7322 16.0361L42.7121 31.4207C42.6412 31.9334 42.1494 32.3815 41.4476 32.3806V32.3806ZM155.875 0.927948C165.068 0.940001 170.041 8.12603 170.029 17.2927C170.017 26.1389 164.534 33.183 155.833 33.1716C146.85 33.1598 141.947 25.9739 141.959 16.9995C141.901 7.96094 146.892 0.916171 155.875 0.927948ZM155.867 6.88949C151.306 6.88351 151.018 12.5883 151.013 16.1139C151.008 19.6396 150.928 27.2036 155.77 27.2099C160.542 27.2162 160.831 21.1268 160.836 17.4089C160.839 14.973 160.702 12.0241 159.934 9.71536C159.235 7.66315 157.832 6.89206 155.867 6.88949ZM181.869 32.5647L175.693 32.5566C175.062 32.4917 174.571 32.0423 174.572 31.5295L174.61 2.49097C174.681 1.97824 175.172 1.53017 175.804 1.531L181.558 1.53854C182.12 1.53928 182.54 1.92446 182.68 2.37336L182.674 6.79644L182.815 6.79663C184.574 2.82456 186.963 0.968707 191.243 0.974319C193.98 0.977908 196.716 1.87893 198.467 4.38123C200.078 6.69104 200.073 10.6013 200.069 13.4218L200.045 31.6911C199.974 32.2038 199.483 32.5878 198.851 32.587L192.676 32.5789C192.114 32.514 191.624 32.1288 191.554 31.68L191.575 15.9107C191.579 12.7056 192.006 8.09073 187.725 8.08512C186.252 8.08319 184.847 8.97879 184.143 10.3881C183.299 12.1819 183.156 13.9125 183.154 15.8997L183.133 31.5407C183.062 32.1176 182.5 32.5655 181.869 32.5647V32.5647ZM99.4307 18.6104C99.4278 20.7899 99.4955 22.649 98.3 24.6346C97.3154 26.2359 95.7703 27.1954 94.0159 27.1931C91.6299 27.19 90.2286 25.5215 90.2318 23.0856C90.2381 18.2779 94.941 17.3866 99.4323 17.3925L99.4307 18.6104ZM105.658 32.4007C105.237 32.7206 104.675 32.784 104.184 32.5269C102.151 30.9858 101.731 30.216 100.61 28.7402C97.2378 31.8768 94.7804 32.8351 90.4295 32.8294C85.2366 32.8226 81.1703 29.8686 81.1779 24.0352C81.184 19.4198 83.9248 16.3465 87.7865 14.8131C91.1567 13.4713 95.8588 13.2211 99.4382 12.8412L99.4392 12.136C99.4409 10.7899 99.5834 9.18751 98.6726 8.03247C97.902 7.00581 96.4991 6.55524 95.2359 6.55359C92.85 6.55046 90.7433 7.63746 90.249 9.94451C90.108 10.4571 89.7565 10.9695 89.1951 10.9688L83.2309 10.384C82.7398 10.2552 82.1789 9.93392 82.3201 9.22898C83.7324 2.56414 90.2613 0.585514 96.156 0.593243C99.1736 0.597199 103.102 1.30748 105.486 3.42599C108.5 5.99406 108.215 9.45524 108.21 13.1732L108.198 21.9552C108.195 24.5835 109.386 25.7389 110.507 27.2147C110.927 27.7281 110.997 28.3692 110.505 28.6891C109.171 29.6489 106.923 31.4408 105.658 32.4007V32.4007ZM18.3781 18.5042C18.3752 20.6836 18.443 22.5427 17.2474 24.5283C16.2628 26.1296 14.7177 27.0891 12.9633 27.0868C10.5774 27.0837 9.17604 25.4152 9.17924 22.9793C9.18554 18.1716 13.8885 17.2803 18.3797 17.2862L18.3781 18.5042ZM24.5355 32.2943C24.114 32.6143 23.5525 32.6776 23.0616 32.4206C21.0285 30.8795 20.6085 30.1097 19.4876 28.6338C16.1151 31.7705 13.6577 32.7288 9.30681 32.7231C4.11383 32.7163 0.0475288 29.7622 0.055177 23.9289C0.0612282 19.3135 2.8021 16.2401 6.66376 14.7067C10.0339 13.365 14.736 13.1147 18.3155 12.7348L18.3164 12.0297C18.3182 10.6835 18.4606 9.08115 17.5499 7.92611C16.7793 6.89945 15.3764 6.44888 14.1132 6.44723C11.7272 6.4441 9.62054 7.5311 9.12629 9.83815C8.98526 10.3508 8.63371 10.8631 8.07231 10.8624L2.10816 10.2777C1.6171 10.1488 1.05613 9.82756 1.1974 9.12262C2.60965 2.45778 9.13856 0.479154 15.0333 0.486883C18.0508 0.490839 21.9797 1.20112 24.3629 3.31963C27.3771 5.8877 27.0919 9.34888 27.087 13.0668L27.0755 21.8489C27.072 24.4771 28.2635 25.6325 29.3844 27.1084C29.8047 27.6217 29.8741 28.2628 29.3824 28.5827C28.0478 29.5425 25.7999 31.3344 24.5355 32.2943V32.2943Z" fill="#AEAEAE"/>
</svg>
