<svg width="437" height="193" viewBox="0 0 437 193" fill="none" xmlns="http://www.w3.org/2000/svg">
<g filter="url(#filter0_d)">
<rect x="27" y="30" width="410" height="152" rx="15" fill="#FFFCF6"/>
<path d="M104.8 90V70.736H117.344V72.976H107.208V79.164H116V81.404H107.208V87.76H117.344V90H104.8ZM130.742 90L126.57 84.568H126.402L122.258 90H119.738L125.142 82.748L119.934 75.72H122.538L126.514 80.9H126.654L130.63 75.72H133.15L127.942 82.72L133.346 90H130.742ZM136.647 75.72H138.663L138.775 77.736H138.943C139.316 76.8773 139.904 76.2893 140.707 75.972C141.528 75.6547 142.508 75.496 143.647 75.496C145.066 75.496 146.148 75.7107 146.895 76.14C147.642 76.5693 148.164 77.3067 148.463 78.352C148.78 79.3787 148.939 80.872 148.939 82.832C148.939 84.8107 148.78 86.3227 148.463 87.368C148.164 88.4133 147.642 89.1507 146.895 89.58C146.167 90.0093 145.103 90.224 143.703 90.224C142.49 90.224 141.5 90.0747 140.735 89.776C139.988 89.4773 139.428 88.9547 139.055 88.208H138.915V95.6H136.647V75.72ZM142.751 88.012C143.964 88.012 144.823 87.9 145.327 87.676C145.85 87.452 146.195 86.9947 146.363 86.304C146.55 85.6133 146.643 84.4653 146.643 82.86C146.643 81.2547 146.55 80.1067 146.363 79.416C146.195 78.7253 145.85 78.268 145.327 78.044C144.823 77.8013 143.964 77.68 142.751 77.68C141.799 77.68 141.043 77.8107 140.483 78.072C139.923 78.3333 139.531 78.7347 139.307 79.276C139.139 79.6867 139.027 80.1627 138.971 80.704C138.934 81.2453 138.915 81.964 138.915 82.86C138.915 83.7747 138.934 84.4933 138.971 85.016C139.008 85.5387 139.102 85.9773 139.251 86.332C139.494 86.9293 139.895 87.3587 140.455 87.62C141.015 87.8813 141.78 88.012 142.751 88.012ZM164.614 83.672H154.842C154.842 85.0347 154.935 86.0053 155.122 86.584C155.309 87.1627 155.71 87.5733 156.326 87.816C156.961 88.04 158.015 88.152 159.49 88.152C160.927 88.152 162.449 88.0493 164.054 87.844V89.832C163.457 89.944 162.682 90.0373 161.73 90.112C160.778 90.1867 159.873 90.224 159.014 90.224C157.091 90.224 155.673 90 154.758 89.552C153.862 89.104 153.274 88.3853 152.994 87.396C152.714 86.4067 152.574 84.904 152.574 82.888C152.574 80.9093 152.695 79.4253 152.938 78.436C153.199 77.4467 153.769 76.7093 154.646 76.224C155.542 75.7387 156.951 75.496 158.874 75.496C160.666 75.496 161.963 75.7387 162.766 76.224C163.569 76.6907 164.073 77.4093 164.278 78.38C164.502 79.332 164.614 80.8253 164.614 82.86V83.672ZM158.818 77.568C157.605 77.568 156.727 77.68 156.186 77.904C155.663 78.1093 155.309 78.5107 155.122 79.108C154.954 79.6867 154.861 80.6293 154.842 81.936H162.43V81.712C162.43 80.48 162.318 79.5747 162.094 78.996C161.889 78.4173 161.543 78.0347 161.058 77.848C160.573 77.6613 159.826 77.568 158.818 77.568ZM178.518 81.964C178.518 80.6387 178.434 79.696 178.266 79.136C178.098 78.5573 177.781 78.1747 177.314 77.988C176.847 77.8013 176.063 77.708 174.962 77.708C173.786 77.708 172.918 77.8947 172.358 78.268C171.817 78.6413 171.471 79.1547 171.322 79.808C171.191 80.4613 171.126 81.404 171.126 82.636V90H168.858V75.72H170.874L170.986 77.736H171.154C171.471 77.008 171.994 76.4573 172.722 76.084C173.45 75.692 174.505 75.496 175.886 75.496C177.267 75.496 178.303 75.692 178.994 76.084C179.703 76.476 180.179 77.064 180.422 77.848C180.665 78.6133 180.786 79.6867 180.786 81.068V90H178.518V81.964ZM190.352 90.224C189.586 90.224 188.718 90.1867 187.748 90.112C186.777 90.0373 185.918 89.9533 185.172 89.86V87.844C187.02 88.0493 188.709 88.152 190.24 88.152C191.192 88.152 191.892 88.0867 192.34 87.956C192.788 87.8253 193.077 87.62 193.208 87.34C193.357 87.0413 193.432 86.6027 193.432 86.024C193.432 85.4453 193.376 85.0347 193.264 84.792C193.17 84.5307 193.012 84.3533 192.788 84.26C192.564 84.1667 192.172 84.092 191.612 84.036L187.888 83.616C187.029 83.5227 186.366 83.3267 185.9 83.028C185.452 82.7293 185.144 82.3187 184.976 81.796C184.808 81.2733 184.724 80.5733 184.724 79.696C184.724 78.4827 184.938 77.5773 185.368 76.98C185.816 76.364 186.422 75.9627 187.188 75.776C187.972 75.5893 189.017 75.496 190.324 75.496C191.052 75.496 191.836 75.5333 192.676 75.608C193.516 75.6827 194.225 75.776 194.804 75.888V77.904C193.348 77.68 191.845 77.568 190.296 77.568C189.437 77.568 188.784 77.6147 188.336 77.708C187.888 77.7827 187.542 77.9693 187.3 78.268C187.057 78.548 186.936 78.996 186.936 79.612C186.936 80.1533 186.982 80.5453 187.076 80.788C187.169 81.0307 187.328 81.1987 187.552 81.292C187.776 81.3853 188.149 81.46 188.672 81.516L192.536 81.964C193.357 82.0573 193.973 82.216 194.384 82.44C194.813 82.6453 195.121 83.0187 195.308 83.56C195.513 84.1013 195.616 84.904 195.616 85.968C195.616 87.144 195.42 88.04 195.028 88.656C194.654 89.272 194.094 89.692 193.348 89.916C192.62 90.1213 191.621 90.224 190.352 90.224ZM211.016 83.672H201.244C201.244 85.0347 201.338 86.0053 201.524 86.584C201.711 87.1627 202.112 87.5733 202.728 87.816C203.363 88.04 204.418 88.152 205.892 88.152C207.33 88.152 208.851 88.0493 210.456 87.844V89.832C209.859 89.944 209.084 90.0373 208.132 90.112C207.18 90.1867 206.275 90.224 205.416 90.224C203.494 90.224 202.075 90 201.16 89.552C200.264 89.104 199.676 88.3853 199.396 87.396C199.116 86.4067 198.976 84.904 198.976 82.888C198.976 80.9093 199.098 79.4253 199.34 78.436C199.602 77.4467 200.171 76.7093 201.048 76.224C201.944 75.7387 203.354 75.496 205.276 75.496C207.068 75.496 208.366 75.7387 209.168 76.224C209.971 76.6907 210.475 77.4093 210.68 78.38C210.904 79.332 211.016 80.8253 211.016 82.86V83.672ZM205.22 77.568C204.007 77.568 203.13 77.68 202.588 77.904C202.066 78.1093 201.711 78.5107 201.524 79.108C201.356 79.6867 201.263 80.6293 201.244 81.936H208.832V81.712C208.832 80.48 208.72 79.5747 208.496 78.996C208.291 78.4173 207.946 78.0347 207.46 77.848C206.975 77.6613 206.228 77.568 205.22 77.568Z" fill="#7C7979"/>
<path d="M304.957 144.324C304.957 143.395 304.629 142.613 303.973 141.978C303.327 141.342 302.232 140.767 300.688 140.252C298.539 139.596 296.97 138.743 295.981 137.694C295.002 136.634 294.513 135.292 294.513 133.667C294.513 132.013 294.992 130.655 295.951 129.596C296.919 128.536 298.246 127.905 299.932 127.704V124.389H302.187V127.719C303.882 127.951 305.199 128.662 306.138 129.853C307.086 131.044 307.561 132.674 307.561 134.742H304.775C304.775 133.319 304.437 132.189 303.761 131.352C303.085 130.514 302.172 130.095 301.021 130.095C299.821 130.095 298.902 130.408 298.267 131.034C297.631 131.649 297.313 132.512 297.313 133.622C297.313 134.651 297.646 135.474 298.312 136.089C298.988 136.695 300.093 137.25 301.627 137.754C303.171 138.249 304.372 138.799 305.229 139.404C306.097 140 306.733 140.696 307.137 141.493C307.55 142.29 307.757 143.224 307.757 144.293C307.757 145.999 307.243 147.371 306.213 148.411C305.194 149.45 303.761 150.066 301.915 150.257V153.148H299.674V150.257C297.797 150.086 296.324 149.42 295.254 148.259C294.195 147.089 293.665 145.504 293.665 143.506H296.465C296.465 144.909 296.834 145.989 297.57 146.746C298.307 147.502 299.351 147.881 300.704 147.881C302.026 147.881 303.065 147.563 303.822 146.927C304.579 146.292 304.957 145.424 304.957 144.324ZM325.467 129.535L316.34 150H313.403L322.5 130.262H310.573V127.961H325.467V129.535ZM342.466 140.6C342.466 143.88 341.906 146.317 340.786 147.911C339.666 149.506 337.915 150.303 335.533 150.303C333.182 150.303 331.441 149.526 330.311 147.972C329.181 146.408 328.596 144.076 328.555 140.979V137.24C328.555 134 329.115 131.594 330.235 130.02C331.355 128.445 333.111 127.658 335.503 127.658C337.874 127.658 339.62 128.42 340.74 129.944C341.86 131.458 342.436 133.799 342.466 136.967V140.6ZM339.666 136.771C339.666 134.399 339.333 132.674 338.667 131.594C338 130.504 336.946 129.959 335.503 129.959C334.07 129.959 333.026 130.499 332.37 131.579C331.714 132.658 331.376 134.318 331.355 136.559V141.039C331.355 143.421 331.699 145.181 332.385 146.322C333.081 147.452 334.131 148.017 335.533 148.017C336.916 148.017 337.94 147.482 338.606 146.413C339.282 145.343 339.635 143.658 339.666 141.357V136.771ZM359.873 140.6C359.873 143.88 359.313 146.317 358.193 147.911C357.073 149.506 355.322 150.303 352.94 150.303C350.589 150.303 348.848 149.526 347.718 147.972C346.588 146.408 346.003 144.076 345.962 140.979V137.24C345.962 134 346.522 131.594 347.643 130.02C348.763 128.445 350.519 127.658 352.91 127.658C355.282 127.658 357.027 128.42 358.147 129.944C359.268 131.458 359.843 133.799 359.873 136.967V140.6ZM357.073 136.771C357.073 134.399 356.74 132.674 356.074 131.594C355.408 130.504 354.353 129.959 352.91 129.959C351.477 129.959 350.433 130.499 349.777 131.579C349.121 132.658 348.783 134.318 348.763 136.559V141.039C348.763 143.421 349.106 145.181 349.792 146.322C350.488 147.452 351.538 148.017 352.94 148.017C354.323 148.017 355.347 147.482 356.013 146.413C356.689 145.343 357.042 143.658 357.073 141.357V136.771ZM363.809 148.532C363.809 148.047 363.95 147.644 364.232 147.321C364.525 146.998 364.959 146.836 365.534 146.836C366.109 146.836 366.543 146.998 366.836 147.321C367.139 147.644 367.29 148.047 367.29 148.532C367.29 148.996 367.139 149.384 366.836 149.697C366.543 150.01 366.109 150.167 365.534 150.167C364.959 150.167 364.525 150.01 364.232 149.697C363.95 149.384 363.809 148.996 363.809 148.532ZM372.921 138.95L374.041 127.961H385.333V130.549H376.417L375.751 136.559C376.831 135.923 378.057 135.605 379.43 135.605C381.438 135.605 383.032 136.271 384.213 137.603C385.394 138.925 385.984 140.716 385.984 142.977C385.984 145.247 385.368 147.038 384.137 148.35C382.916 149.652 381.206 150.303 379.006 150.303C377.058 150.303 375.469 149.763 374.238 148.683C373.007 147.603 372.305 146.11 372.134 144.203H374.783C374.954 145.464 375.403 146.418 376.13 147.063C376.856 147.699 377.815 148.017 379.006 148.017C380.308 148.017 381.327 147.573 382.063 146.685C382.81 145.797 383.184 144.571 383.184 143.007C383.184 141.534 382.78 140.353 381.973 139.465C381.175 138.567 380.111 138.118 378.779 138.118C377.558 138.118 376.599 138.385 375.903 138.92L375.161 139.525L372.921 138.95ZM402.861 140.6C402.861 143.88 402.301 146.317 401.181 147.911C400.061 149.506 398.31 150.303 395.929 150.303C393.577 150.303 391.837 149.526 390.707 147.972C389.576 146.408 388.991 144.076 388.951 140.979V137.24C388.951 134 389.511 131.594 390.631 130.02C391.751 128.445 393.507 127.658 395.898 127.658C398.27 127.658 400.016 128.42 401.136 129.944C402.256 131.458 402.831 133.799 402.861 136.967V140.6ZM400.061 136.771C400.061 134.399 399.728 132.674 399.062 131.594C398.396 130.504 397.341 129.959 395.898 129.959C394.465 129.959 393.421 130.499 392.765 131.579C392.109 132.658 391.771 134.318 391.751 136.559V141.039C391.751 143.421 392.094 145.181 392.78 146.322C393.477 147.452 394.526 148.017 395.929 148.017C397.311 148.017 398.335 147.482 399.001 146.413C399.678 145.343 400.031 143.658 400.061 141.357V136.771Z" fill="#636262"/>
<rect x="27.5" y="30.5" width="409" height="151" rx="14.5" stroke="#BBB9B9"/>
</g>
<g filter="url(#filter1_d)">
<path d="M63.9683 49.8529H69.962C69.962 42.0608 61.7057 38.5067 54.9778 37.6882V32H48.9841V37.6882C42.2563 38.5067 34 42.0608 34 49.8529C34 57.2852 41.9895 61.1496 48.9841 62.0203V75.6709C44.6447 74.9815 39.9937 72.8583 39.9937 69.079H34C34 76.19 41.2673 80.3923 48.9841 81.2629V86.9319H54.9778V81.2464C61.7057 80.428 69.962 76.8711 69.962 69.079C69.962 61.2869 61.7057 57.7328 54.9778 56.9144V43.261C58.9636 43.9175 63.9683 45.8456 63.9683 49.8529V49.8529ZM39.9937 49.8529C39.9937 45.8456 44.9984 43.9175 48.9841 43.261V56.4419C44.8755 55.7471 39.9937 53.6899 39.9937 49.8529ZM63.9683 69.079C63.9683 73.0863 58.9636 75.0144 54.9778 75.6709V62.4872C58.9636 63.1436 63.9683 65.0717 63.9683 69.079V69.079Z" fill="#7C7979"/>
</g>
<path d="M112.995 3.47035C113.042 2.92006 112.635 2.43019 112.086 2.3762L103.13 1.49643C102.58 1.44244 102.096 1.84478 102.049 2.39508C102.001 2.94537 102.408 3.43524 102.958 3.48923L110.919 4.27125L110.23 12.2424C110.182 12.7927 110.589 13.2826 111.139 13.3366C111.689 13.3906 112.173 12.9882 112.22 12.4379L112.995 3.47035ZM78.26 32.7239L112.643 4.14628L111.357 2.59892L76.9744 31.1765L78.26 32.7239Z" fill="#B47676"/>
<path d="M68.0866 15.465C59.1436 11.1479 49.0664 10.4051 39.5721 13.3631C30.0777 16.3211 21.7537 22.7968 16.0183 31.687C10.2829 40.5772 7.49098 51.3317 8.11826 62.1181C8.74554 72.9045 12.7532 83.0554 19.4584 90.8412C26.1636 98.6271 35.1515 103.566 44.8905 104.817C54.6296 106.067 64.5174 103.552 72.869 97.7001C81.2207 91.8478 87.5195 83.0204 90.6922 72.722C93.8649 62.4236 93.7152 51.2913 90.2687 41.222L84.2588 43.8113C87.1845 52.3589 87.3115 61.8089 84.6183 70.551C81.925 79.2931 76.5781 86.7865 69.4885 91.7544C62.399 96.7223 54.0055 98.8573 45.7382 97.7956C37.4708 96.734 29.8412 92.5413 24.1493 85.9321C18.4574 79.3228 15.0554 70.7059 14.5229 61.5495C13.9904 52.3932 16.3604 43.2639 21.2291 35.7172C26.0978 28.1705 33.1639 22.6734 41.2234 20.1624C49.283 17.6514 57.8373 18.282 65.4289 21.9467L68.0866 15.465Z" fill="#7C7979"/>
<defs>
<filter id="filter0_d" x="17" y="30" width="420" height="163" filterUnits="userSpaceOnUse" color-interpolation-filters="sRGB">
<feFlood flood-opacity="0" result="BackgroundImageFix"/>
<feColorMatrix in="SourceAlpha" type="matrix" values="0 0 0 0 0 0 0 0 0 0 0 0 0 0 0 0 0 0 127 0" result="hardAlpha"/>
<feOffset dx="-6" dy="7"/>
<feGaussianBlur stdDeviation="2"/>
<feComposite in2="hardAlpha" operator="out"/>
<feColorMatrix type="matrix" values="0 0 0 0 0 0 0 0 0 0 0 0 0 0 0 0 0 0 0.25 0"/>
<feBlend mode="normal" in2="BackgroundImageFix" result="effect1_dropShadow"/>
<feBlend mode="normal" in="SourceGraphic" in2="effect1_dropShadow" result="shape"/>
</filter>
<filter id="filter1_d" x="24" y="32" width="45.9619" height="62.9321" filterUnits="userSpaceOnUse" color-interpolation-filters="sRGB">
<feFlood flood-opacity="0" result="BackgroundImageFix"/>
<feColorMatrix in="SourceAlpha" type="matrix" values="0 0 0 0 0 0 0 0 0 0 0 0 0 0 0 0 0 0 127 0" result="hardAlpha"/>
<feOffset dx="-6" dy="4"/>
<feGaussianBlur stdDeviation="2"/>
<feComposite in2="hardAlpha" operator="out"/>
<feColorMatrix type="matrix" values="0 0 0 0 0 0 0 0 0 0 0 0 0 0 0 0 0 0 0.25 0"/>
<feBlend mode="normal" in2="BackgroundImageFix" result="effect1_dropShadow"/>
<feBlend mode="normal" in="SourceGraphic" in2="effect1_dropShadow" result="shape"/>
</filter>
</defs>
</svg>
