<svg width="86" height="44" viewBox="0 0 86 44" fill="none" xmlns="http://www.w3.org/2000/svg">
<path d="M52.0626 15.327C53.3926 15.327 54.4186 15.612 55.1406 16.182C55.8753 16.7393 56.2426 17.5183 56.2426 18.519C56.2426 18.7217 56.2236 18.937 56.1856 19.165L56.1476 19.431C55.9829 20.5583 55.5143 21.426 54.7416 22.034C53.9816 22.6293 52.9429 22.927 51.6256 22.927C51.1949 22.927 50.5489 22.8447 49.6876 22.68L49.0606 28H47.4456L48.9846 15.422C50.0993 15.3587 51.1253 15.327 52.0626 15.327ZM52.0056 16.676C51.4863 16.676 50.9606 16.6887 50.4286 16.714L49.8396 21.407C50.5236 21.5337 51.1063 21.597 51.5876 21.597C52.4616 21.597 53.1329 21.4133 53.6016 21.046C54.0829 20.6787 54.3933 20.1087 54.5326 19.336L54.5706 19.127C54.5959 19.013 54.6086 18.842 54.6086 18.614C54.6086 18.006 54.3869 17.531 53.9436 17.189C53.5003 16.847 52.8543 16.676 52.0056 16.676ZM58.9362 28L60.4562 15.555H62.0712L60.5512 28H58.9362ZM70.2288 15.327C70.6468 15.327 71.1092 15.3713 71.6158 15.46C72.1352 15.536 72.6165 15.6437 73.0598 15.783L72.8508 17.303C72.4075 17.1257 71.9452 16.9863 71.4638 16.885C70.9952 16.7837 70.5708 16.733 70.1908 16.733C68.7848 16.733 67.9932 17.5183 67.8158 19.089L67.1888 24.314C67.1635 24.618 67.1508 24.8333 67.1508 24.96C67.1508 25.5933 67.3028 26.0493 67.6068 26.328C67.9108 26.6067 68.3922 26.746 69.0508 26.746C69.8742 26.746 70.8242 26.5053 71.9008 26.024L71.7488 27.544C71.3435 27.7467 70.8558 27.9113 70.2858 28.038C69.7285 28.1647 69.2345 28.228 68.8038 28.228C67.7145 28.228 66.8975 27.9683 66.3528 27.449C65.8082 26.917 65.5358 26.1063 65.5358 25.017C65.5358 24.7257 65.5548 24.409 65.5928 24.067L66.1818 19.203C66.3465 17.8857 66.7645 16.9103 67.4358 16.277C68.1072 15.6437 69.0382 15.327 70.2288 15.327ZM77.574 15.555H79.189L78.486 21.312C80.614 19.146 82.3366 17.227 83.654 15.555H85.63L80.158 21.578L84.604 28H82.552C81.7413 26.6827 81.0256 25.5617 80.405 24.637C79.797 23.7123 79.1383 22.775 78.429 21.825L77.669 28H76.054L77.574 15.555Z" fill="url(#paint0_linear)" fill-opacity="0.8"/>
<path d="M25 39.5L28.5 38.5L46.5 34.5L44.5 41L25 39.5Z" fill="#5776B3"/>
<path d="M28.2831 37.5238L28.254 37.5303L28.2253 37.5385L24.7253 38.5385L24.9233 40.4971L44.4233 41.9971L45.2206 42.0584L45.4558 41.2941L47.4558 34.7941L47.9614 33.1509L46.2831 33.5238L28.2831 37.5238Z" stroke="#064D42" stroke-opacity="0.79" stroke-width="2"/>
<mask id="path-4-outside-1" maskUnits="userSpaceOnUse" x="0" y="0" width="46" height="44" fill="black">
<rect fill="white" width="46" height="44"/>
<path d="M44 22C44 33.0457 34.598 42 23 42C11.402 42 2 33.0457 2 22C2 10.9543 11.402 2 23 2C34.598 2 44 10.9543 44 22ZM7.23692 22C7.23692 30.2912 14.2943 37.0125 23 37.0125C31.7057 37.0125 38.7631 30.2912 38.7631 22C38.7631 13.7088 31.7057 6.98754 23 6.98754C14.2943 6.98754 7.23692 13.7088 7.23692 22Z"/>
</mask>
<path d="M44 22C44 33.0457 34.598 42 23 42C11.402 42 2 33.0457 2 22C2 10.9543 11.402 2 23 2C34.598 2 44 10.9543 44 22ZM7.23692 22C7.23692 30.2912 14.2943 37.0125 23 37.0125C31.7057 37.0125 38.7631 30.2912 38.7631 22C38.7631 13.7088 31.7057 6.98754 23 6.98754C14.2943 6.98754 7.23692 13.7088 7.23692 22Z" fill="#5776B3"/>
<path d="M44 22C44 33.0457 34.598 42 23 42C11.402 42 2 33.0457 2 22C2 10.9543 11.402 2 23 2C34.598 2 44 10.9543 44 22ZM7.23692 22C7.23692 30.2912 14.2943 37.0125 23 37.0125C31.7057 37.0125 38.7631 30.2912 38.7631 22C38.7631 13.7088 31.7057 6.98754 23 6.98754C14.2943 6.98754 7.23692 13.7088 7.23692 22Z" stroke="#064D42" stroke-opacity="0.79" stroke-width="4" mask="url(#path-4-outside-1)"/>
<defs>
<linearGradient id="paint0_linear" x1="66" y1="12" x2="66" y2="32" gradientUnits="userSpaceOnUse">
<stop stop-color="#00318F"/>
<stop offset="1" stop-color="#9C059F" stop-opacity="0.88"/>
</linearGradient>
</defs>
</svg>
