<svg width="192" height="50" viewBox="0 0 192 50" fill="none" xmlns="http://www.w3.org/2000/svg">
<path fill-rule="evenodd" clip-rule="evenodd" d="M16.7539 11.769H29.8738C36.9181 11.769 39.5698 15.6023 39.1601 21.2339C38.4827 30.5313 33.2537 35.6751 26.3178 35.6751H22.816C21.8644 35.6751 21.2243 36.3522 20.9669 38.1869L19.4802 48.8531C19.382 49.5448 19.0433 49.9452 18.5353 49.9998H10.2921C9.5166 49.9998 9.24228 49.3628 9.44548 47.9831L14.4713 13.7894C14.6677 12.4207 15.3654 11.769 16.7539 11.769Z" fill="#BFBFBF"/>
<path fill-rule="evenodd" clip-rule="evenodd" d="M73.7139 11.1357C78.1403 11.1357 82.2246 13.7167 81.6658 20.1492C80.9885 27.7939 77.1785 32.024 71.1671 32.0422H65.9144C65.1592 32.0422 64.7934 32.7047 64.597 34.0626L63.581 41.0047C63.4286 42.0531 62.9274 42.57 62.1891 42.57H57.3021C56.5232 42.57 56.2522 42.0349 56.425 40.8372L60.4585 13.0142C60.6583 11.6454 61.1358 11.1357 62.0062 11.1357H73.7037H73.7139ZM65.7552 26.032H69.7346C72.2238 25.9301 73.8765 24.0771 74.0424 20.7353C74.144 18.6712 72.8469 17.1933 70.7844 17.2042L67.0388 17.2224L65.7552 26.032ZM94.9517 40.4404C95.3987 40.0036 95.8526 39.7779 95.7882 40.3167L95.629 41.6053C95.5478 42.2788 95.795 42.6355 96.3775 42.6355H100.719C101.451 42.6355 101.806 42.3188 101.986 41.103L104.661 23.0542C104.797 22.1477 104.59 21.7036 103.95 21.7036H99.1749C98.7448 21.7036 98.5348 21.9621 98.423 22.6683L98.2469 23.7786C98.1555 24.3574 97.9083 24.4594 97.678 23.8769C96.8686 21.8165 94.8027 20.8918 91.9206 20.9646C85.2252 21.1139 80.7108 26.578 80.2265 33.582C79.8539 38.9989 83.4641 43.2544 88.2258 43.2544C91.6802 43.2544 93.2245 42.1623 94.9653 40.4513L94.9517 40.4404ZM91.3144 37.6629C88.4324 37.6629 86.4241 35.1911 86.8406 32.1623C87.2572 29.1336 89.953 26.6618 92.835 26.6618C95.7171 26.6618 97.7254 29.1336 97.3088 32.1623C96.8923 35.1911 94.1999 37.6629 91.3144 37.6629ZM113.158 21.6454H108.756C107.848 21.6454 107.479 22.3734 107.767 23.269L113.233 40.4732L107.872 48.6603C107.421 49.3447 107.77 49.9672 108.404 49.9672H113.351C113.64 50.003 113.932 49.949 114.192 49.8115C114.453 49.674 114.671 49.4589 114.821 49.1918L131.633 23.2726C132.151 22.4754 131.907 21.6381 131.057 21.6381H126.373C125.571 21.6381 125.249 21.9803 124.788 22.6974L117.778 33.6184L114.645 22.672C114.462 22.0094 114.005 21.6454 113.162 21.6454H113.158Z" fill="#AEAEAE"/>
<path fill-rule="evenodd" clip-rule="evenodd" d="M149.122 11.1357C153.548 11.1357 157.632 13.7167 157.074 20.1492C156.396 27.7939 152.586 32.024 146.575 32.0422H141.326C140.57 32.0422 140.205 32.7047 140.008 34.0625L138.992 41.0047C138.84 42.0531 138.339 42.57 137.6 42.57H132.713C131.934 42.57 131.663 42.0349 131.836 40.8372L135.876 13.0068C136.076 11.6381 136.554 11.1284 137.424 11.1284H149.122V11.1357ZM141.163 26.032H145.142C147.632 25.93 149.284 24.0771 149.45 20.7353C149.552 18.6712 148.255 17.1932 146.192 17.2041L142.447 17.2223L141.163 26.032V26.032ZM170.359 40.4404C170.807 40.0036 171.26 39.7779 171.196 40.3166L171.037 41.6053C170.956 42.2788 171.203 42.6355 171.785 42.6355H176.127C176.858 42.6355 177.214 42.3188 177.394 41.103L180.069 23.0542C180.205 22.1477 179.998 21.7036 179.358 21.7036H174.589C174.159 21.7036 173.949 21.9621 173.838 22.6683L173.661 23.7786C173.57 24.3574 173.323 24.4593 173.093 23.8769C172.283 21.8165 170.217 20.8918 167.335 20.9646C160.64 21.1139 156.125 26.578 155.641 33.582C155.268 38.9988 158.879 43.2544 163.64 43.2544C167.095 43.2544 168.639 42.1623 170.38 40.4513L170.359 40.4404ZM166.726 37.6628C163.844 37.6628 161.835 35.1911 162.252 32.1623C162.668 29.1335 165.364 26.6617 168.246 26.6617C171.128 26.6617 173.137 29.1335 172.72 32.1623C172.303 35.1911 169.608 37.6628 166.726 37.6628ZM186.751 42.6647H181.739C181.651 42.6689 181.565 42.6523 181.484 42.6162C181.403 42.5801 181.331 42.5253 181.273 42.4557C181.214 42.3862 181.171 42.3036 181.145 42.2138C181.12 42.1241 181.113 42.0294 181.126 41.9366L185.528 11.9548C185.57 11.7502 185.676 11.5669 185.827 11.4347C185.978 11.3025 186.167 11.2292 186.361 11.2267H191.374C191.461 11.2225 191.548 11.2391 191.628 11.2752C191.709 11.3113 191.781 11.3661 191.84 11.4357C191.898 11.5052 191.942 11.5878 191.967 11.6775C191.993 11.7673 191.999 11.862 191.987 11.9548L187.584 41.9366C187.543 42.1426 187.439 42.3275 187.287 42.4612C187.136 42.5948 186.947 42.6691 186.751 42.6719V42.6647Z" fill="#AEAEAE"/>
<path fill-rule="evenodd" clip-rule="evenodd" d="M8.54736 0H21.6808C25.379 0 29.7682 0.127412 32.701 2.91227C34.6619 4.77248 35.6914 7.73207 35.4544 10.921C34.6483 21.7 28.6506 27.7393 20.6039 27.7393H14.1286C13.0245 27.7393 12.2964 28.5257 11.9848 30.6516L10.1763 43.0288C10.0578 43.8296 9.73607 44.3029 9.16034 44.3611H1.05607C0.158604 44.3611 -0.159745 43.6331 0.0739344 42.024L5.89899 2.35165C6.13267 0.757187 6.94885 0 8.54736 0Z" fill="#EFEFEF"/>
<path fill-rule="evenodd" clip-rule="evenodd" d="M12.1758 29.3958L14.4686 13.7897C14.6684 12.4209 15.366 11.7656 16.7545 11.7656H29.8745C32.0453 11.7656 33.803 12.1297 35.178 12.8031C33.8606 22.3991 28.0863 27.7285 20.5273 27.7285H14.0622C13.1952 27.7321 12.5585 28.1981 12.1758 29.3958Z" fill="#101B41"/>
</svg>
