<svg width="441" height="188" viewBox="0 0 441 188" fill="none" xmlns="http://www.w3.org/2000/svg">
<g filter="url(#filter0_d)">
<rect x="30.7227" y="25" width="410" height="152" rx="15" fill="#FFFCF6"/>
<path d="M106.8 77V57.736H109.208V77H106.8ZM124.108 68.964C124.108 67.6387 124.024 66.696 123.856 66.136C123.688 65.5573 123.37 65.1747 122.904 64.988C122.437 64.8013 121.653 64.708 120.552 64.708C119.376 64.708 118.508 64.8947 117.948 65.268C117.406 65.6413 117.061 66.1547 116.912 66.808C116.781 67.4613 116.716 68.404 116.716 69.636V77H114.448V62.72H116.464L116.576 64.736H116.744C117.061 64.008 117.584 63.4573 118.312 63.084C119.04 62.692 120.094 62.496 121.476 62.496C122.857 62.496 123.893 62.692 124.584 63.084C125.293 63.476 125.769 64.064 126.012 64.848C126.254 65.6133 126.376 66.6867 126.376 68.068V77H124.108V68.964ZM140.281 76.86C139.777 76.9533 139.161 77.0373 138.433 77.112C137.724 77.1867 137.043 77.224 136.389 77.224C134.635 77.224 133.347 76.972 132.525 76.468C131.704 75.964 131.172 75.2173 130.929 74.228C130.705 73.2387 130.593 71.7827 130.593 69.86C130.593 67.9747 130.733 66.5187 131.013 65.492C131.293 64.4653 131.844 63.7093 132.665 63.224C133.487 62.7387 134.7 62.496 136.305 62.496C136.94 62.496 137.612 62.5333 138.321 62.608C139.049 62.6827 139.665 62.7667 140.169 62.86V64.876C139.049 64.6707 137.948 64.568 136.865 64.568C135.671 64.568 134.793 64.708 134.233 64.988C133.692 65.268 133.328 65.7627 133.141 66.472C132.955 67.1813 132.861 68.3107 132.861 69.86C132.861 71.428 132.955 72.576 133.141 73.304C133.347 74.0133 133.72 74.4987 134.261 74.76C134.821 75.0213 135.717 75.152 136.949 75.152C137.864 75.152 138.975 75.0587 140.281 74.872V76.86ZM149.744 77.224C147.747 77.224 146.319 77.028 145.46 76.636C144.602 76.2253 144.051 75.544 143.808 74.592C143.584 73.6213 143.472 72.044 143.472 69.86C143.472 67.676 143.584 66.108 143.808 65.156C144.051 64.1853 144.602 63.504 145.46 63.112C146.319 62.7013 147.747 62.496 149.744 62.496C151.723 62.496 153.142 62.7013 154 63.112C154.859 63.504 155.4 64.1853 155.624 65.156C155.867 66.108 155.988 67.676 155.988 69.86C155.988 72.044 155.867 73.6213 155.624 74.592C155.4 75.544 154.859 76.2253 154 76.636C153.142 77.028 151.723 77.224 149.744 77.224ZM149.744 75.152C151.107 75.152 152.05 75.0307 152.572 74.788C153.095 74.5453 153.412 74.1067 153.524 73.472C153.655 72.8187 153.72 71.6147 153.72 69.86C153.72 68.1053 153.655 66.9107 153.524 66.276C153.412 65.6227 153.095 65.1747 152.572 64.932C152.05 64.6893 151.107 64.568 149.744 64.568C148.382 64.568 147.43 64.6893 146.888 64.932C146.366 65.1747 146.039 65.6227 145.908 66.276C145.796 66.9107 145.74 68.1053 145.74 69.86C145.74 71.6147 145.796 72.8187 145.908 73.472C146.039 74.1067 146.366 74.5453 146.888 74.788C147.43 75.0307 148.382 75.152 149.744 75.152ZM177.833 68.964C177.833 67.62 177.758 66.668 177.609 66.108C177.478 65.548 177.207 65.1747 176.797 64.988C176.386 64.8013 175.695 64.708 174.725 64.708C173.679 64.708 172.914 64.8853 172.429 65.24C171.943 65.5947 171.635 66.0987 171.505 66.752C171.374 67.4053 171.309 68.3667 171.309 69.636V77H169.041V68.964C169.041 67.62 168.966 66.668 168.817 66.108C168.686 65.548 168.415 65.1747 168.005 64.988C167.594 64.8013 166.903 64.708 165.933 64.708C164.887 64.708 164.122 64.8947 163.637 65.268C163.151 65.6227 162.843 66.136 162.713 66.808C162.582 67.4613 162.517 68.404 162.517 69.636V77H160.249V62.72H162.265L162.377 64.736H162.545C162.825 64.008 163.301 63.4573 163.973 63.084C164.663 62.692 165.634 62.496 166.885 62.496C168.117 62.496 169.05 62.6733 169.685 63.028C170.319 63.3827 170.758 63.952 171.001 64.736H171.197C171.794 63.2427 173.278 62.496 175.649 62.496C176.899 62.496 177.842 62.692 178.477 63.084C179.111 63.476 179.541 64.064 179.765 64.848C179.989 65.6133 180.101 66.6867 180.101 68.068V77H177.833V68.964ZM196.391 70.672H186.619C186.619 72.0347 186.713 73.0053 186.899 73.584C187.086 74.1627 187.487 74.5733 188.103 74.816C188.738 75.04 189.793 75.152 191.267 75.152C192.705 75.152 194.226 75.0493 195.831 74.844V76.832C195.234 76.944 194.459 77.0373 193.507 77.112C192.555 77.1867 191.65 77.224 190.791 77.224C188.869 77.224 187.45 77 186.535 76.552C185.639 76.104 185.051 75.3853 184.771 74.396C184.491 73.4067 184.351 71.904 184.351 69.888C184.351 67.9093 184.473 66.4253 184.715 65.436C184.977 64.4467 185.546 63.7093 186.423 63.224C187.319 62.7387 188.729 62.496 190.651 62.496C192.443 62.496 193.741 62.7387 194.543 63.224C195.346 63.6907 195.85 64.4093 196.055 65.38C196.279 66.332 196.391 67.8253 196.391 69.86V70.672ZM190.595 64.568C189.382 64.568 188.505 64.68 187.963 64.904C187.441 65.1093 187.086 65.5107 186.899 66.108C186.731 66.6867 186.638 67.6293 186.619 68.936H194.207V68.712C194.207 67.48 194.095 66.5747 193.871 65.996C193.666 65.4173 193.321 65.0347 192.835 64.848C192.35 64.6613 191.603 64.568 190.595 64.568Z" fill="#7C7979"/>
<path d="M301.703 134.873C301.703 134.035 301.407 133.328 300.814 132.754C300.231 132.18 299.242 131.66 297.848 131.195C295.906 130.603 294.489 129.833 293.596 128.885C292.712 127.928 292.27 126.715 292.27 125.248C292.27 123.753 292.702 122.527 293.568 121.57C294.443 120.613 295.642 120.044 297.164 119.861V116.867H299.201V119.875C300.732 120.085 301.922 120.727 302.77 121.803C303.626 122.878 304.055 124.35 304.055 126.219H301.539C301.539 124.934 301.234 123.913 300.623 123.156C300.012 122.4 299.188 122.021 298.148 122.021C297.064 122.021 296.234 122.304 295.66 122.869C295.086 123.425 294.799 124.204 294.799 125.207C294.799 126.137 295.1 126.88 295.701 127.436C296.312 127.982 297.31 128.484 298.695 128.939C300.09 129.386 301.174 129.883 301.949 130.43C302.733 130.967 303.307 131.596 303.672 132.316C304.046 133.036 304.232 133.88 304.232 134.846C304.232 136.386 303.768 137.626 302.838 138.564C301.917 139.503 300.623 140.059 298.955 140.232V142.844H296.932V140.232C295.236 140.077 293.906 139.476 292.939 138.428C291.982 137.37 291.504 135.939 291.504 134.135H294.033C294.033 135.402 294.366 136.377 295.031 137.061C295.697 137.744 296.64 138.086 297.861 138.086C299.055 138.086 299.994 137.799 300.678 137.225C301.361 136.65 301.703 135.867 301.703 134.873ZM311.055 128.816H312.955C314.149 128.798 315.088 128.484 315.771 127.873C316.455 127.262 316.797 126.438 316.797 125.398C316.797 123.065 315.635 121.898 313.311 121.898C312.217 121.898 311.342 122.213 310.686 122.842C310.038 123.462 309.715 124.286 309.715 125.316H307.186C307.186 123.74 307.76 122.432 308.908 121.393C310.066 120.344 311.533 119.82 313.311 119.82C315.188 119.82 316.66 120.317 317.727 121.311C318.793 122.304 319.326 123.685 319.326 125.453C319.326 126.319 319.044 127.158 318.479 127.969C317.923 128.78 317.161 129.386 316.195 129.787C317.289 130.133 318.132 130.708 318.725 131.51C319.326 132.312 319.627 133.292 319.627 134.449C319.627 136.236 319.044 137.653 317.877 138.701C316.71 139.749 315.193 140.273 313.324 140.273C311.456 140.273 309.934 139.768 308.758 138.756C307.591 137.744 307.008 136.409 307.008 134.75H309.551C309.551 135.798 309.893 136.637 310.576 137.266C311.26 137.895 312.176 138.209 313.324 138.209C314.546 138.209 315.48 137.89 316.127 137.252C316.774 136.614 317.098 135.698 317.098 134.504C317.098 133.346 316.742 132.458 316.031 131.838C315.32 131.218 314.295 130.899 312.955 130.881H311.055V128.816ZM324.262 130.02L325.273 120.094H335.473V122.432H327.42L326.818 127.859C327.794 127.285 328.901 126.998 330.141 126.998C331.954 126.998 333.395 127.6 334.461 128.803C335.527 129.997 336.061 131.615 336.061 133.656C336.061 135.707 335.505 137.325 334.393 138.51C333.29 139.686 331.745 140.273 329.758 140.273C327.999 140.273 326.563 139.786 325.451 138.811C324.339 137.835 323.706 136.486 323.551 134.764H325.943C326.098 135.903 326.504 136.764 327.16 137.348C327.816 137.922 328.682 138.209 329.758 138.209C330.934 138.209 331.854 137.808 332.52 137.006C333.194 136.204 333.531 135.096 333.531 133.684C333.531 132.353 333.167 131.286 332.438 130.484C331.717 129.673 330.756 129.268 329.553 129.268C328.45 129.268 327.584 129.509 326.955 129.992L326.285 130.539L324.262 130.02ZM351.305 131.51C351.305 134.472 350.799 136.673 349.787 138.113C348.775 139.553 347.194 140.273 345.043 140.273C342.919 140.273 341.347 139.572 340.326 138.168C339.305 136.755 338.777 134.65 338.74 131.852V128.475C338.74 125.549 339.246 123.375 340.258 121.953C341.27 120.531 342.855 119.82 345.016 119.82C347.158 119.82 348.734 120.508 349.746 121.885C350.758 123.252 351.277 125.367 351.305 128.229V131.51ZM348.775 128.051C348.775 125.909 348.475 124.35 347.873 123.375C347.271 122.391 346.319 121.898 345.016 121.898C343.721 121.898 342.778 122.386 342.186 123.361C341.593 124.337 341.288 125.836 341.27 127.859V131.906C341.27 134.057 341.579 135.648 342.199 136.678C342.828 137.699 343.776 138.209 345.043 138.209C346.292 138.209 347.217 137.726 347.818 136.76C348.429 135.794 348.748 134.271 348.775 132.193V128.051ZM367.027 131.51C367.027 134.472 366.521 136.673 365.51 138.113C364.498 139.553 362.917 140.273 360.766 140.273C358.642 140.273 357.07 139.572 356.049 138.168C355.028 136.755 354.499 134.65 354.463 131.852V128.475C354.463 125.549 354.969 123.375 355.98 121.953C356.992 120.531 358.578 119.82 360.738 119.82C362.88 119.82 364.457 120.508 365.469 121.885C366.48 123.252 367 125.367 367.027 128.229V131.51ZM364.498 128.051C364.498 125.909 364.197 124.35 363.596 123.375C362.994 122.391 362.042 121.898 360.738 121.898C359.444 121.898 358.501 122.386 357.908 123.361C357.316 124.337 357.01 125.836 356.992 127.859V131.906C356.992 134.057 357.302 135.648 357.922 136.678C358.551 137.699 359.499 138.209 360.766 138.209C362.014 138.209 362.939 137.726 363.541 136.76C364.152 135.794 364.471 134.271 364.498 132.193V128.051ZM370.582 138.674C370.582 138.236 370.71 137.872 370.965 137.58C371.229 137.288 371.621 137.143 372.141 137.143C372.66 137.143 373.052 137.288 373.316 137.58C373.59 137.872 373.727 138.236 373.727 138.674C373.727 139.093 373.59 139.444 373.316 139.727C373.052 140.009 372.66 140.15 372.141 140.15C371.621 140.15 371.229 140.009 370.965 139.727C370.71 139.444 370.582 139.093 370.582 138.674ZM390.133 131.51C390.133 134.472 389.627 136.673 388.615 138.113C387.604 139.553 386.022 140.273 383.871 140.273C381.747 140.273 380.175 139.572 379.154 138.168C378.133 136.755 377.605 134.65 377.568 131.852V128.475C377.568 125.549 378.074 123.375 379.086 121.953C380.098 120.531 381.684 119.82 383.844 119.82C385.986 119.82 387.562 120.508 388.574 121.885C389.586 123.252 390.105 125.367 390.133 128.229V131.51ZM387.604 128.051C387.604 125.909 387.303 124.35 386.701 123.375C386.1 122.391 385.147 121.898 383.844 121.898C382.549 121.898 381.606 122.386 381.014 123.361C380.421 124.337 380.116 125.836 380.098 127.859V131.906C380.098 134.057 380.408 135.648 381.027 136.678C381.656 137.699 382.604 138.209 383.871 138.209C385.12 138.209 386.045 137.726 386.646 136.76C387.257 135.794 387.576 134.271 387.604 132.193V128.051ZM405.855 131.51C405.855 134.472 405.35 136.673 404.338 138.113C403.326 139.553 401.745 140.273 399.594 140.273C397.47 140.273 395.898 139.572 394.877 138.168C393.856 136.755 393.327 134.65 393.291 131.852V128.475C393.291 125.549 393.797 123.375 394.809 121.953C395.82 120.531 397.406 119.82 399.566 119.82C401.708 119.82 403.285 120.508 404.297 121.885C405.309 123.252 405.828 125.367 405.855 128.229V131.51ZM403.326 128.051C403.326 125.909 403.025 124.35 402.424 123.375C401.822 122.391 400.87 121.898 399.566 121.898C398.272 121.898 397.329 122.386 396.736 123.361C396.144 124.337 395.839 125.836 395.82 127.859V131.906C395.82 134.057 396.13 135.648 396.75 136.678C397.379 137.699 398.327 138.209 399.594 138.209C400.842 138.209 401.768 137.726 402.369 136.76C402.98 135.794 403.299 134.271 403.326 132.193V128.051Z" fill="#636262"/>
<rect x="31.2227" y="25.5" width="409" height="151" rx="14.5" stroke="#BBB9B9"/>
</g>
<g filter="url(#filter1_d)">
<path d="M63.3972 41.9393H69.4766C69.4766 34.546 61.1022 31.1737 54.278 30.3971V25H48.1986V30.3971C41.3744 31.1737 33 34.546 33 41.9393C33 48.9913 41.1039 52.658 48.1986 53.4841V66.4362C43.7971 65.7821 39.0794 63.7676 39.0794 60.1817H33C33 66.9288 40.3713 70.916 48.1986 71.7421V77.121H54.278V71.7265C61.1022 70.9499 69.4766 67.5751 69.4766 60.1817C69.4766 52.7883 61.1022 49.4161 54.278 48.6395V35.6848C58.3208 36.3077 63.3972 38.1371 63.3972 41.9393V41.9393ZM39.0794 41.9393C39.0794 38.1371 44.1558 36.3077 48.1986 35.6848V48.1912C44.0311 47.5319 39.0794 45.58 39.0794 41.9393ZM63.3972 60.1817C63.3972 63.9839 58.3208 65.8134 54.278 66.4362V53.9272C58.3208 54.55 63.3972 56.3795 63.3972 60.1817V60.1817Z" fill="#7C7979"/>
</g>
<path d="M67.9176 7.66475C58.8823 3.25423 48.7331 2.41839 39.1993 5.29965C29.6655 8.18091 21.3369 14.601 15.6326 23.466C9.92837 32.331 7.20139 43.0924 7.91633 53.9166C8.63128 64.7409 12.7439 74.9582 19.5535 82.8276C26.363 90.6971 35.4482 95.7318 45.261 97.074C55.0738 98.4161 65.0071 95.9826 73.3683 90.1882C81.7295 84.3937 88.0013 75.5967 91.1152 65.2962C94.229 54.9956 93.9921 43.8288 90.4449 33.6984L84.4156 36.2413C87.4267 44.8408 87.6278 54.32 84.9845 63.064C82.3412 71.8079 77.0172 79.2755 69.9195 84.1943C62.8219 89.1131 54.3897 91.1789 46.0598 90.0395C37.7299 88.9002 30.0177 84.6263 24.2372 77.9461C18.4567 71.2659 14.9656 62.5926 14.3587 53.4041C13.7518 44.2157 16.0666 35.0805 20.9089 27.5552C25.7511 20.0298 32.8211 14.58 40.9142 12.1341C49.0072 9.68827 57.6227 10.3978 65.2926 14.1418L67.9176 7.66475Z" fill="#7C7979"/>
<path d="M72.3787 25.7224C72.2996 26.2937 72.6578 26.8193 73.1788 26.8963L81.6686 28.1506C82.1896 28.2276 82.676 27.8268 82.7552 27.2555C82.8343 26.6842 82.4761 26.1586 81.9551 26.0816L74.4086 24.9666L75.5545 16.6905C75.6336 16.1192 75.2754 15.5936 74.7544 15.5166C74.2335 15.4397 73.747 15.8404 73.6679 16.4118L72.3787 25.7224ZM111.434 -6.8325L72.7563 25.0317L73.8878 26.6918L112.566 -5.17238L111.434 -6.8325Z" fill="#048428"/>
<defs>
<filter id="filter0_d" x="20.7227" y="25" width="420" height="163" filterUnits="userSpaceOnUse" color-interpolation-filters="sRGB">
<feFlood flood-opacity="0" result="BackgroundImageFix"/>
<feColorMatrix in="SourceAlpha" type="matrix" values="0 0 0 0 0 0 0 0 0 0 0 0 0 0 0 0 0 0 127 0" result="hardAlpha"/>
<feOffset dx="-6" dy="7"/>
<feGaussianBlur stdDeviation="2"/>
<feComposite in2="hardAlpha" operator="out"/>
<feColorMatrix type="matrix" values="0 0 0 0 0 0 0 0 0 0 0 0 0 0 0 0 0 0 0.25 0"/>
<feBlend mode="normal" in2="BackgroundImageFix" result="effect1_dropShadow"/>
<feBlend mode="normal" in="SourceGraphic" in2="effect1_dropShadow" result="shape"/>
</filter>
<filter id="filter1_d" x="23" y="25" width="46.4766" height="60.1211" filterUnits="userSpaceOnUse" color-interpolation-filters="sRGB">
<feFlood flood-opacity="0" result="BackgroundImageFix"/>
<feColorMatrix in="SourceAlpha" type="matrix" values="0 0 0 0 0 0 0 0 0 0 0 0 0 0 0 0 0 0 127 0" result="hardAlpha"/>
<feOffset dx="-6" dy="4"/>
<feGaussianBlur stdDeviation="2"/>
<feComposite in2="hardAlpha" operator="out"/>
<feColorMatrix type="matrix" values="0 0 0 0 0 0 0 0 0 0 0 0 0 0 0 0 0 0 0.25 0"/>
<feBlend mode="normal" in2="BackgroundImageFix" result="effect1_dropShadow"/>
<feBlend mode="normal" in="SourceGraphic" in2="effect1_dropShadow" result="shape"/>
</filter>
</defs>
</svg>
