<svg width="522" height="266" viewBox="0 0 522 266" fill="none" xmlns="http://www.w3.org/2000/svg">
<g filter="url(#filter0_d)">
<path d="M11 247V9C11 4.58172 14.5817 1 19 1H513C517.418 1 521 4.58172 521 9V247C521 251.418 517.418 255 513 255H19C14.5817 255 11 251.418 11 247Z" fill="#FEFEFB"/>
<path d="M11 247V9C11 4.58172 14.5817 1 19 1H513C517.418 1 521 4.58172 521 9V247C521 251.418 517.418 255 513 255H19C14.5817 255 11 251.418 11 247Z" stroke="#DBDBD7"/>
</g>
<rect x="24" y="13" width="484" height="208" rx="5" fill="#CCCCCC"/>
<rect x="40" y="26" width="26" height="180" rx="13" fill="white"/>
<path d="M40 114H66V193C66 200.18 60.1797 206 53 206V206C45.8203 206 40 200.18 40 193V114Z" fill="#3372ED"/>
<rect x="192" y="26" width="26" height="180" rx="13" fill="white"/>
<rect x="192" y="88" width="26" height="118" rx="13" fill="url(#paint0_linear)"/>
<rect x="344" y="26" width="26" height="180" rx="13" fill="white"/>
<rect x="344" y="52" width="26" height="154" rx="13" fill="url(#paint1_linear)"/>
<rect x="78" y="26" width="26" height="180" rx="13" fill="white"/>
<path d="M78 160H104V193C104 200.18 98.1797 206 91 206V206C83.8203 206 78 200.18 78 193V160Z" fill="#3372ED"/>
<rect x="116" y="26" width="26" height="180" rx="13" fill="white"/>
<path d="M116 129H142V193C142 200.18 136.18 206 129 206V206C121.82 206 116 200.18 116 193V129Z" fill="#3372ED"/>
<rect x="154" y="26" width="26" height="180" rx="13" fill="white"/>
<path d="M154 140H180V193C180 200.18 174.18 206 167 206V206C159.82 206 154 200.18 154 193V140Z" fill="#3372ED"/>
<rect x="230" y="26" width="26" height="180" rx="13" fill="white"/>
<path d="M230 140H256V193C256 200.18 250.18 206 243 206V206C235.82 206 230 200.18 230 193V140Z" fill="#3372ED"/>
<rect x="268" y="26" width="26" height="180" rx="13" fill="white"/>
<path d="M268 118H294V193C294 200.18 288.18 206 281 206V206C273.82 206 268 200.18 268 193V118Z" fill="#3372ED"/>
<rect x="306" y="26" width="26" height="180" rx="13" fill="white"/>
<path d="M306 170H332V193C332 200.18 326.18 206 319 206V206C311.82 206 306 200.18 306 193V170Z" fill="#3372ED"/>
<rect x="382" y="26" width="26" height="180" rx="13" fill="white"/>
<path d="M382 151H408V193C408 200.18 402.18 206 395 206V206C387.82 206 382 200.18 382 193V151Z" fill="#3372ED"/>
<rect x="420" y="26" width="26" height="180" rx="13" fill="white"/>
<path d="M420 165H446V193C446 200.18 440.18 206 433 206V206C425.82 206 420 200.18 420 193V165Z" fill="#3372ED"/>
<rect x="458" y="26" width="26" height="180" rx="13" fill="white"/>
<path d="M458 154H484V193C484 200.18 478.18 206 471 206V206C463.82 206 458 200.18 458 193V154Z" fill="#3372ED"/>
<path d="M42.9574 227.6H44.2497L44.0715 232.027C44.0466 232.647 43.8537 233.145 43.4928 233.52C43.1319 233.895 42.679 234.082 42.134 234.082C41.5479 234.082 41.0992 233.908 40.788 233.559C40.4768 233.211 40.3336 232.727 40.3586 232.106H41.6553C41.631 232.709 41.8049 233.011 42.1771 233.011C42.5522 233.011 42.7537 232.662 42.7818 231.965L42.9574 227.6ZM47.2054 233.994C47.1732 233.921 47.143 233.798 47.1148 233.625C46.8798 233.93 46.5719 234.082 46.191 234.082C45.7924 234.082 45.4666 233.95 45.2135 233.687C44.9633 233.423 44.8466 233.082 44.8635 232.664C44.8835 232.166 45.0572 231.781 45.3847 231.509C45.715 231.236 46.1792 231.097 46.7772 231.091H47.1552L47.1706 230.709C47.1792 230.496 47.1487 230.345 47.0789 230.257C47.0092 230.169 46.904 230.125 46.7634 230.125C46.4528 230.125 46.2901 230.307 46.2755 230.67H45.0316C45.0493 230.231 45.2279 229.869 45.5676 229.585C45.9102 229.298 46.3336 229.155 46.8376 229.155C47.3592 229.155 47.7566 229.291 48.0299 229.563C48.3062 229.832 48.4343 230.219 48.414 230.722L48.324 232.958C48.3134 233.368 48.3591 233.688 48.4611 233.92L48.4581 233.994H47.2054ZM46.5071 233.107C46.6448 233.107 46.7632 233.079 46.8621 233.024C46.961 232.968 47.0355 232.902 47.0854 232.826L47.1252 231.838H46.8263C46.6153 231.838 46.4456 231.905 46.3171 232.04C46.1915 232.175 46.1242 232.355 46.1151 232.58C46.101 232.931 46.2317 233.107 46.5071 233.107ZM50.513 229.242L50.5293 229.712C50.8256 229.341 51.2008 229.155 51.655 229.155C52.4725 229.155 52.87 229.727 52.8474 230.872L52.7217 233.994H51.4734L51.5954 230.964C51.6062 230.695 51.573 230.5 51.4958 230.38C51.4216 230.257 51.2834 230.195 51.0813 230.195C50.8556 230.195 50.6752 230.311 50.5398 230.542L50.4009 233.994H49.1526L49.3439 229.242H50.513Z" fill="#585858"/>
<path d="M83.5465 231.386H81.5378L81.4328 233.994H80.1406L80.3979 227.6H83.9406L83.8973 228.676H81.6469L81.581 230.314H83.5897L83.5465 231.386ZM86.1808 234.082C85.542 234.082 85.0515 233.892 84.7093 233.511C84.3671 233.131 84.2103 232.586 84.2388 231.877L84.254 231.5C84.2842 230.75 84.4715 230.172 84.8161 229.765C85.1607 229.358 85.6392 229.155 86.2516 229.155C86.8494 229.155 87.2915 229.346 87.5779 229.73C87.8644 230.111 87.9955 230.676 87.9712 231.425L87.9466 232.036H85.472C85.4754 232.387 85.5427 232.645 85.6738 232.809C85.8051 232.97 86.0143 233.05 86.3014 233.05C86.7175 233.05 87.0705 232.908 87.3603 232.624L87.818 233.375C87.6571 233.586 87.429 233.757 87.1336 233.889C86.8383 234.018 86.5207 234.082 86.1808 234.082ZM85.5158 231.166H86.7597L86.7643 231.052C86.7698 230.768 86.7316 230.553 86.6496 230.406C86.5676 230.26 86.4181 230.187 86.2013 230.187C85.9845 230.187 85.8231 230.264 85.7172 230.419C85.6143 230.575 85.5471 230.823 85.5158 231.166ZM92.3702 231.772C92.3392 232.542 92.1929 233.12 91.9312 233.507C91.6696 233.89 91.2751 234.082 90.7477 234.082C90.3345 234.082 90.0108 233.896 89.7767 233.524L89.7183 233.994H88.5711L88.8425 227.249H90.0864L89.9906 229.629C90.2378 229.313 90.5533 229.155 90.9372 229.155C91.4646 229.155 91.8437 229.346 92.0744 229.73C92.3052 230.111 92.4087 230.67 92.3849 231.408L92.3702 231.772ZM91.1389 231.46C91.159 230.96 91.1242 230.624 91.0343 230.455C90.9445 230.282 90.7795 230.195 90.5392 230.195C90.2785 230.195 90.0832 230.314 89.9535 230.551L89.8664 232.716C89.9688 232.939 90.1577 233.05 90.4332 233.05C90.6705 233.05 90.8377 232.972 90.9348 232.817C91.0348 232.662 91.0968 232.361 91.1207 231.913L91.1389 231.46Z" fill="#585858"/>
<path d="M121.633 227.6L122.655 232.225L124.046 227.6H125.734L125.476 233.995H124.18L124.249 232.264L124.475 229.599L123.019 233.995H122.14L121.038 229.599L121.049 232.264L120.98 233.995H119.687L119.945 227.6H121.633ZM128.716 233.995C128.683 233.922 128.653 233.799 128.625 233.626C128.39 233.93 128.082 234.083 127.701 234.083C127.303 234.083 126.977 233.951 126.724 233.687C126.474 233.424 126.357 233.083 126.374 232.664C126.394 232.166 126.568 231.781 126.895 231.509C127.225 231.237 127.689 231.098 128.287 231.092H128.666L128.681 230.71C128.689 230.496 128.659 230.345 128.589 230.257C128.519 230.17 128.414 230.126 128.274 230.126C127.963 230.126 127.8 230.307 127.786 230.67H126.542C126.56 230.231 126.738 229.869 127.078 229.585C127.421 229.299 127.844 229.155 128.348 229.155C128.869 229.155 129.267 229.291 129.54 229.564C129.816 229.833 129.945 230.219 129.924 230.723L129.834 232.958C129.824 233.368 129.869 233.689 129.971 233.92L129.968 233.995H128.716ZM128.017 233.108C128.155 233.108 128.273 233.08 128.372 233.024C128.471 232.969 128.546 232.903 128.596 232.827L128.635 231.838H128.337C128.126 231.838 127.956 231.906 127.827 232.04C127.702 232.175 127.634 232.355 127.625 232.581C127.611 232.932 127.742 233.108 128.017 233.108ZM133.184 230.442L132.772 230.407C132.432 230.407 132.196 230.556 132.064 230.855L131.938 233.995H130.689L130.88 229.243H132.054L132.069 229.757C132.281 229.356 132.56 229.155 132.906 229.155C133.047 229.155 133.16 229.174 133.246 229.212L133.184 230.442Z" fill="#585858"/>
<path d="M161.3 232.686H159.537L159.142 233.994H157.775L160.032 227.6H161.214L162.97 233.994H161.59L161.3 232.686ZM159.862 231.61H161.057L160.551 229.33L159.862 231.61ZM167.095 231.768C167.065 232.514 166.913 233.087 166.639 233.485C166.368 233.883 165.979 234.082 165.472 234.082C165.085 234.082 164.781 233.925 164.559 233.612L164.47 235.821H163.226L163.491 229.242H164.643L164.669 229.677C164.921 229.329 165.251 229.155 165.662 229.155C166.169 229.155 166.542 229.339 166.782 229.708C167.025 230.077 167.134 230.642 167.109 231.403L167.095 231.768ZM165.868 231.456C165.886 230.996 165.848 230.671 165.753 230.481C165.661 230.291 165.495 230.195 165.255 230.195C165 230.195 164.81 230.302 164.684 230.516L164.594 232.743C164.697 232.948 164.882 233.05 165.149 233.05C165.395 233.05 165.569 232.946 165.671 232.738C165.776 232.53 165.838 232.207 165.855 231.768L165.868 231.456ZM170.247 230.441L169.835 230.406C169.495 230.406 169.259 230.556 169.127 230.854L169.001 233.994H167.752L167.944 229.242H169.117L169.132 229.756C169.344 229.355 169.623 229.155 169.969 229.155C170.11 229.155 170.223 229.174 170.31 229.212L170.247 230.441Z" fill="#585858"/>
<path d="M238.607 227.6H239.899L239.721 232.027C239.696 232.648 239.503 233.146 239.142 233.52C238.781 233.895 238.328 234.083 237.783 234.083C237.197 234.083 236.749 233.908 236.437 233.56C236.126 233.212 235.983 232.727 236.008 232.106H237.305C237.28 232.709 237.454 233.011 237.826 233.011C238.202 233.011 238.403 232.663 238.431 231.966L238.607 227.6ZM242.951 233.56C242.68 233.908 242.327 234.083 241.893 234.083C241.456 234.083 241.131 233.933 240.918 233.635C240.704 233.333 240.609 232.895 240.632 232.322L240.756 229.243H242L241.875 232.352C241.862 232.815 242.007 233.046 242.308 233.046C242.593 233.046 242.803 232.923 242.939 232.677L243.077 229.243H244.33L244.138 233.995H242.969L242.951 233.56ZM246.356 229.243L246.372 229.713C246.668 229.341 247.044 229.155 247.498 229.155C248.315 229.155 248.713 229.727 248.69 230.872L248.565 233.995H247.316L247.438 230.964C247.449 230.695 247.416 230.5 247.339 230.38C247.264 230.257 247.126 230.196 246.924 230.196C246.698 230.196 246.518 230.312 246.383 230.543L246.244 233.995H244.995L245.187 229.243H246.356Z" fill="#585858"/>
<path d="M277.114 227.6H278.406L278.228 232.027C278.203 232.648 278.01 233.146 277.649 233.52C277.288 233.895 276.835 234.083 276.29 234.083C275.704 234.083 275.255 233.908 274.944 233.56C274.633 233.212 274.49 232.727 274.515 232.106H275.812C275.787 232.709 275.961 233.011 276.333 233.011C276.708 233.011 276.91 232.663 276.938 231.966L277.114 227.6ZM281.458 233.56C281.186 233.908 280.834 234.083 280.4 234.083C279.963 234.083 279.638 233.933 279.425 233.635C279.211 233.333 279.116 232.895 279.139 232.322L279.263 229.243H280.507L280.382 232.352C280.369 232.815 280.513 233.046 280.815 233.046C281.1 233.046 281.31 232.923 281.445 232.677L281.584 229.243H282.836L282.645 233.995H281.476L281.458 233.56ZM284.838 233.995H283.59L283.862 227.249H285.11L284.838 233.995Z" fill="#585858"/>
<path d="M317.404 232.686H315.642L315.246 233.995H313.879L316.137 227.6H317.319L319.075 233.995H317.695L317.404 232.686ZM315.966 231.61H317.162L316.656 229.331L315.966 231.61ZM321.918 233.56C321.647 233.908 321.294 234.083 320.86 234.083C320.423 234.083 320.098 233.933 319.885 233.635C319.671 233.333 319.576 232.895 319.599 232.322L319.723 229.243H320.967L320.842 232.352C320.829 232.815 320.974 233.046 321.275 233.046C321.56 233.046 321.77 232.923 321.906 232.677L322.044 229.243H323.297L323.105 233.995H321.936L321.918 233.56ZM323.945 231.474C323.977 230.695 324.141 230.114 324.437 229.73C324.734 229.347 325.136 229.155 325.643 229.155C326.074 229.155 326.399 229.325 326.62 229.665L326.685 229.243H327.806L327.615 233.995C327.591 234.601 327.402 235.063 327.049 235.383C326.696 235.705 326.202 235.866 325.566 235.866C325.305 235.866 325.034 235.813 324.751 235.708C324.468 235.605 324.259 235.473 324.125 235.312L324.577 234.452C324.689 234.574 324.838 234.674 325.022 234.75C325.206 234.829 325.382 234.869 325.549 234.869C325.828 234.869 326.03 234.801 326.155 234.667C326.283 234.535 326.355 234.321 326.37 234.026L326.386 233.617C326.136 233.927 325.821 234.083 325.44 234.083C324.933 234.083 324.548 233.886 324.286 233.494C324.026 233.099 323.908 232.543 323.931 231.825L323.945 231.474ZM325.177 231.786C325.159 232.225 325.203 232.545 325.309 232.748C325.416 232.947 325.593 233.046 325.842 233.046C326.097 233.046 326.29 232.954 326.42 232.769L326.512 230.499C326.391 230.297 326.209 230.196 325.966 230.196C325.72 230.196 325.532 230.297 325.404 230.499C325.279 230.701 325.207 231.026 325.189 231.474L325.177 231.786Z" fill="#585858"/>
<path d="M354.532 232.317C354.543 232.057 354.483 231.86 354.354 231.729C354.227 231.594 353.991 231.455 353.645 231.311C353.013 231.068 352.563 230.784 352.295 230.459C352.027 230.132 351.902 229.745 351.92 229.3C351.942 228.761 352.149 228.329 352.543 228.004C352.94 227.677 353.433 227.513 354.022 227.513C354.415 227.513 354.762 227.596 355.063 227.763C355.364 227.927 355.591 228.16 355.742 228.461C355.897 228.763 355.967 229.105 355.952 229.489H354.664C354.676 229.19 354.62 228.963 354.498 228.808C354.378 228.65 354.198 228.571 353.958 228.571C353.732 228.571 353.554 228.638 353.422 228.773C353.291 228.905 353.221 229.083 353.212 229.309C353.205 229.484 353.269 229.644 353.403 229.787C353.538 229.928 353.782 230.074 354.133 230.227C354.748 230.452 355.19 230.729 355.458 231.057C355.729 231.385 355.854 231.802 355.834 232.308C355.811 232.865 355.617 233.299 355.249 233.613C354.882 233.926 354.394 234.083 353.784 234.083C353.371 234.083 352.998 233.998 352.665 233.828C352.332 233.658 352.075 233.415 351.894 233.099C351.717 232.783 351.636 232.409 351.654 231.979H352.95C352.936 232.348 352.997 232.616 353.133 232.783C353.27 232.95 353.501 233.033 353.827 233.033C354.278 233.033 354.513 232.794 354.532 232.317ZM358.479 234.083C357.84 234.083 357.349 233.892 357.007 233.512C356.665 233.131 356.508 232.586 356.537 231.878L356.552 231.5C356.582 230.751 356.77 230.172 357.114 229.766C357.459 229.359 357.937 229.155 358.55 229.155C359.147 229.155 359.589 229.347 359.876 229.73C360.162 230.111 360.293 230.676 360.269 231.426L360.245 232.036H357.77C357.773 232.387 357.841 232.645 357.972 232.809C358.103 232.97 358.312 233.051 358.599 233.051C359.016 233.051 359.368 232.909 359.658 232.625L360.116 233.376C359.955 233.586 359.727 233.758 359.432 233.889C359.136 234.018 358.819 234.083 358.479 234.083ZM357.814 231.166H359.058L359.062 231.052C359.068 230.768 359.03 230.553 358.948 230.407C358.866 230.26 358.716 230.187 358.499 230.187C358.282 230.187 358.121 230.265 358.015 230.42C357.912 230.575 357.845 230.824 357.814 231.166ZM364.664 231.768C364.634 232.515 364.482 233.087 364.208 233.485C363.937 233.884 363.548 234.083 363.041 234.083C362.654 234.083 362.35 233.926 362.128 233.613L362.039 235.822H360.796L361.06 229.243H362.212L362.238 229.678C362.49 229.329 362.821 229.155 363.231 229.155C363.738 229.155 364.111 229.34 364.351 229.708C364.594 230.077 364.703 230.642 364.679 231.404L364.664 231.768ZM363.437 231.456C363.456 230.997 363.417 230.672 363.322 230.481C363.23 230.291 363.064 230.196 362.824 230.196C362.569 230.196 362.379 230.303 362.253 230.517L362.163 232.743C362.266 232.948 362.451 233.051 362.718 233.051C362.964 233.051 363.138 232.947 363.24 232.739C363.345 232.531 363.407 232.207 363.424 231.768L363.437 231.456Z" fill="#585858"/>
<path d="M396.96 231.372C396.926 232.23 396.695 232.896 396.269 233.371C395.846 233.845 395.273 234.082 394.553 234.082C393.835 234.082 393.28 233.848 392.889 233.379C392.497 232.908 392.316 232.249 392.344 231.403L392.388 230.31C392.423 229.431 392.655 228.746 393.082 228.254C393.509 227.759 394.084 227.512 394.808 227.512C395.52 227.512 396.072 227.755 396.462 228.241C396.853 228.724 397.034 229.403 397.004 230.279L396.96 231.372ZM395.707 230.301C395.73 229.724 395.665 229.295 395.513 229.014C395.36 228.733 395.11 228.592 394.765 228.592C394.422 228.592 394.163 228.729 393.988 229.001C393.813 229.27 393.711 229.682 393.683 230.235L393.637 231.372C393.615 231.932 393.682 232.344 393.838 232.611C393.995 232.874 394.247 233.006 394.596 233.006C394.933 233.006 395.189 232.877 395.363 232.62C395.538 232.359 395.637 231.957 395.662 231.412L395.707 230.301ZM399.477 233.05C399.838 233.05 400.03 232.816 400.055 232.347H401.224C401.198 232.866 401.021 233.284 400.695 233.603C400.368 233.923 399.957 234.082 399.462 234.082C398.85 234.082 398.39 233.892 398.083 233.511C397.776 233.131 397.635 232.57 397.658 231.829L397.674 231.451C397.704 230.705 397.885 230.135 398.217 229.743C398.552 229.351 399.031 229.155 399.652 229.155C400.176 229.155 400.583 229.317 400.872 229.642C401.161 229.964 401.296 230.422 401.278 231.017H400.109C400.116 230.75 400.081 230.545 400.002 230.402C399.922 230.258 399.785 230.187 399.588 230.187C399.371 230.187 399.213 230.264 399.113 230.419C399.013 230.572 398.951 230.869 398.928 231.311L398.908 231.794C398.893 232.18 398.901 232.451 398.933 232.606C398.965 232.759 399.023 232.871 399.108 232.945C399.193 233.015 399.316 233.05 399.477 233.05ZM403.546 228.074L403.499 229.242H404.136L404.098 230.178H403.461L403.366 232.536C403.359 232.724 403.378 232.852 403.425 232.923C403.475 232.993 403.573 233.028 403.72 233.028C403.84 233.028 403.939 233.018 404.016 232.997L403.968 233.964C403.754 234.043 403.524 234.082 403.278 234.082C402.475 234.082 402.087 233.622 402.115 232.703L402.217 230.178H401.668L401.705 229.242H402.255L402.302 228.074H403.546Z" fill="#585858"/>
<path d="M434.288 233.995H432.996L431.274 229.801L431.106 233.995H429.813L430.071 227.6H431.363L433.089 231.799L433.257 227.6H434.545L434.288 233.995ZM435.221 231.465C435.25 230.745 435.442 230.18 435.799 229.77C436.155 229.36 436.634 229.155 437.234 229.155C437.841 229.155 438.306 229.36 438.629 229.77C438.953 230.18 439.1 230.748 439.071 231.474L439.058 231.777C439.029 232.5 438.838 233.065 438.485 233.472C438.131 233.879 437.651 234.083 437.045 234.083C436.435 234.083 435.969 233.879 435.645 233.472C435.325 233.062 435.179 232.494 435.208 231.768L435.221 231.465ZM436.456 231.777C436.422 232.626 436.632 233.051 437.086 233.051C437.505 233.051 437.745 232.696 437.806 231.988L437.831 231.465C437.849 231.032 437.802 230.711 437.69 230.503C437.578 230.293 437.413 230.187 437.193 230.187C436.982 230.187 436.812 230.293 436.683 230.503C436.558 230.711 436.486 231.032 436.469 231.465L436.456 231.777ZM441.308 232.238L442.031 229.243H443.327L441.831 233.995H440.644L439.525 229.243H440.826L441.308 232.238Z" fill="#585858"/>
<path d="M469.36 233.995L469.618 227.6H471.31C472.057 227.6 472.642 227.838 473.066 228.312C473.492 228.786 473.693 229.436 473.669 230.262L473.627 231.298C473.593 232.139 473.344 232.799 472.879 233.279C472.417 233.756 471.797 233.995 471.017 233.995H469.36ZM470.867 228.676L470.696 232.923H471.082C471.513 232.923 471.821 232.81 472.006 232.585C472.191 232.357 472.299 231.964 472.33 231.408L472.375 230.297C472.399 229.7 472.332 229.284 472.175 229.05C472.017 228.813 471.738 228.688 471.337 228.676H470.867ZM476.306 234.083C475.667 234.083 475.177 233.892 474.835 233.512C474.492 233.131 474.335 232.586 474.364 231.878L474.379 231.5C474.409 230.751 474.597 230.172 474.941 229.766C475.286 229.359 475.764 229.155 476.377 229.155C476.975 229.155 477.417 229.347 477.703 229.73C477.99 230.111 478.121 230.676 478.096 231.426L478.072 232.036H475.597C475.601 232.387 475.668 232.645 475.799 232.809C475.93 232.97 476.139 233.051 476.427 233.051C476.843 233.051 477.196 232.909 477.485 232.625L477.943 233.376C477.782 233.586 477.554 233.758 477.259 233.889C476.963 234.018 476.646 234.083 476.306 234.083ZM475.641 231.166H476.885L476.889 231.052C476.895 230.768 476.857 230.553 476.775 230.407C476.693 230.26 476.543 230.187 476.326 230.187C476.11 230.187 475.948 230.265 475.842 230.42C475.739 230.575 475.672 230.824 475.641 231.166ZM480.453 233.051C480.813 233.051 481.006 232.816 481.031 232.348H482.2C482.173 232.866 481.996 233.285 481.67 233.604C481.344 233.923 480.933 234.083 480.438 234.083C479.825 234.083 479.366 233.892 479.059 233.512C478.752 233.131 478.61 232.57 478.634 231.83L478.649 231.452C478.679 230.705 478.86 230.136 479.193 229.744C479.528 229.351 480.006 229.155 480.627 229.155C481.152 229.155 481.558 229.318 481.847 229.643C482.136 229.965 482.271 230.423 482.253 231.017H481.084C481.092 230.751 481.056 230.546 480.977 230.402C480.898 230.259 480.76 230.187 480.564 230.187C480.347 230.187 480.188 230.265 480.088 230.42C479.989 230.572 479.927 230.869 479.903 231.311L479.884 231.795C479.868 232.181 479.876 232.452 479.908 232.607C479.94 232.759 479.999 232.872 480.083 232.945C480.169 233.015 480.292 233.051 480.453 233.051Z" fill="#585858"/>
<path d="M197.603 227.6L198.626 232.224L200.016 227.6H201.704L201.447 233.994H200.15L200.22 232.264L200.446 229.598L198.99 233.994H198.111L197.009 229.598L197.02 232.264L196.95 233.994H195.658L195.915 227.6H197.603ZM204.686 233.994C204.654 233.921 204.624 233.798 204.596 233.625C204.361 233.93 204.053 234.082 203.672 234.082C203.273 234.082 202.948 233.95 202.694 233.687C202.444 233.423 202.328 233.082 202.344 232.664C202.364 232.166 202.538 231.781 202.866 231.509C203.196 231.236 203.66 231.097 204.258 231.091H204.636L204.652 230.709C204.66 230.496 204.63 230.345 204.56 230.257C204.49 230.169 204.385 230.125 204.244 230.125C203.934 230.125 203.771 230.307 203.757 230.67H202.513C202.53 230.231 202.709 229.869 203.049 229.585C203.391 229.298 203.815 229.155 204.319 229.155C204.84 229.155 205.238 229.291 205.511 229.563C205.787 229.832 205.915 230.219 205.895 230.722L205.805 232.958C205.794 233.368 205.84 233.688 205.942 233.92L205.939 233.994H204.686ZM203.988 233.107C204.126 233.107 204.244 233.079 204.343 233.024C204.442 232.968 204.516 232.902 204.566 232.826L204.606 231.838H204.307C204.096 231.838 203.927 231.905 203.798 232.04C203.672 232.175 203.605 232.355 203.596 232.58C203.582 232.931 203.713 233.107 203.988 233.107ZM208.202 231.926L208.943 229.242H210.271L208.486 234.706C208.219 235.511 207.762 235.913 207.115 235.913C206.965 235.913 206.796 235.886 206.608 235.83L206.647 234.859L206.792 234.864C206.985 234.864 207.132 234.826 207.232 234.75C207.334 234.676 207.414 234.548 207.471 234.363L207.581 234.043L206.403 229.242H207.739L208.202 231.926Z" fill="#585858"/>
<defs>
<filter id="filter0_d" x="0.5" y="0.5" width="521" height="265" filterUnits="userSpaceOnUse" color-interpolation-filters="sRGB">
<feFlood flood-opacity="0" result="BackgroundImageFix"/>
<feColorMatrix in="SourceAlpha" type="matrix" values="0 0 0 0 0 0 0 0 0 0 0 0 0 0 0 0 0 0 127 0" result="hardAlpha"/>
<feOffset dx="-6" dy="6"/>
<feGaussianBlur stdDeviation="2"/>
<feComposite in2="hardAlpha" operator="out"/>
<feColorMatrix type="matrix" values="0 0 0 0 0 0 0 0 0 0 0 0 0 0 0 0 0 0 0.25 0"/>
<feBlend mode="normal" in2="BackgroundImageFix" result="effect1_dropShadow"/>
<feBlend mode="normal" in="SourceGraphic" in2="effect1_dropShadow" result="shape"/>
</filter>
<linearGradient id="paint0_linear" x1="205" y1="88" x2="205" y2="206" gradientUnits="userSpaceOnUse">
<stop stop-color="#FD6060" stop-opacity="0.78"/>
<stop offset="0.369792" stop-color="#3372ED"/>
</linearGradient>
<linearGradient id="paint1_linear" x1="357" y1="52" x2="357" y2="206" gradientUnits="userSpaceOnUse">
<stop offset="0.270833" stop-color="#FD6060" stop-opacity="0.78"/>
<stop offset="0.46875" stop-color="#3372ED"/>
</linearGradient>
</defs>
</svg>
