<svg width="531" height="263" viewBox="0 0 531 263" fill="none" xmlns="http://www.w3.org/2000/svg">
<g filter="url(#filter0_d)">
<rect width="501.603" height="244.485" rx="7" transform="matrix(1.00021 0 -0.0402176 0.999364 29 0)" fill="#FEFEFB"/>
<rect width="466" height="200" rx="3" transform="matrix(1.00021 0 -0.0402176 0.999364 43.3994 14.9902)" fill="#D0D0D0"/>
<g clip-path="url(#clip0)">
<rect width="20" height="160" rx="10" transform="matrix(1.00021 0 -0.0402176 0.999364 59.5986 34.9775)" fill="white"/>
<rect width="20" height="114" rx="10" transform="matrix(1.00021 0 -0.0402176 0.999364 57.749 80.9482)" fill="url(#paint0_linear)"/>
</g>
<g clip-path="url(#clip1)">
<rect width="20" height="160" rx="10" transform="matrix(1.00021 0 -0.0402176 0.999364 210.63 34.9775)" fill="white"/>
<rect width="20" height="77" rx="10" transform="matrix(1.00021 0 -0.0402176 0.999364 207.292 117.925)" fill="#3372ED"/>
</g>
<rect width="20" height="160" rx="10" transform="matrix(1.00021 0 -0.0402176 0.999364 358.661 34.9775)" fill="white"/>
<g clip-path="url(#clip2)">
<rect width="20" height="160" rx="10" transform="matrix(1.00021 0 -0.0402176 0.999364 97.6064 34.9775)" fill="white"/>
<rect width="20" height="76" rx="10" transform="matrix(1.00021 0 -0.0402176 0.999364 94.2285 118.924)" fill="#3372ED"/>
</g>
<g clip-path="url(#clip3)">
<rect width="20" height="160" rx="10" transform="matrix(1.00021 0 -0.0402176 0.999364 247.638 34.9775)" fill="white"/>
<rect width="20" height="149" rx="10" transform="matrix(1.00021 0 -0.0402176 0.999364 247.195 45.9707)" fill="url(#paint1_linear)"/>
</g>
<rect width="20" height="160" rx="10" transform="matrix(1.00021 0 -0.0402176 0.999364 396.669 34.9775)" fill="white"/>
<g clip-path="url(#clip4)">
<rect width="20" height="160" rx="10" transform="matrix(1.00021 0 -0.0402176 0.999364 135.614 34.9775)" fill="white"/>
<rect width="20" height="92" rx="10" transform="matrix(1.00021 0 -0.0402176 0.999364 132.88 102.934)" fill="#3372ED"/>
</g>
<g clip-path="url(#clip5)">
<rect width="20" height="160" rx="10" transform="matrix(1.00021 0 -0.0402176 0.999364 285.646 34.9775)" fill="white"/>
<rect width="20" height="85" rx="10" transform="matrix(1.00021 0 -0.0402176 0.999364 282.629 109.93)" fill="#3372ED"/>
</g>
<rect width="20" height="160" rx="10" transform="matrix(1.00021 0 -0.0402176 0.999364 434.677 34.9775)" fill="white"/>
<g clip-path="url(#clip6)">
<rect width="20" height="160" rx="10" transform="matrix(1.00021 0 -0.0402176 0.999364 172.622 34.9775)" fill="white"/>
<rect width="20" height="48" rx="10" transform="matrix(1.00021 0 -0.0402176 0.999364 168.118 146.906)" fill="#3372ED"/>
</g>
<rect width="20" height="160" rx="10" transform="matrix(1.00021 0 -0.0402176 0.999364 321.653 34.9775)" fill="white"/>
<rect width="20" height="160" rx="10" transform="matrix(1.00021 0 -0.0402176 0.999364 471.685 34.9775)" fill="white"/>
<path d="M60.2807 222.938H61.5729L61.3948 227.365C61.3698 227.986 61.1769 228.484 60.816 228.858C60.4552 229.233 60.0022 229.42 59.4572 229.42C58.8711 229.42 58.4225 229.246 58.1112 228.898C57.8 228.549 57.6569 228.065 57.6819 227.444H58.9785C58.9542 228.047 59.1282 228.349 59.5003 228.349C59.8754 228.349 60.077 228 60.105 227.304L60.2807 222.938ZM64.5287 229.333C64.4965 229.259 64.4662 229.136 64.438 228.964C64.2031 229.268 63.8951 229.42 63.5142 229.42C63.1157 229.42 62.7899 229.289 62.5367 229.025C62.2865 228.762 62.1699 228.421 62.1867 228.002C62.2067 227.504 62.3805 227.119 62.7079 226.847C63.0383 226.575 63.5025 226.436 64.1005 226.43H64.4785L64.4939 226.048C64.5025 225.834 64.4719 225.683 64.4022 225.595C64.3324 225.507 64.2273 225.464 64.0866 225.464C63.776 225.464 63.6134 225.645 63.5988 226.008H62.3549C62.3725 225.569 62.5512 225.207 62.8908 224.923C63.2335 224.636 63.6568 224.493 64.1608 224.493C64.6824 224.493 65.0799 224.629 65.3531 224.901C65.6295 225.171 65.7575 225.557 65.7372 226.061L65.6473 228.296C65.6366 228.706 65.6823 229.027 65.7844 229.258L65.7814 229.333H64.5287ZM63.8303 228.446C63.9681 228.446 64.0864 228.418 64.1853 228.362C64.2843 228.306 64.3587 228.241 64.4087 228.164L64.4484 227.176H64.1495C63.9386 227.176 63.7688 227.244 63.6403 227.378C63.5148 227.513 63.4475 227.693 63.4384 227.919C63.4242 228.27 63.5549 228.446 63.8303 228.446ZM67.8363 224.581L67.8525 225.051C68.1488 224.679 68.524 224.493 68.9782 224.493C69.7958 224.493 70.1933 225.065 70.1706 226.21L70.045 229.333H68.7967L68.9186 226.302C68.9294 226.033 68.8963 225.838 68.819 225.718C68.7449 225.595 68.6067 225.534 68.4045 225.534C68.1789 225.534 67.9984 225.649 67.8631 225.881L67.7242 229.333H66.4759L66.6671 224.581H67.8363Z" fill="#585858"/>
<path d="M99.3317 226.724H97.323L97.218 229.333H95.9257L96.1831 222.938H99.7258L99.6825 224.014H97.432L97.3661 225.652H99.3748L99.3317 226.724ZM101.966 229.42C101.327 229.42 100.837 229.23 100.494 228.85C100.152 228.469 99.9955 227.924 100.024 227.216L100.039 226.838C100.069 226.089 100.257 225.51 100.601 225.103C100.946 224.696 101.424 224.493 102.037 224.493C102.635 224.493 103.077 224.685 103.363 225.068C103.65 225.449 103.781 226.014 103.756 226.763L103.732 227.374H101.257C101.261 227.725 101.328 227.983 101.459 228.147C101.59 228.308 101.799 228.388 102.087 228.388C102.503 228.388 102.856 228.246 103.145 227.962L103.603 228.713C103.442 228.924 103.214 229.096 102.919 229.227C102.623 229.356 102.306 229.42 101.966 229.42ZM101.301 226.504H102.545L102.549 226.39C102.555 226.106 102.517 225.891 102.435 225.745C102.353 225.598 102.203 225.525 101.986 225.525C101.77 225.525 101.608 225.603 101.502 225.758C101.399 225.913 101.332 226.162 101.301 226.504ZM108.155 227.11C108.124 227.88 107.978 228.459 107.716 228.845C107.455 229.229 107.06 229.42 106.533 229.42C106.12 229.42 105.796 229.235 105.562 228.863L105.503 229.333H104.356L104.628 222.587H105.872L105.776 224.967C106.023 224.651 106.338 224.493 106.722 224.493C107.25 224.493 107.629 224.685 107.86 225.068C108.09 225.449 108.194 226.008 108.17 226.746L108.155 227.11ZM106.924 226.799C106.944 226.298 106.909 225.963 106.819 225.793C106.73 225.62 106.565 225.534 106.324 225.534C106.064 225.534 105.868 225.652 105.739 225.89L105.652 228.055C105.754 228.277 105.943 228.388 106.218 228.388C106.456 228.388 106.623 228.311 106.72 228.156C106.82 228 106.882 227.699 106.906 227.251L106.924 226.799Z" fill="#585858"/>
<path d="M135.879 222.939L136.901 227.563L138.292 222.939H139.98L139.722 229.333H138.426L138.495 227.603L138.721 224.937L137.265 229.333H136.386L135.284 224.937L135.295 227.603L135.226 229.333H133.934L134.191 222.939H135.879ZM142.962 229.333C142.93 229.26 142.899 229.137 142.871 228.964C142.636 229.269 142.328 229.421 141.947 229.421C141.549 229.421 141.223 229.289 140.97 229.026C140.72 228.762 140.603 228.421 140.62 228.002C140.64 227.505 140.814 227.12 141.141 226.847C141.471 226.575 141.936 226.436 142.534 226.43H142.912L142.927 226.048C142.936 225.834 142.905 225.684 142.835 225.596C142.766 225.508 142.66 225.464 142.52 225.464C142.209 225.464 142.047 225.646 142.032 226.009H140.788C140.806 225.569 140.984 225.208 141.324 224.924C141.667 224.637 142.09 224.493 142.594 224.493C143.116 224.493 143.513 224.63 143.786 224.902C144.063 225.171 144.191 225.558 144.17 226.061L144.08 228.297C144.07 228.707 144.115 229.027 144.218 229.258L144.215 229.333H142.962ZM142.263 228.446C142.401 228.446 142.52 228.418 142.618 228.363C142.717 228.307 142.792 228.241 142.842 228.165L142.882 227.177H142.583C142.372 227.177 142.202 227.244 142.073 227.379C141.948 227.514 141.881 227.694 141.871 227.919C141.857 228.27 141.988 228.446 142.263 228.446ZM147.43 225.78L147.018 225.745C146.678 225.745 146.442 225.894 146.31 226.193L146.184 229.333H144.935L145.127 224.581H146.3L146.315 225.095C146.527 224.694 146.806 224.493 147.152 224.493C147.293 224.493 147.406 224.512 147.493 224.551L147.43 225.78Z" fill="#585858"/>
<path d="M174.049 228.024H172.286L171.891 229.333H170.524L172.781 222.938H173.963L175.719 229.333H174.339L174.049 228.024ZM172.611 226.948H173.806L173.3 224.669L172.611 226.948ZM179.844 227.106C179.814 227.853 179.662 228.425 179.388 228.823C179.117 229.221 178.728 229.42 178.221 229.42C177.834 229.42 177.53 229.264 177.308 228.951L177.219 231.16H175.975L176.24 224.581H177.392L177.418 225.016C177.67 224.667 178 224.493 178.411 224.493C178.918 224.493 179.291 224.677 179.531 225.046C179.774 225.415 179.883 225.98 179.859 226.742L179.844 227.106ZM178.617 226.794C178.635 226.335 178.597 226.01 178.502 225.819C178.41 225.629 178.244 225.534 178.004 225.534C177.749 225.534 177.559 225.641 177.433 225.854L177.343 228.081C177.446 228.286 177.631 228.388 177.898 228.388C178.144 228.388 178.318 228.284 178.42 228.077C178.525 227.869 178.587 227.545 178.604 227.106L178.617 226.794ZM182.996 225.78L182.584 225.745C182.244 225.745 182.008 225.894 181.876 226.193L181.75 229.333H180.501L180.693 224.581H181.866L181.881 225.095C182.093 224.694 182.372 224.493 182.718 224.493C182.859 224.493 182.972 224.512 183.059 224.55L182.996 225.78Z" fill="#585858"/>
<path d="M248.32 222.939H249.612L249.434 227.366C249.409 227.986 249.216 228.484 248.855 228.859C248.494 229.234 248.041 229.421 247.496 229.421C246.91 229.421 246.462 229.247 246.15 228.898C245.839 228.55 245.696 228.065 245.721 227.445H247.018C246.993 228.048 247.167 228.349 247.539 228.349C247.914 228.349 248.116 228.001 248.144 227.304L248.32 222.939ZM252.664 228.898C252.392 229.247 252.04 229.421 251.606 229.421C251.169 229.421 250.844 229.272 250.631 228.973C250.417 228.671 250.322 228.234 250.345 227.66L250.469 224.581H251.713L251.588 227.691C251.575 228.153 251.72 228.385 252.021 228.385C252.306 228.385 252.516 228.262 252.652 228.016L252.79 224.581H254.042L253.851 229.333H252.682L252.664 228.898ZM256.069 224.581L256.085 225.051C256.381 224.679 256.757 224.493 257.211 224.493C258.028 224.493 258.426 225.066 258.403 226.211L258.277 229.333H257.029L257.151 226.303C257.162 226.033 257.129 225.839 257.052 225.719C256.977 225.596 256.839 225.534 256.637 225.534C256.411 225.534 256.231 225.65 256.096 225.881L255.957 229.333H254.708L254.9 224.581H256.069Z" fill="#585858"/>
<path d="M285.328 222.939H286.62L286.442 227.366C286.417 227.986 286.224 228.484 285.863 228.859C285.502 229.234 285.049 229.421 284.504 229.421C283.918 229.421 283.469 229.247 283.158 228.898C282.847 228.55 282.704 228.065 282.729 227.445H284.025C284.001 228.048 284.175 228.349 284.547 228.349C284.922 228.349 285.124 228.001 285.152 227.304L285.328 222.939ZM289.672 228.898C289.4 229.247 289.047 229.421 288.614 229.421C288.177 229.421 287.852 229.272 287.638 228.973C287.425 228.671 287.33 228.234 287.353 227.66L287.477 224.581H288.721L288.596 227.691C288.583 228.153 288.727 228.385 289.029 228.385C289.313 228.385 289.523 228.262 289.659 228.016L289.798 224.581H291.05L290.859 229.333H289.69L289.672 228.898ZM293.052 229.333H291.804L292.076 222.587H293.324L293.052 229.333Z" fill="#585858"/>
<path d="M324.08 228.024H322.318L321.922 229.333H320.555L322.812 222.939H323.995L325.75 229.333H324.37L324.08 228.024ZM322.642 226.948H323.838L323.332 224.669L322.642 226.948ZM328.594 228.898C328.322 229.247 327.97 229.421 327.536 229.421C327.099 229.421 326.774 229.272 326.561 228.973C326.347 228.671 326.252 228.234 326.275 227.66L326.399 224.581H327.643L327.518 227.691C327.505 228.153 327.649 228.385 327.951 228.385C328.235 228.385 328.446 228.262 328.581 228.016L328.72 224.581H329.972L329.781 229.333H328.612L328.594 228.898ZM330.621 226.812C330.652 226.033 330.816 225.452 331.113 225.069C331.41 224.685 331.812 224.493 332.319 224.493C332.749 224.493 333.075 224.663 333.296 225.003L333.361 224.581H334.482L334.291 229.333C334.266 229.939 334.078 230.402 333.725 230.721C333.372 231.043 332.878 231.204 332.242 231.204C331.981 231.204 331.709 231.151 331.426 231.046C331.143 230.943 330.935 230.812 330.801 230.651L331.253 229.79C331.365 229.913 331.513 230.012 331.698 230.089C331.882 230.168 332.058 230.207 332.225 230.207C332.503 230.207 332.705 230.14 332.831 230.005C332.959 229.873 333.031 229.66 333.046 229.364L333.062 228.955C332.812 229.266 332.497 229.421 332.116 229.421C331.609 229.421 331.224 229.225 330.962 228.832C330.702 228.437 330.584 227.881 330.607 227.164L330.621 226.812ZM331.852 227.124C331.835 227.563 331.879 227.884 331.985 228.086C332.091 228.285 332.269 228.385 332.518 228.385C332.773 228.385 332.966 228.292 333.096 228.108L333.188 225.837C333.067 225.635 332.885 225.534 332.642 225.534C332.395 225.534 332.208 225.635 332.08 225.837C331.955 226.039 331.883 226.364 331.865 226.812L331.852 227.124Z" fill="#585858"/>
<path d="M359.751 227.656C359.762 227.395 359.702 227.199 359.573 227.067C359.446 226.932 359.21 226.793 358.864 226.65C358.232 226.407 357.782 226.123 357.514 225.798C357.246 225.47 357.121 225.083 357.139 224.638C357.16 224.1 357.368 223.668 357.762 223.343C358.159 223.015 358.652 222.851 359.241 222.851C359.634 222.851 359.981 222.934 360.282 223.101C360.583 223.265 360.809 223.498 360.961 223.8C361.116 224.101 361.186 224.444 361.17 224.827H359.883C359.895 224.529 359.839 224.302 359.717 224.147C359.597 223.988 359.417 223.909 359.177 223.909C358.951 223.909 358.772 223.977 358.641 224.111C358.51 224.243 358.44 224.422 358.431 224.647C358.423 224.823 358.487 224.982 358.622 225.126C358.757 225.266 359 225.413 359.352 225.565C359.967 225.79 360.408 226.067 360.677 226.395C360.948 226.723 361.073 227.14 361.053 227.647C361.03 228.203 360.835 228.638 360.468 228.951C360.101 229.264 359.613 229.421 359.003 229.421C358.59 229.421 358.217 229.336 357.884 229.166C357.551 228.996 357.294 228.753 357.113 228.437C356.935 228.121 356.855 227.748 356.873 227.317H358.169C358.154 227.686 358.215 227.954 358.352 228.121C358.489 228.288 358.72 228.371 359.045 228.371C359.497 228.371 359.732 228.133 359.751 227.656ZM363.698 229.421C363.059 229.421 362.568 229.231 362.226 228.85C361.884 228.469 361.727 227.925 361.756 227.216L361.771 226.839C361.801 226.089 361.988 225.511 362.333 225.104C362.677 224.697 363.156 224.493 363.768 224.493C364.366 224.493 364.808 224.685 365.095 225.069C365.381 225.449 365.512 226.014 365.488 226.764L365.463 227.374H362.989C362.992 227.726 363.059 227.983 363.191 228.147C363.322 228.308 363.531 228.389 363.818 228.389C364.234 228.389 364.587 228.247 364.877 227.963L365.335 228.714C365.174 228.925 364.946 229.096 364.65 229.228C364.355 229.357 364.037 229.421 363.698 229.421ZM363.032 226.505H364.276L364.281 226.391C364.287 226.107 364.248 225.891 364.166 225.745C364.084 225.599 363.935 225.526 363.718 225.526C363.501 225.526 363.34 225.603 363.234 225.758C363.131 225.913 363.064 226.162 363.032 226.505ZM369.883 227.107C369.853 227.853 369.701 228.426 369.427 228.824C369.156 229.222 368.767 229.421 368.26 229.421C367.873 229.421 367.569 229.264 367.347 228.951L367.258 231.16H366.014L366.279 224.581H367.431L367.457 225.016C367.708 224.668 368.039 224.493 368.45 224.493C368.956 224.493 369.33 224.678 369.57 225.047C369.813 225.416 369.922 225.981 369.897 226.742L369.883 227.107ZM368.656 226.795C368.674 226.335 368.636 226.01 368.541 225.82C368.449 225.629 368.283 225.534 368.043 225.534C367.788 225.534 367.597 225.641 367.472 225.855L367.382 228.082C367.485 228.286 367.67 228.389 367.937 228.389C368.183 228.389 368.357 228.285 368.459 228.077C368.564 227.869 368.626 227.546 368.643 227.107L368.656 226.795Z" fill="#585858"/>
<path d="M400.599 226.711C400.565 227.569 400.334 228.235 399.908 228.709C399.484 229.183 398.912 229.42 398.191 229.42C397.473 229.42 396.919 229.186 396.527 228.718C396.136 228.246 395.954 227.588 395.983 226.742L396.027 225.648C396.062 224.77 396.293 224.085 396.72 223.593C397.148 223.098 397.723 222.85 398.447 222.85C399.159 222.85 399.71 223.093 400.101 223.579C400.492 224.063 400.672 224.742 400.643 225.617L400.599 226.711ZM399.346 225.639C399.369 225.062 399.304 224.633 399.151 224.352C398.998 224.071 398.749 223.931 398.403 223.931C398.061 223.931 397.802 224.067 397.627 224.339C397.452 224.609 397.35 225.02 397.322 225.573L397.276 226.711C397.254 227.27 397.321 227.683 397.477 227.949C397.633 228.213 397.886 228.345 398.235 228.345C398.572 228.345 398.827 228.216 399.002 227.958C399.176 227.697 399.276 227.295 399.301 226.75L399.346 225.639ZM403.116 228.388C403.477 228.388 403.669 228.154 403.694 227.686H404.863C404.836 228.204 404.66 228.623 404.333 228.942C404.007 229.261 403.596 229.42 403.101 229.42C402.489 229.42 402.029 229.23 401.722 228.85C401.415 228.469 401.273 227.908 401.297 227.168L401.312 226.79C401.342 226.043 401.524 225.474 401.856 225.081C402.191 224.689 402.669 224.493 403.29 224.493C403.815 224.493 404.222 224.655 404.51 224.98C404.799 225.303 404.935 225.761 404.917 226.355H403.747C403.755 226.089 403.719 225.884 403.64 225.74C403.561 225.597 403.423 225.525 403.227 225.525C403.01 225.525 402.852 225.603 402.752 225.758C402.652 225.91 402.59 226.207 402.566 226.649L402.547 227.132C402.531 227.519 402.539 227.79 402.571 227.945C402.603 228.097 402.662 228.21 402.747 228.283C402.832 228.353 402.955 228.388 403.116 228.388ZM407.184 223.413L407.137 224.581H407.775L407.737 225.516H407.1L407.005 227.875C406.997 228.062 407.017 228.191 407.064 228.261C407.114 228.331 407.212 228.366 407.359 228.366C407.479 228.366 407.577 228.356 407.654 228.336L407.607 229.302C407.392 229.381 407.162 229.42 406.916 229.42C406.113 229.42 405.726 228.961 405.754 228.041L405.856 225.516H405.306L405.344 224.581H405.893L405.94 223.413H407.184Z" fill="#585858"/>
<path d="M436.471 229.333H435.178L433.457 225.139L433.288 229.333H431.996L432.253 222.939H433.546L435.271 227.137L435.44 222.939H436.728L436.471 229.333ZM437.403 226.804C437.432 226.083 437.625 225.518 437.981 225.108C438.338 224.698 438.816 224.493 439.417 224.493C440.024 224.493 440.488 224.698 440.812 225.108C441.135 225.518 441.282 226.086 441.253 226.812L441.241 227.115C441.212 227.838 441.021 228.404 440.667 228.811C440.314 229.217 439.834 229.421 439.227 229.421C438.618 229.421 438.151 229.217 437.828 228.811C437.507 228.401 437.362 227.833 437.391 227.107L437.403 226.804ZM438.639 227.115C438.605 227.964 438.815 228.389 439.269 228.389C439.688 228.389 439.928 228.035 439.989 227.326L440.014 226.804C440.031 226.37 439.984 226.05 439.873 225.842C439.761 225.631 439.595 225.526 439.375 225.526C439.164 225.526 438.995 225.631 438.866 225.842C438.74 226.05 438.669 226.37 438.651 226.804L438.639 227.115ZM443.491 227.576L444.213 224.581H445.51L444.013 229.333H442.826L441.708 224.581H443.009L443.491 227.576Z" fill="#585858"/>
<path d="M470.004 229.333L470.261 222.939H471.953C472.701 222.939 473.286 223.176 473.709 223.65C474.136 224.125 474.337 224.775 474.312 225.6L474.27 226.637C474.237 227.477 473.987 228.137 473.523 228.617C473.061 229.095 472.44 229.333 471.661 229.333H470.004ZM471.51 224.015L471.339 228.262H471.726C472.157 228.262 472.465 228.149 472.65 227.923C472.835 227.695 472.943 227.303 472.974 226.746L473.019 225.635C473.043 225.038 472.976 224.622 472.818 224.388C472.661 224.151 472.381 224.026 471.98 224.015H471.51ZM476.95 229.421C476.311 229.421 475.82 229.231 475.478 228.85C475.136 228.469 474.979 227.925 475.008 227.216L475.023 226.839C475.053 226.089 475.24 225.511 475.585 225.104C475.929 224.697 476.408 224.493 477.02 224.493C477.618 224.493 478.06 224.685 478.347 225.069C478.633 225.449 478.764 226.014 478.74 226.764L478.715 227.374H476.241C476.244 227.726 476.311 227.983 476.443 228.147C476.574 228.308 476.783 228.389 477.07 228.389C477.486 228.389 477.839 228.247 478.129 227.963L478.587 228.714C478.426 228.925 478.198 229.096 477.902 229.228C477.607 229.357 477.289 229.421 476.95 229.421ZM476.284 226.505H477.528L477.533 226.391C477.539 226.107 477.5 225.891 477.418 225.745C477.336 225.599 477.187 225.526 476.97 225.526C476.753 225.526 476.592 225.603 476.486 225.758C476.383 225.913 476.316 226.162 476.284 226.505ZM481.096 228.389C481.457 228.389 481.649 228.155 481.674 227.686H482.843C482.817 228.204 482.64 228.623 482.314 228.942C481.987 229.261 481.576 229.421 481.081 229.421C480.469 229.421 480.009 229.231 479.702 228.85C479.395 228.469 479.254 227.909 479.277 227.168L479.293 226.79C479.323 226.044 479.504 225.474 479.836 225.082C480.171 224.69 480.65 224.493 481.271 224.493C481.795 224.493 482.202 224.656 482.491 224.981C482.78 225.303 482.915 225.761 482.897 226.356H481.728C481.735 226.089 481.7 225.884 481.621 225.741C481.541 225.597 481.404 225.526 481.207 225.526C480.99 225.526 480.832 225.603 480.732 225.758C480.632 225.911 480.57 226.208 480.547 226.65L480.527 227.133C480.512 227.519 480.52 227.79 480.552 227.945C480.584 228.098 480.642 228.21 480.727 228.284C480.812 228.354 480.935 228.389 481.096 228.389Z" fill="#585858"/>
<path d="M208.894 222.938L209.917 227.563L211.307 222.938H212.995L212.738 229.333H211.441L211.511 227.602L211.737 224.937L210.281 229.333H209.402L208.3 224.937L208.311 227.602L208.241 229.333H206.949L207.207 222.938H208.894ZM215.977 229.333C215.945 229.259 215.915 229.136 215.887 228.964C215.652 229.268 215.344 229.42 214.963 229.42C214.564 229.42 214.239 229.289 213.985 229.025C213.735 228.762 213.619 228.421 213.635 228.002C213.655 227.504 213.829 227.119 214.157 226.847C214.487 226.575 214.951 226.436 215.549 226.43H215.927L215.943 226.048C215.951 225.834 215.921 225.683 215.851 225.595C215.781 225.507 215.676 225.464 215.535 225.464C215.225 225.464 215.062 225.645 215.048 226.008H213.804C213.821 225.569 214 225.207 214.34 224.923C214.682 224.636 215.106 224.493 215.61 224.493C216.131 224.493 216.529 224.629 216.802 224.901C217.078 225.171 217.206 225.557 217.186 226.061L217.096 228.296C217.085 228.706 217.131 229.027 217.233 229.258L217.23 229.333H215.977ZM215.279 228.446C215.417 228.446 215.535 228.418 215.634 228.362C215.733 228.306 215.807 228.241 215.857 228.164L215.897 227.176H215.598C215.387 227.176 215.218 227.244 215.089 227.378C214.964 227.513 214.896 227.693 214.887 227.919C214.873 228.27 215.004 228.446 215.279 228.446ZM219.494 227.264L220.234 224.581H221.562L219.777 230.044C219.51 230.849 219.053 231.252 218.406 231.252C218.256 231.252 218.087 231.224 217.899 231.168L217.938 230.198L218.083 230.202C218.276 230.202 218.423 230.164 218.523 230.088C218.625 230.015 218.705 229.886 218.762 229.702L218.872 229.381L217.694 224.581H219.03L219.494 227.264Z" fill="#585858"/>
</g>
<defs>
<filter id="filter0_d" x="0.166992" y="0" width="530.54" height="262.329" filterUnits="userSpaceOnUse" color-interpolation-filters="sRGB">
<feFlood flood-opacity="0" result="BackgroundImageFix"/>
<feColorMatrix in="SourceAlpha" type="matrix" values="0 0 0 0 0 0 0 0 0 0 0 0 0 0 0 0 0 0 127 0" result="hardAlpha"/>
<feOffset dx="-14" dy="13"/>
<feGaussianBlur stdDeviation="2.5"/>
<feComposite in2="hardAlpha" operator="out"/>
<feColorMatrix type="matrix" values="0 0 0 0 0 0 0 0 0 0 0 0 0 0 0 0 0 0 0.25 0"/>
<feBlend mode="normal" in2="BackgroundImageFix" result="effect1_dropShadow"/>
<feBlend mode="normal" in="SourceGraphic" in2="effect1_dropShadow" result="shape"/>
</filter>
<linearGradient id="paint0_linear" x1="10" y1="0" x2="10" y2="114" gradientUnits="userSpaceOnUse">
<stop stop-color="#FF9696" stop-opacity="0.78"/>
<stop offset="0.213542" stop-color="#3372ED"/>
</linearGradient>
<linearGradient id="paint1_linear" x1="10" y1="0" x2="10" y2="149" gradientUnits="userSpaceOnUse">
<stop offset="0.270833" stop-color="#FD6060" stop-opacity="0.78"/>
<stop offset="0.46875" stop-color="#3372ED"/>
</linearGradient>
<clipPath id="clip0">
<rect width="20" height="160" rx="10" transform="matrix(1.00021 0 -0.0402176 0.999364 59.5986 34.9775)" fill="white"/>
</clipPath>
<clipPath id="clip1">
<rect width="20" height="160" rx="10" transform="matrix(1.00021 0 -0.0402176 0.999364 210.63 34.9775)" fill="white"/>
</clipPath>
<clipPath id="clip2">
<rect width="20" height="160" rx="10" transform="matrix(1.00021 0 -0.0402176 0.999364 97.6064 34.9775)" fill="white"/>
</clipPath>
<clipPath id="clip3">
<rect width="20" height="160" rx="10" transform="matrix(1.00021 0 -0.0402176 0.999364 247.638 34.9775)" fill="white"/>
</clipPath>
<clipPath id="clip4">
<rect width="20" height="160" rx="10" transform="matrix(1.00021 0 -0.0402176 0.999364 135.614 34.9775)" fill="white"/>
</clipPath>
<clipPath id="clip5">
<rect width="20" height="160" rx="10" transform="matrix(1.00021 0 -0.0402176 0.999364 285.646 34.9775)" fill="white"/>
</clipPath>
<clipPath id="clip6">
<rect width="20" height="160" rx="10" transform="matrix(1.00021 0 -0.0402176 0.999364 172.622 34.9775)" fill="white"/>
</clipPath>
</defs>
</svg>
