<svg width="370" height="195" viewBox="0 0 370 195" fill="none" xmlns="http://www.w3.org/2000/svg">
<g filter="url(#filter0_d)">
<g clip-path="url(#clip0)">
<rect x="13" width="356" height="181" rx="18" fill="#FFFCF7"/>
<path d="M12 164.5V18C12 8.05887 20.0589 0 30 0H332H359.937C364.459 0 366.61 5.46442 363.254 8.4948C331.836 36.8621 229.924 124.65 208 90.5C182 50 12 164.5 12 164.5Z" fill="url(#paint0_linear)"/>
<path d="M207.067 165V147.114L199.345 160.875H197.53L189.775 147.114V165H186.805V141.57H189.94L198.421 156.783L206.935 141.57H210.037V165H207.067ZM218.127 160.017C218.127 158.917 218.435 157.971 219.051 157.179C219.689 156.365 220.558 155.738 221.658 155.298C222.758 154.858 224.034 154.638 225.486 154.638C226.256 154.638 227.07 154.704 227.928 154.836C228.786 154.946 229.545 155.122 230.205 155.364V154.11C230.205 152.79 229.809 151.756 229.017 151.008C228.225 150.238 227.103 149.853 225.651 149.853C224.705 149.853 223.792 150.029 222.912 150.381C222.054 150.711 221.141 151.195 220.173 151.833L219.117 149.787C220.239 149.017 221.361 148.445 222.483 148.071C223.605 147.675 224.771 147.477 225.981 147.477C228.181 147.477 229.919 148.093 231.195 149.325C232.471 150.535 233.109 152.229 233.109 154.407V161.7C233.109 162.382 233.417 162.734 234.033 162.756V165C233.747 165.044 233.494 165.077 233.274 165.099C233.076 165.121 232.911 165.132 232.779 165.132C232.097 165.132 231.58 164.945 231.228 164.571C230.898 164.197 230.711 163.801 230.667 163.383L230.601 162.294C229.853 163.262 228.874 164.01 227.664 164.538C226.454 165.066 225.255 165.33 224.067 165.33C222.923 165.33 221.9 165.099 220.998 164.637C220.096 164.153 219.392 163.515 218.886 162.723C218.38 161.909 218.127 161.007 218.127 160.017ZM229.347 161.238C229.611 160.93 229.82 160.622 229.974 160.314C230.128 159.984 230.205 159.709 230.205 159.489V157.344C228.797 156.794 227.345 156.519 225.849 156.519C224.375 156.519 223.176 156.816 222.252 157.41C221.35 157.982 220.899 158.774 220.899 159.786C220.899 160.336 221.042 160.875 221.328 161.403C221.636 161.909 222.076 162.327 222.648 162.657C223.242 162.987 223.968 163.152 224.826 163.152C225.728 163.152 226.586 162.976 227.4 162.624C228.214 162.25 228.863 161.788 229.347 161.238ZM257.156 165H254.252V155.364C254.252 153.538 253.966 152.207 253.394 151.371C252.844 150.513 251.997 150.084 250.853 150.084C250.061 150.084 249.269 150.282 248.477 150.678C247.707 151.074 247.014 151.613 246.398 152.295C245.804 152.955 245.375 153.725 245.111 154.605V165H242.207V147.774H244.847V151.47C245.529 150.26 246.508 149.292 247.784 148.566C249.082 147.84 250.49 147.477 252.008 147.477C253.35 147.477 254.384 147.796 255.11 148.434C255.858 149.05 256.386 149.908 256.694 151.008C257.002 152.086 257.156 153.318 257.156 154.704V165ZM264.774 160.017C264.774 158.917 265.082 157.971 265.698 157.179C266.336 156.365 267.205 155.738 268.305 155.298C269.405 154.858 270.681 154.638 272.133 154.638C272.903 154.638 273.717 154.704 274.575 154.836C275.433 154.946 276.192 155.122 276.852 155.364V154.11C276.852 152.79 276.456 151.756 275.664 151.008C274.872 150.238 273.75 149.853 272.298 149.853C271.352 149.853 270.439 150.029 269.559 150.381C268.701 150.711 267.788 151.195 266.82 151.833L265.764 149.787C266.886 149.017 268.008 148.445 269.13 148.071C270.252 147.675 271.418 147.477 272.628 147.477C274.828 147.477 276.566 148.093 277.842 149.325C279.118 150.535 279.756 152.229 279.756 154.407V161.7C279.756 162.382 280.064 162.734 280.68 162.756V165C280.394 165.044 280.141 165.077 279.921 165.099C279.723 165.121 279.558 165.132 279.426 165.132C278.744 165.132 278.227 164.945 277.875 164.571C277.545 164.197 277.358 163.801 277.314 163.383L277.248 162.294C276.5 163.262 275.521 164.01 274.311 164.538C273.101 165.066 271.902 165.33 270.714 165.33C269.57 165.33 268.547 165.099 267.645 164.637C266.743 164.153 266.039 163.515 265.533 162.723C265.027 161.909 264.774 161.007 264.774 160.017ZM275.994 161.238C276.258 160.93 276.467 160.622 276.621 160.314C276.775 159.984 276.852 159.709 276.852 159.489V157.344C275.444 156.794 273.992 156.519 272.496 156.519C271.022 156.519 269.823 156.816 268.899 157.41C267.997 157.982 267.546 158.774 267.546 159.786C267.546 160.336 267.689 160.875 267.975 161.403C268.283 161.909 268.723 162.327 269.295 162.657C269.889 162.987 270.615 163.152 271.473 163.152C272.375 163.152 273.233 162.976 274.047 162.624C274.861 162.25 275.51 161.788 275.994 161.238ZM295.718 165.198C294.156 165.198 292.77 164.791 291.56 163.977C290.372 163.141 289.437 162.052 288.755 160.71C288.095 159.368 287.765 157.938 287.765 156.42C287.765 154.792 288.095 153.307 288.755 151.965C289.437 150.601 290.383 149.512 291.593 148.698C292.803 147.884 294.189 147.477 295.751 147.477C297.181 147.477 298.424 147.829 299.48 148.533C300.558 149.237 301.46 150.128 302.186 151.206V147.774H304.76V164.802C304.76 166.43 304.364 167.805 303.572 168.927C302.802 170.049 301.746 170.896 300.404 171.468C299.084 172.062 297.61 172.359 295.982 172.359C294.046 172.359 292.462 172.018 291.23 171.336C289.998 170.654 288.975 169.73 288.161 168.564L289.844 167.079C290.526 168.091 291.406 168.85 292.484 169.356C293.584 169.862 294.75 170.115 295.982 170.115C297.038 170.115 298.006 169.917 298.886 169.521C299.788 169.147 300.503 168.564 301.031 167.772C301.581 166.98 301.856 165.99 301.856 164.802V161.766C301.218 162.822 300.338 163.658 299.216 164.274C298.116 164.89 296.95 165.198 295.718 165.198ZM296.609 162.822C297.423 162.822 298.204 162.635 298.952 162.261C299.7 161.887 300.327 161.403 300.833 160.809C301.361 160.215 301.702 159.599 301.856 158.961V154.011C301.394 152.845 300.646 151.888 299.612 151.14C298.578 150.37 297.489 149.985 296.345 149.985C295.179 149.985 294.167 150.304 293.309 150.942C292.473 151.58 291.824 152.394 291.362 153.384C290.922 154.374 290.702 155.408 290.702 156.486C290.702 157.63 290.966 158.686 291.494 159.654C292.022 160.6 292.726 161.37 293.606 161.964C294.508 162.536 295.509 162.822 296.609 162.822ZM321.525 165.33C319.809 165.33 318.291 164.923 316.971 164.109C315.651 163.295 314.617 162.206 313.869 160.842C313.121 159.478 312.747 157.993 312.747 156.387C312.747 154.759 313.121 153.274 313.869 151.932C314.617 150.59 315.651 149.512 316.971 148.698C318.313 147.884 319.842 147.477 321.558 147.477C323.296 147.477 324.803 147.895 326.079 148.731C327.377 149.545 328.378 150.623 329.082 151.965C329.808 153.285 330.171 154.715 330.171 156.255C330.171 156.739 330.149 157.113 330.105 157.377H315.816C315.904 158.499 316.212 159.5 316.74 160.38C317.29 161.238 317.994 161.92 318.852 162.426C319.71 162.91 320.634 163.152 321.624 163.152C322.68 163.152 323.67 162.888 324.594 162.36C325.54 161.832 326.189 161.139 326.541 160.281L329.049 160.974C328.499 162.25 327.542 163.295 326.178 164.109C324.814 164.923 323.263 165.33 321.525 165.33ZM315.717 155.364H327.465C327.377 154.242 327.058 153.252 326.508 152.394C325.958 151.536 325.254 150.865 324.396 150.381C323.538 149.897 322.592 149.655 321.558 149.655C320.546 149.655 319.611 149.897 318.753 150.381C317.895 150.865 317.191 151.536 316.641 152.394C316.113 153.252 315.805 154.242 315.717 155.364ZM346.962 150.315C345.51 150.337 344.223 150.711 343.101 151.437C342.001 152.141 341.22 153.12 340.758 154.374V165H337.854V147.774H340.56V151.767C341.154 150.579 341.935 149.622 342.903 148.896C343.893 148.148 344.927 147.73 346.005 147.642C346.225 147.642 346.412 147.642 346.566 147.642C346.72 147.642 346.852 147.653 346.962 147.675V150.315Z" fill="#080809"/>
<path d="M93.7324 50.3433C93.8389 50.3787 93.9808 50.3965 94.1582 50.3965H95.4355C98.2031 50.3965 100.988 50.0239 103.792 49.2788C106.595 48.5337 109.132 47.5047 111.402 46.1919C113.673 44.8436 115.518 43.2469 116.938 41.4019C118.357 39.5213 119.066 37.4634 119.066 35.228C119.066 34.0216 118.8 32.9572 118.268 32.0347C117.736 31.0767 116.991 30.2783 116.033 29.6396C115.11 29.001 113.975 28.522 112.626 28.2026C111.314 27.8478 109.859 27.6704 108.262 27.6704C105.459 27.6704 102.727 28.0252 100.066 28.7349C97.4048 29.4445 94.9033 30.4202 92.5615 31.6621C90.2197 32.8685 88.0731 34.3055 86.1216 35.9731C84.1701 37.6053 82.4847 39.3971 81.0654 41.3486C79.6462 43.2646 78.5462 45.2694 77.7656 47.3628C76.985 49.4562 76.5947 51.5496 76.5947 53.6431C76.5947 55.7365 76.985 57.7235 77.7656 59.604C80.2139 59.675 82.5024 59.8524 84.6313 60.1362C86.7603 60.4201 88.6053 60.8636 90.1665 61.4668C91.7277 62.0345 92.9518 62.7796 93.8389 63.7021C94.7259 64.6247 95.1694 65.7424 95.1694 67.0552C95.1694 68.4744 94.6372 69.5566 93.5728 70.3018C92.5083 71.0469 91.1777 71.4194 89.5811 71.4194C88.3037 71.4194 86.9909 71.2065 85.6426 70.7808C84.2943 70.355 82.9814 69.7695 81.7041 69.0244C80.4622 68.2438 79.2559 67.3213 78.085 66.2568C76.9495 65.1569 75.9206 63.9505 74.998 62.6377C71.0596 62.957 67.4049 63.8796 64.0342 65.4053C60.6989 66.8955 57.8071 68.847 55.3589 71.2598C52.9461 73.637 51.0479 76.3869 49.6641 79.5093C48.2803 82.5962 47.5884 85.8605 47.5884 89.3022C47.5884 92.1053 48.0496 94.6423 48.9722 96.9131C49.9302 99.1484 51.3317 101.064 53.1768 102.661C55.0573 104.258 57.3813 105.482 60.1489 106.333C62.952 107.185 66.1808 107.611 69.8354 107.611C73.8804 107.611 77.7124 106.99 81.3315 105.748C84.9862 104.542 88.3569 102.998 91.4438 101.118C94.5308 99.2371 97.3338 97.1792 99.853 94.9438C102.372 92.673 104.554 90.5264 106.399 88.5039C108.28 86.4814 109.788 84.7074 110.923 83.1816C112.059 81.6204 112.804 80.6092 113.159 80.1479L115.075 81.6382C114.259 82.8091 113.159 84.3525 111.775 86.2686C110.391 88.1491 108.706 90.1538 106.719 92.2827C104.767 94.4116 102.496 96.5583 99.9062 98.7227C97.3516 100.852 94.4775 102.785 91.2842 104.524C88.1263 106.263 84.6668 107.664 80.9058 108.729C77.1447 109.828 73.082 110.378 68.7178 110.378C63.9277 110.378 59.7941 109.775 56.3169 108.569C52.8397 107.362 49.9479 105.73 47.6416 103.672C45.3708 101.65 43.6854 99.3081 42.5854 96.647C41.4855 93.9504 40.9355 91.1118 40.9355 88.1313C40.9355 86.0379 41.2017 83.909 41.7339 81.7446C42.2661 79.5802 43.0822 77.4691 44.1821 75.4111C45.2821 73.3532 46.7013 71.4017 48.4399 69.5566C50.1785 67.7116 52.2365 66.0794 54.6138 64.6602C56.991 63.2409 59.7231 62.0877 62.8101 61.2007C65.897 60.3136 69.3564 59.7814 73.1885 59.604C72.5498 58.3267 72.0531 56.9961 71.6982 55.6123C71.3434 54.193 71.166 52.7383 71.166 51.248C71.166 48.516 71.6273 45.9435 72.5498 43.5308C73.4723 41.0825 74.7319 38.8472 76.3286 36.8247C77.9608 34.7668 79.859 32.9395 82.0234 31.3428C84.2233 29.7461 86.5651 28.3978 89.0488 27.2979C91.5326 26.1624 94.105 25.3109 96.7661 24.7432C99.4627 24.14 102.124 23.8384 104.75 23.8384C107.446 23.8384 109.841 24.1222 111.935 24.6899C114.063 25.2222 115.855 25.985 117.31 26.9785C118.765 27.972 119.882 29.1784 120.663 30.5977C121.444 31.9814 121.834 33.5072 121.834 35.1748C121.834 37.0199 121.444 38.7585 120.663 40.3906C119.918 42.0228 118.889 43.513 117.576 44.8613C116.299 46.1742 114.791 47.3628 113.052 48.4272C111.349 49.4562 109.522 50.3255 107.57 51.0352C105.654 51.7448 103.667 52.2948 101.609 52.6851C99.5514 53.0399 97.5645 53.2173 95.6484 53.2173C95.0098 53.2173 94.4953 53.1995 94.105 53.1641C93.7147 53.1286 93.484 53.1108 93.4131 53.1108L93.7324 50.3433ZM92.3486 66.9487C92.3486 66.0972 91.9583 65.4053 91.1777 64.873C90.4326 64.3053 89.4391 63.8618 88.1973 63.5425C86.9909 63.2231 85.6071 62.9925 84.0459 62.8506C82.5202 62.6732 80.959 62.5667 79.3623 62.5312C80.0365 63.5247 80.7816 64.4118 81.5977 65.1924C82.4492 65.9375 83.3185 66.5762 84.2056 67.1084C85.0926 67.6406 85.9797 68.0487 86.8667 68.3325C87.7892 68.6164 88.6585 68.7583 89.4746 68.7583C90.4326 68.7583 91.1423 68.5809 91.6035 68.2261C92.1003 67.8713 92.3486 67.4455 92.3486 66.9487Z" fill="url(#paint1_linear)"/>
</g>
<rect x="13.5" y="0.5" width="355" height="180" rx="17.5" stroke="#BAB9B9"/>
</g>
<defs>
<filter id="filter0_d" x="0" y="0" width="370" height="195" filterUnits="userSpaceOnUse" color-interpolation-filters="sRGB">
<feFlood flood-opacity="0" result="BackgroundImageFix"/>
<feColorMatrix in="SourceAlpha" type="matrix" values="0 0 0 0 0 0 0 0 0 0 0 0 0 0 0 0 0 0 127 0" result="hardAlpha"/>
<feMorphology radius="3" operator="dilate" in="SourceAlpha" result="effect1_dropShadow"/>
<feOffset dx="-6" dy="7"/>
<feGaussianBlur stdDeviation="2"/>
<feComposite in2="hardAlpha" operator="out"/>
<feColorMatrix type="matrix" values="0 0 0 0 0 0 0 0 0 0 0 0 0 0 0 0 0 0 0.25 0"/>
<feBlend mode="normal" in2="BackgroundImageFix" result="effect1_dropShadow"/>
<feBlend mode="normal" in="SourceGraphic" in2="effect1_dropShadow" result="shape"/>
</filter>
<linearGradient id="paint0_linear" x1="51.5" y1="-2.36231e-05" x2="368" y2="176" gradientUnits="userSpaceOnUse">
<stop stop-color="#072C2F"/>
<stop offset="1" stop-color="#0B0638" stop-opacity="0.94"/>
</linearGradient>
<linearGradient id="paint1_linear" x1="80.5" y1="-1.54424e-06" x2="126.751" y2="126.78" gradientUnits="userSpaceOnUse">
<stop offset="0.401042" stop-color="white"/>
<stop offset="1"/>
</linearGradient>
<clipPath id="clip0">
<rect x="13" width="356" height="181" rx="18" fill="white"/>
</clipPath>
</defs>
</svg>
