<svg width="382" height="213" viewBox="0 0 382 213" fill="none" xmlns="http://www.w3.org/2000/svg">
<g clip-path="url(#clip0)">
<g filter="url(#filter0_d)">
<rect x="27" y="30" width="321" height="152" rx="15" fill="#FEFEFB"/>
<path d="M104.8 90V70.736H117.344V72.976H107.208V79.164H116V81.404H107.208V87.76H117.344V90H104.8ZM130.742 90L126.57 84.568H126.402L122.258 90H119.738L125.142 82.748L119.934 75.72H122.538L126.514 80.9H126.654L130.63 75.72H133.15L127.942 82.72L133.346 90H130.742ZM136.647 75.72H138.663L138.775 77.736H138.943C139.316 76.8773 139.904 76.2893 140.707 75.972C141.528 75.6547 142.508 75.496 143.647 75.496C145.066 75.496 146.148 75.7107 146.895 76.14C147.642 76.5693 148.164 77.3067 148.463 78.352C148.78 79.3787 148.939 80.872 148.939 82.832C148.939 84.8107 148.78 86.3227 148.463 87.368C148.164 88.4133 147.642 89.1507 146.895 89.58C146.167 90.0093 145.103 90.224 143.703 90.224C142.49 90.224 141.5 90.0747 140.735 89.776C139.988 89.4773 139.428 88.9547 139.055 88.208H138.915V95.6H136.647V75.72ZM142.751 88.012C143.964 88.012 144.823 87.9 145.327 87.676C145.85 87.452 146.195 86.9947 146.363 86.304C146.55 85.6133 146.643 84.4653 146.643 82.86C146.643 81.2547 146.55 80.1067 146.363 79.416C146.195 78.7253 145.85 78.268 145.327 78.044C144.823 77.8013 143.964 77.68 142.751 77.68C141.799 77.68 141.043 77.8107 140.483 78.072C139.923 78.3333 139.531 78.7347 139.307 79.276C139.139 79.6867 139.027 80.1627 138.971 80.704C138.934 81.2453 138.915 81.964 138.915 82.86C138.915 83.7747 138.934 84.4933 138.971 85.016C139.008 85.5387 139.102 85.9773 139.251 86.332C139.494 86.9293 139.895 87.3587 140.455 87.62C141.015 87.8813 141.78 88.012 142.751 88.012ZM164.614 83.672H154.842C154.842 85.0347 154.935 86.0053 155.122 86.584C155.309 87.1627 155.71 87.5733 156.326 87.816C156.961 88.04 158.015 88.152 159.49 88.152C160.927 88.152 162.449 88.0493 164.054 87.844V89.832C163.457 89.944 162.682 90.0373 161.73 90.112C160.778 90.1867 159.873 90.224 159.014 90.224C157.091 90.224 155.673 90 154.758 89.552C153.862 89.104 153.274 88.3853 152.994 87.396C152.714 86.4067 152.574 84.904 152.574 82.888C152.574 80.9093 152.695 79.4253 152.938 78.436C153.199 77.4467 153.769 76.7093 154.646 76.224C155.542 75.7387 156.951 75.496 158.874 75.496C160.666 75.496 161.963 75.7387 162.766 76.224C163.569 76.6907 164.073 77.4093 164.278 78.38C164.502 79.332 164.614 80.8253 164.614 82.86V83.672ZM158.818 77.568C157.605 77.568 156.727 77.68 156.186 77.904C155.663 78.1093 155.309 78.5107 155.122 79.108C154.954 79.6867 154.861 80.6293 154.842 81.936H162.43V81.712C162.43 80.48 162.318 79.5747 162.094 78.996C161.889 78.4173 161.543 78.0347 161.058 77.848C160.573 77.6613 159.826 77.568 158.818 77.568ZM178.518 81.964C178.518 80.6387 178.434 79.696 178.266 79.136C178.098 78.5573 177.781 78.1747 177.314 77.988C176.847 77.8013 176.063 77.708 174.962 77.708C173.786 77.708 172.918 77.8947 172.358 78.268C171.817 78.6413 171.471 79.1547 171.322 79.808C171.191 80.4613 171.126 81.404 171.126 82.636V90H168.858V75.72H170.874L170.986 77.736H171.154C171.471 77.008 171.994 76.4573 172.722 76.084C173.45 75.692 174.505 75.496 175.886 75.496C177.267 75.496 178.303 75.692 178.994 76.084C179.703 76.476 180.179 77.064 180.422 77.848C180.665 78.6133 180.786 79.6867 180.786 81.068V90H178.518V81.964ZM190.352 90.224C189.586 90.224 188.718 90.1867 187.748 90.112C186.777 90.0373 185.918 89.9533 185.172 89.86V87.844C187.02 88.0493 188.709 88.152 190.24 88.152C191.192 88.152 191.892 88.0867 192.34 87.956C192.788 87.8253 193.077 87.62 193.208 87.34C193.357 87.0413 193.432 86.6027 193.432 86.024C193.432 85.4453 193.376 85.0347 193.264 84.792C193.17 84.5307 193.012 84.3533 192.788 84.26C192.564 84.1667 192.172 84.092 191.612 84.036L187.888 83.616C187.029 83.5227 186.366 83.3267 185.9 83.028C185.452 82.7293 185.144 82.3187 184.976 81.796C184.808 81.2733 184.724 80.5733 184.724 79.696C184.724 78.4827 184.938 77.5773 185.368 76.98C185.816 76.364 186.422 75.9627 187.188 75.776C187.972 75.5893 189.017 75.496 190.324 75.496C191.052 75.496 191.836 75.5333 192.676 75.608C193.516 75.6827 194.225 75.776 194.804 75.888V77.904C193.348 77.68 191.845 77.568 190.296 77.568C189.437 77.568 188.784 77.6147 188.336 77.708C187.888 77.7827 187.542 77.9693 187.3 78.268C187.057 78.548 186.936 78.996 186.936 79.612C186.936 80.1533 186.982 80.5453 187.076 80.788C187.169 81.0307 187.328 81.1987 187.552 81.292C187.776 81.3853 188.149 81.46 188.672 81.516L192.536 81.964C193.357 82.0573 193.973 82.216 194.384 82.44C194.813 82.6453 195.121 83.0187 195.308 83.56C195.513 84.1013 195.616 84.904 195.616 85.968C195.616 87.144 195.42 88.04 195.028 88.656C194.654 89.272 194.094 89.692 193.348 89.916C192.62 90.1213 191.621 90.224 190.352 90.224ZM211.016 83.672H201.244C201.244 85.0347 201.338 86.0053 201.524 86.584C201.711 87.1627 202.112 87.5733 202.728 87.816C203.363 88.04 204.418 88.152 205.892 88.152C207.33 88.152 208.851 88.0493 210.456 87.844V89.832C209.859 89.944 209.084 90.0373 208.132 90.112C207.18 90.1867 206.275 90.224 205.416 90.224C203.494 90.224 202.075 90 201.16 89.552C200.264 89.104 199.676 88.3853 199.396 87.396C199.116 86.4067 198.976 84.904 198.976 82.888C198.976 80.9093 199.098 79.4253 199.34 78.436C199.602 77.4467 200.171 76.7093 201.048 76.224C201.944 75.7387 203.354 75.496 205.276 75.496C207.068 75.496 208.366 75.7387 209.168 76.224C209.971 76.6907 210.475 77.4093 210.68 78.38C210.904 79.332 211.016 80.8253 211.016 82.86V83.672ZM205.22 77.568C204.007 77.568 203.13 77.68 202.588 77.904C202.066 78.1093 201.711 78.5107 201.524 79.108C201.356 79.6867 201.263 80.6293 201.244 81.936H208.832V81.712C208.832 80.48 208.72 79.5747 208.496 78.996C208.291 78.4173 207.946 78.0347 207.46 77.848C206.975 77.6613 206.228 77.568 205.22 77.568Z" fill="#7C7979"/>
<path d="M266.667 121.1H269C269 117.128 265.786 115.317 263.167 114.899V112H260.833V114.899C258.214 115.317 255 117.128 255 121.1C255 124.888 258.11 126.858 260.833 127.302V134.26C259.144 133.909 257.333 132.826 257.333 130.9H255C255 134.525 257.829 136.667 260.833 137.11V140H263.167V137.102C265.786 136.685 269 134.872 269 130.9C269 126.928 265.786 125.117 263.167 124.699V117.74C264.718 118.075 266.667 119.057 266.667 121.1ZM257.333 121.1C257.333 119.057 259.282 118.075 260.833 117.74V124.459C259.234 124.104 257.333 123.056 257.333 121.1ZM266.667 130.9C266.667 132.943 264.718 133.925 263.167 134.26V127.54C264.718 127.875 266.667 128.857 266.667 130.9Z" fill="#767474"/>
<path d="M287.096 116.215L277.38 138H274.254L283.938 116.988H271.241V114.539H287.096V116.215ZM305.191 127.994C305.191 131.485 304.595 134.079 303.403 135.776C302.21 137.474 300.347 138.322 297.812 138.322C295.309 138.322 293.456 137.495 292.252 135.841C291.049 134.176 290.426 131.694 290.383 128.396V124.417C290.383 120.968 290.979 118.406 292.172 116.73C293.364 115.055 295.233 114.217 297.779 114.217C300.304 114.217 302.162 115.028 303.354 116.65C304.547 118.261 305.159 120.753 305.191 124.126V127.994ZM302.21 123.917C302.21 121.393 301.856 119.556 301.147 118.406C300.438 117.246 299.315 116.666 297.779 116.666C296.254 116.666 295.142 117.241 294.444 118.39C293.746 119.54 293.386 121.307 293.364 123.691V128.461C293.364 130.996 293.729 132.871 294.46 134.084C295.201 135.288 296.318 135.889 297.812 135.889C299.283 135.889 300.374 135.32 301.083 134.181C301.802 133.042 302.178 131.249 302.21 128.799V123.917ZM323.722 127.994C323.722 131.485 323.125 134.079 321.933 135.776C320.741 137.474 318.877 138.322 316.342 138.322C313.839 138.322 311.986 137.495 310.783 135.841C309.58 134.176 308.957 131.694 308.914 128.396V124.417C308.914 120.968 309.51 118.406 310.702 116.73C311.895 115.055 313.764 114.217 316.31 114.217C318.834 114.217 320.692 115.028 321.885 116.65C323.077 118.261 323.689 120.753 323.722 124.126V127.994ZM320.741 123.917C320.741 121.393 320.386 119.556 319.677 118.406C318.968 117.246 317.846 116.666 316.31 116.666C314.784 116.666 313.672 117.241 312.974 118.39C312.276 119.54 311.916 121.307 311.895 123.691V128.461C311.895 130.996 312.26 132.871 312.99 134.084C313.731 135.288 314.849 135.889 316.342 135.889C317.813 135.889 318.904 135.32 319.613 134.181C320.333 133.042 320.708 131.249 320.741 128.799V123.917Z" fill="#767474"/>
<rect x="27.5" y="30.5" width="320" height="151" rx="14.5" stroke="#BBB9B9"/>
</g>
<g filter="url(#filter1_d)">
<path d="M61.9617 51.0716H66.8331C66.8331 43.2795 60.1227 39.7254 54.6545 38.9069V33.2188H49.7831V38.9069C44.3149 39.7254 37.6045 43.2795 37.6045 51.0716C37.6045 58.5039 44.0981 62.3684 49.7831 63.239V76.8896C46.2562 76.2002 42.4759 74.0771 42.4759 70.2978H37.6045C37.6045 77.4087 43.5111 81.611 49.7831 82.4817V88.1507H54.6545V82.4652C60.1227 81.6467 66.8331 78.0899 66.8331 70.2978C66.8331 62.5057 60.1227 58.9516 54.6545 58.1331V44.4798C57.894 45.1362 61.9617 47.0643 61.9617 51.0716ZM42.4759 51.0716C42.4759 47.0643 46.5436 45.1362 49.7831 44.4798V57.6607C46.4437 56.9658 42.4759 54.9086 42.4759 51.0716ZM61.9617 70.2978C61.9617 74.3051 57.894 76.2332 54.6545 76.8896V63.706C57.894 64.3624 61.9617 66.2905 61.9617 70.2978Z" fill="#7C7979"/>
</g>
<path d="M112.995 3.47035C113.042 2.92006 112.635 2.43019 112.086 2.3762L103.13 1.49643C102.58 1.44244 102.096 1.84478 102.049 2.39507C102.001 2.94537 102.408 3.43524 102.958 3.48923L110.919 4.27125L110.23 12.2424C110.182 12.7927 110.589 13.2826 111.139 13.3366C111.689 13.3906 112.173 12.9882 112.22 12.4379L112.995 3.47035ZM78.26 32.7239L112.643 4.14628L111.357 2.59892L76.9744 31.1765L78.26 32.7239Z" fill="#B47676"/>
<g filter="url(#filter2_d)">
<path d="M69.6662 16.5721C60.3983 12.2023 49.9878 11.3742 40.2085 14.2289C30.4292 17.0835 21.8862 23.4444 16.0351 32.2276C10.184 41.0108 7.3868 51.6729 8.12015 62.3973C8.8535 73.1216 13.072 83.2447 20.0569 91.0415C27.0418 98.8384 36.3609 103.827 46.4263 105.156C56.4918 106.486 66.6808 104.075 75.2572 98.3341C83.8337 92.5931 90.267 83.8773 93.461 73.6718C96.655 63.4663 96.4121 52.4025 92.7736 42.3656L86.589 44.885C89.6776 53.4052 89.8839 62.797 87.1725 71.4602C84.4612 80.1235 79.0001 87.5221 71.7197 92.3956C64.4393 97.269 55.7901 99.3157 47.2457 98.1869C38.7013 97.0581 30.7906 92.8236 24.8612 86.205C18.9319 79.5864 15.3509 70.9932 14.7283 61.8895C14.1058 52.7858 16.4803 43.7349 21.4472 36.279C26.4141 28.8232 33.6661 23.4236 41.9675 21.0003C50.269 18.577 59.1063 19.28 66.9736 22.9894L69.6662 16.5721Z" fill="#7C7979"/>
</g>
</g>
<defs>
<filter id="filter0_d" x="17" y="30" width="331" height="163" filterUnits="userSpaceOnUse" color-interpolation-filters="sRGB">
<feFlood flood-opacity="0" result="BackgroundImageFix"/>
<feColorMatrix in="SourceAlpha" type="matrix" values="0 0 0 0 0 0 0 0 0 0 0 0 0 0 0 0 0 0 127 0" result="hardAlpha"/>
<feOffset dx="-6" dy="7"/>
<feGaussianBlur stdDeviation="2"/>
<feComposite in2="hardAlpha" operator="out"/>
<feColorMatrix type="matrix" values="0 0 0 0 0 0 0 0 0 0 0 0 0 0 0 0 0 0 0.25 0"/>
<feBlend mode="normal" in2="BackgroundImageFix" result="effect1_dropShadow"/>
<feBlend mode="normal" in="SourceGraphic" in2="effect1_dropShadow" result="shape"/>
</filter>
<filter id="filter1_d" x="27.6045" y="33.2188" width="39.2287" height="62.9319" filterUnits="userSpaceOnUse" color-interpolation-filters="sRGB">
<feFlood flood-opacity="0" result="BackgroundImageFix"/>
<feColorMatrix in="SourceAlpha" type="matrix" values="0 0 0 0 0 0 0 0 0 0 0 0 0 0 0 0 0 0 127 0" result="hardAlpha"/>
<feOffset dx="-6" dy="4"/>
<feGaussianBlur stdDeviation="2"/>
<feComposite in2="hardAlpha" operator="out"/>
<feColorMatrix type="matrix" values="0 0 0 0 0 0 0 0 0 0 0 0 0 0 0 0 0 0 0.25 0"/>
<feBlend mode="normal" in2="BackgroundImageFix" result="effect1_dropShadow"/>
<feBlend mode="normal" in="SourceGraphic" in2="effect1_dropShadow" result="shape"/>
</filter>
<filter id="filter2_d" x="-0.995117" y="12.561" width="96.686" height="100.952" filterUnits="userSpaceOnUse" color-interpolation-filters="sRGB">
<feFlood flood-opacity="0" result="BackgroundImageFix"/>
<feColorMatrix in="SourceAlpha" type="matrix" values="0 0 0 0 0 0 0 0 0 0 0 0 0 0 0 0 0 0 127 0" result="hardAlpha"/>
<feOffset dx="-5" dy="4"/>
<feGaussianBlur stdDeviation="2"/>
<feComposite in2="hardAlpha" operator="out"/>
<feColorMatrix type="matrix" values="0 0 0 0 0 0 0 0 0 0 0 0 0 0 0 0 0 0 0.25 0"/>
<feBlend mode="normal" in2="BackgroundImageFix" result="effect1_dropShadow"/>
<feBlend mode="normal" in="SourceGraphic" in2="effect1_dropShadow" result="shape"/>
</filter>
<clipPath id="clip0">
<rect width="382" height="213" fill="white"/>
</clipPath>
</defs>
</svg>
