<svg width="236" height="48" viewBox="0 0 236 48" fill="none" xmlns="http://www.w3.org/2000/svg">
<path fill-rule="evenodd" clip-rule="evenodd" d="M7.69383 47.7879L20.1105 36.5035L32.4594 47.7879L27.7305 29.5374L40.1512 18.2505H24.7695L20.1105 0L15.3837 18.2505H0L12.4207 29.5374" fill="#AEAEAE"/>
<path fill-rule="evenodd" clip-rule="evenodd" d="M77.5285 43.4093L76.9878 43.1824C76.6247 43.0353 76.2635 42.8084 75.9622 42.5816C75.7827 42.432 75.5412 42.1303 75.4215 41.8286C75.238 41.4546 75.1801 40.9236 75.1182 40.4723C75.0604 40.1706 75.0604 39.8739 74.9985 39.647V15.9289C75.1182 15.0238 75.238 14.0465 75.8425 13.5204C76.0241 13.3658 76.6247 13.0666 76.9878 12.8422C77.1075 12.8422 77.5285 12.6154 77.5285 12.6154C77.7101 12.3885 77.8298 12.3137 77.8917 12.1641C77.9515 11.8624 77.8917 10.4338 77.77 9.97751C77.5904 9.45144 77.4088 9.22705 76.926 9.22705H66.2592C66.0197 9.22705 65.5987 9.22705 65.479 9.37664C65.2376 9.60353 65.1757 10.2069 65.1757 10.5834C65.056 11.1842 64.9961 12.0145 65.2376 12.5406C65.2974 12.6154 65.4171 12.6902 65.5389 12.7625L65.9599 12.9918C66.2592 13.2187 66.6243 13.3658 66.744 13.67C67.1052 13.8221 67.2867 15.2482 67.2867 15.702C67.2867 16.0037 67.3466 19.7684 67.3466 21.5736C67.3466 22.0996 67.3466 23.4584 66.9236 23.608C66.8039 23.608 65.9 23.6828 65.4171 23.6828H60.7182C60.4169 23.608 60.2354 23.4584 60.1755 23.1568C60.0558 22.7778 60.1157 16.2281 60.1157 15.9289C60.1755 15.0238 60.2972 14.0465 60.7182 13.5204C60.8379 13.3658 61.261 13.1439 61.3827 12.9918L61.9832 12.6902C62.105 12.6154 62.2845 12.3885 62.2845 12.3137C62.4641 11.7876 62.3464 10.5834 62.2247 9.97751C62.105 9.52873 62.0431 9.22705 61.5622 9.22705H50.9573C50.5961 9.22705 50.1731 9.22705 49.9936 9.45144C49.5725 9.75562 49.389 12.0868 49.7521 12.4633C49.8718 12.6154 49.9936 12.6902 50.1133 12.7625C50.5961 12.9918 51.6197 13.5204 51.6197 13.5204C51.8013 13.7448 51.9809 13.9692 52.1026 14.1961C52.2223 14.6498 52.2821 15.0238 52.4039 15.4776C52.4039 15.702 52.4637 16.0037 52.4637 16.2281V39.3453L52.4039 39.647C52.342 40.4723 52.2821 41.305 51.9809 41.9757C51.8591 42.1303 51.8013 42.2051 51.7394 42.3572L51.5 42.5816C51.3783 42.6588 50.7158 43.0353 50.4146 43.1824L49.9317 43.4093C49.812 43.6362 49.6324 43.7858 49.5725 44.0152C49.5107 44.2396 49.5725 45.4438 49.6324 45.8178C49.6923 46.4211 49.7521 47.0245 50.1133 47.2489C50.233 47.3262 50.7158 47.3262 50.9573 47.3262H61.9254L62.1648 47.2489C62.2845 47.3262 62.4641 47.2489 62.5878 47.0993C62.8891 46.7228 63.0088 44.616 62.947 44.0875C62.8891 43.7858 62.7075 43.5589 62.526 43.4093C61.9832 43.1824 61.0794 42.7311 60.7781 42.3572C60.5985 42.1303 60.5367 41.9034 60.4169 41.679C60.1755 40.7765 60.1157 39.0412 60.1157 37.8369V30.8359C60.1157 30.6115 60.1157 29.9334 60.1755 29.7813C60.3571 29.6317 60.4768 29.4796 60.5367 29.4048H64.2718C65.3573 29.4048 66.8039 29.4048 67.1052 29.6317C67.165 29.6317 67.2867 29.9334 67.2867 30.083C67.3466 31.0628 67.3466 32.115 67.3466 33.1696C67.3466 35.431 67.3466 39.647 67.2867 39.9462C67.2249 40.5521 67.1052 41.3748 66.9236 41.8286C66.8039 42.1303 66.6243 42.3572 66.3809 42.5816C66.1414 42.8084 65.5389 43.1076 65.056 43.3345L64.8764 43.4093C64.4534 43.7858 64.4534 44.5412 64.5153 45.0648C64.5153 45.8178 64.5751 46.9497 65.056 47.2489C65.1757 47.3262 65.5987 47.3262 65.8401 47.3262H76.8661L77.0477 47.2489C77.2273 47.2489 77.4088 47.2489 77.5285 47.0993C77.6483 46.9497 77.77 46.648 77.77 46.3463C77.8298 46.0447 77.9515 44.3144 77.8917 44.0875C77.77 43.7858 77.7101 43.6362 77.5285 43.4093Z" fill="#AEAEAE"/>
<path fill-rule="evenodd" clip-rule="evenodd" d="M85.4243 31.5869C85.2726 30.7367 85.2407 29.8591 85.2966 28.9865C85.3285 28.4704 85.3923 27.9518 85.4841 27.4456C85.7256 26.0145 86.2663 24.3565 87.4116 23.6061C88.2556 23.0775 89.7022 22.7035 90.5442 23.4565C90.8475 23.6809 91.2066 23.9077 91.3882 24.2069C91.6895 24.5834 91.9309 25.0372 92.1723 25.5608C92.5335 26.3162 93.0143 27.9717 92.8946 28.8793C92.8886 28.9142 92.8827 28.9516 92.8767 28.9865C92.8228 29.3131 92.755 29.5948 92.5953 29.9314C92.4736 30.1558 92.2322 30.3827 92.0506 30.5348C91.2066 31.1356 87.2919 32.9432 86.4498 32.7936C86.2663 32.7936 86.0268 32.5667 85.8453 32.4895C85.7256 32.4172 85.4841 31.7365 85.4243 31.5869ZM99.7045 38.8148C99.2217 38.1391 98.0764 37.5333 97.5357 38.2887C96.6298 39.3434 95.7279 40.4703 94.6425 41.1485C94.1596 41.4501 93.6768 41.7543 93.1959 41.9014C91.6895 42.5048 89.9436 42.6569 88.497 41.9014C87.3517 41.2233 86.9307 40.6224 86.3261 39.2661C86.0867 38.74 85.7256 37.6854 86.3261 37.3089C86.5676 37.2341 86.8689 37.082 87.1701 37.0072C87.4116 36.9324 87.8944 36.7828 88.2556 36.6332C89.7022 36.0274 91.1487 35.429 92.5953 34.8281C93.9182 34.2223 95.2451 33.6214 96.5101 32.7936C96.5101 32.7936 97.9567 31.8138 98.4994 31.4373C98.8605 31.2104 99.1618 30.8339 99.4033 30.3827C99.7385 29.9613 99.8682 29.5051 99.8562 28.9865C99.8522 28.7646 99.8183 28.5277 99.7644 28.2734C99.4033 26.4683 97.9567 23.6809 96.8712 22.3245C96.4502 21.7985 95.9694 21.2699 95.4865 20.8211C95.0655 20.4421 94.4609 19.9909 93.9182 19.6917C93.2578 19.3127 92.5953 19.0883 91.9908 18.8614C91.2685 18.637 90.606 18.485 89.8817 18.4102C89.1594 18.3354 88.3773 18.4102 87.7129 18.5622C86.9906 18.637 86.2663 18.9362 85.6038 19.2379C84.8815 19.5396 84.0974 19.9909 83.4948 20.5169C82.8922 20.9682 82.2298 21.4968 81.7469 22.0976C81.2661 22.5514 80.8431 23.1548 80.4221 23.7557C79.9412 24.4338 79.4583 25.4137 79.1571 26.3162C78.8578 27.1963 78.6363 28.0864 78.4727 28.9865C78.1794 30.6345 78.0936 32.3224 78.1315 34.0727C78.1315 35.05 78.1933 36.0274 78.4328 36.9324C78.5545 37.7626 78.7341 38.4383 78.9775 39.1913C79.0972 39.645 79.6399 40.6972 79.9991 41.4501C80.1806 41.9014 80.9049 42.8813 81.3858 43.5569C81.5654 43.7838 82.6528 44.836 83.1935 45.3645C83.435 45.5914 83.9178 45.9679 84.2191 46.1923C84.3388 46.2696 84.6401 46.4192 84.7 46.494C85.1828 46.7208 85.1828 46.7208 85.2427 46.7956C86.0867 47.4738 88.3773 47.9251 89.4607 47.9251C90.8475 47.8503 92.1723 47.6982 93.5571 47.2469C94.2215 47.0973 94.8819 46.7208 95.3648 46.3419C96.0292 45.9679 96.6917 45.5166 97.2344 44.9905L97.7751 44.462C97.9567 44.2351 98.1363 44.083 98.258 43.9359L98.4395 43.7838C98.4395 43.7065 98.679 43.4821 98.7388 43.4073C98.9204 43.2602 98.9204 43.2602 98.9803 43.1057C99.1 43.0333 99.1618 42.8813 99.2217 42.8065C99.523 42.5048 99.8841 41.9014 100.006 41.4501C100.427 40.4703 100.245 39.645 99.7045 38.8148Z" fill="#AEAEAE"/>
<path fill-rule="evenodd" clip-rule="evenodd" d="M113.015 43.8583C112.894 43.5567 112.714 43.4071 112.473 43.3323C111.93 43.1054 111.509 42.7289 111.208 42.2028C110.785 41.5995 110.603 39.4927 110.665 38.8145C110.691 36.5606 110.705 32.6463 110.703 28.9862C110.699 24.5806 110.671 20.5466 110.603 20.215C110.545 19.6914 109.821 19.6914 109.46 19.6914H102.59C102.408 19.6914 102.049 19.6914 101.925 19.7662C101.506 19.9158 101.325 22.4016 101.506 22.7032C101.626 22.8528 101.686 23.0024 101.746 23.0772L102.47 23.6058C102.891 23.9075 103.073 24.2067 103.252 24.81C103.372 25.1117 103.434 26.089 103.434 26.6176V39.3431C103.434 39.4927 103.434 39.7944 103.372 39.944C103.372 40.47 103.252 41.223 103.193 41.6768C103.073 41.9011 102.953 42.2028 102.771 42.4297C102.59 42.6566 102.408 42.8062 102.229 42.8835C102.107 43.0331 101.987 43.1054 101.868 43.1802L101.506 43.3323C101.325 43.4819 101.083 43.6339 101.024 44.0129C100.902 44.4617 101.083 46.7954 101.385 47.0971C101.445 47.1694 101.686 47.2466 101.808 47.2466L102.049 47.3239H111.75C111.99 47.3239 112.351 47.3239 112.534 47.2466C112.654 47.1694 112.834 47.0223 112.834 46.8727C113.015 46.2693 113.317 44.4617 113.015 43.8583Z" fill="#AEAEAE"/>
<path fill-rule="evenodd" clip-rule="evenodd" d="M139.535 43.1051C139.353 42.6563 138.932 41.9008 138.511 41.8235C138.15 41.6764 137.907 41.9008 137.667 42.0529C137.366 42.2798 136.883 42.6563 136.701 42.6563C136.642 42.6563 136.462 42.579 136.462 42.4269L136.4 42.3521C136.34 42.2025 136.34 42.2025 136.34 42.1277V30.0056C136.34 29.7039 136.336 29.3598 136.332 28.9859C136.302 27.111 136.201 24.5728 136.099 24.1315C135.798 23.0769 135.496 22.0248 135.017 21.0449C134.173 19.6138 132.605 18.8608 131.28 18.7112C130.678 18.6364 130.077 18.6364 129.532 18.786C128.868 18.8608 128.207 19.1625 127.543 19.3869C127.002 19.6138 126.039 20.2147 125.254 20.7432C125.073 20.8205 124.592 21.1945 124.408 20.8953C124.408 20.8953 124.289 20.5936 124.229 20.4415C124.109 20.1424 123.989 19.6911 123.868 19.6138C123.626 19.3869 122.724 19.3869 122.242 19.3869H115.673C115.252 19.6138 115.192 20.9676 115.192 21.4962C115.192 21.9475 115.192 22.4012 115.372 22.6281C115.432 22.7029 115.613 22.7752 115.853 23.0021C115.853 23.0021 116.338 23.3786 116.579 23.5307C116.761 23.6803 116.878 24.0567 116.938 24.3559C117.06 24.8097 117.12 25.1837 117.18 25.5602V26.3156L117.17 28.9884L117.12 40.2428C117.12 40.6966 117 41.3723 116.818 41.8235C116.519 42.579 116.156 42.8059 115.613 43.1799C115.314 43.3319 114.889 43.5563 114.829 43.858C114.649 44.3118 114.771 46.9471 115.132 47.169C115.432 47.3236 116.457 47.3236 117.18 47.3236H124.532C125.073 47.3236 125.977 47.3236 126.098 47.2463C126.218 47.169 126.34 47.169 126.4 47.0219C126.641 46.4934 126.821 44.3118 126.641 43.858C126.519 43.5563 126.4 43.4815 126.158 43.4067C125.977 43.2596 125.737 43.1799 125.498 43.0328C124.953 42.6563 124.712 42.2025 124.47 41.4495C124.289 40.4697 124.229 39.4176 124.229 38.3629V31.5115C124.229 30.8284 124.265 29.5842 124.281 28.9859C124.287 28.7964 124.289 28.6667 124.289 28.6493C124.408 27.6694 124.592 26.9165 125.011 26.2408C125.254 25.7895 125.614 25.4131 125.977 25.1837C126.519 24.8097 127.182 24.6601 127.723 24.8845C128.086 24.8845 128.327 25.1114 128.569 25.4131C129.051 25.8643 129.231 26.6173 129.293 27.2954V42.8807C129.413 43.4067 129.472 43.9353 129.654 44.4614C130.015 45.2891 130.496 45.9673 131.161 46.5682C131.823 47.2463 132.908 47.548 133.75 47.6228C134.231 47.6976 134.776 47.6976 135.257 47.548C137.547 47.0219 138.511 46.1917 139.535 43.7832C139.654 43.5563 139.535 43.2596 139.535 43.1051Z" fill="#AEAEAE"/>
<path fill-rule="evenodd" clip-rule="evenodd" d="M147.724 32.4899C147.545 32.4176 147.421 32.0412 147.363 31.8143C147.242 31.5874 147.18 30.7571 147.122 30.2311C147.092 29.8745 147.11 29.4357 147.15 28.9869C147.19 28.5855 147.246 28.1791 147.303 27.8226C147.363 27.0697 147.545 26.4688 147.724 25.7906C147.966 24.9629 148.447 24.2074 149.051 23.7561C149.351 23.457 149.716 23.2301 150.079 23.2301C150.919 23.078 151.581 23.078 152.364 23.457C152.543 23.6065 152.906 23.9082 153.15 24.2074C153.511 24.5839 153.75 25.1873 153.93 25.641C154.307 26.4613 154.754 27.87 154.678 28.9869C154.662 29.3086 154.592 29.6053 154.473 29.8571C154.291 30.1563 154.111 30.3084 153.93 30.61C153.511 31.1361 148.987 33.0185 148.389 32.8689C148.147 32.7941 147.906 32.7168 147.724 32.4899ZM159.656 38.0648C159.596 38.0648 157.908 39.9447 157.605 40.2439C157.186 40.775 156.584 41.2237 156.041 41.4531C154.896 42.0565 153.75 42.5053 152.427 42.4305C152.002 42.4305 151.46 42.4305 151.037 42.2036C150.257 41.9019 149.532 41.5279 148.93 40.775C148.568 40.3935 147.844 38.8153 147.844 38.1396C147.786 37.6111 147.966 37.3842 148.389 37.2346C148.447 37.2346 148.626 37.2346 148.688 37.1573C148.748 37.0825 148.872 37.0825 148.93 37.0825C149.231 36.9329 149.532 36.8581 149.772 36.7833C149.953 36.7085 150.494 36.4841 150.797 36.4068L151.34 36.1824C151.581 36.0278 151.821 35.9555 152.126 35.8035C153.688 35.2026 155.556 34.2975 157.244 33.4698C158.208 33.0185 159.233 32.4176 160.077 31.7395C160.74 31.2134 161.344 30.5352 161.644 29.705C161.713 29.4906 161.727 29.2462 161.709 28.9869C161.664 28.3462 161.41 27.6306 161.282 27.1469C160.921 26.2419 160.5 25.4141 160.077 24.5839C159.778 24.0578 159.473 23.5318 159.173 23.078L158.571 22.1754C158.268 21.6494 157.605 21.1233 157.186 20.7443C156.041 19.8418 154.836 19.3132 153.571 18.8619C152.906 18.6375 152.126 18.4854 151.402 18.4106C150.797 18.4106 150.195 18.4106 149.532 18.6375C148.81 18.7871 148.147 19.014 147.421 19.3132C146.036 19.9166 143.868 21.6494 142.902 23.0032C142.241 23.6813 141.278 25.641 140.915 26.768C140.721 27.501 140.525 28.2789 140.362 28.9869C140.326 29.1565 140.288 29.321 140.254 29.4781C139.891 32.1135 139.771 35.1278 140.434 37.8354C140.615 38.5884 140.857 39.4934 141.218 40.2439C141.517 41.0742 141.942 41.8246 142.361 42.4305C142.722 43.1809 143.327 43.8591 143.868 44.3852C144.47 44.991 145.073 45.5171 145.795 46.0432C146.4 46.5692 147.122 46.9482 147.786 47.2474C148.389 47.4743 148.987 47.7012 149.654 47.8508C150.257 48.0004 150.857 48.0004 151.522 48.0004C152.364 48.0004 153.15 47.9256 153.93 47.8508C154.654 47.6239 155.378 47.397 156.101 47.023C156.823 46.7213 157.605 46.2701 158.268 45.7415C158.571 45.4423 158.934 45.2129 159.233 44.8364L160.139 44.0137C160.5 43.6347 161.344 42.6574 161.582 42.1288C161.582 42.1288 161.644 41.9019 161.705 41.9019C161.823 41.7548 161.823 41.7548 161.823 41.6775C161.885 41.4531 162.007 41.2237 162.065 41.0742C162.308 39.4934 160.981 37.6111 159.656 38.0648Z" fill="#AEAEAE"/>
<path fill-rule="evenodd" clip-rule="evenodd" d="M187.559 43.8597C187.499 43.4833 187.08 43.3337 186.779 43.1816C186.475 43.1068 186.052 42.9572 185.813 42.658C184.787 41.6782 183.64 39.0403 182.68 36.9335C181.954 35.2032 180.573 32.0418 180.39 31.5132C180.146 30.9847 179.967 30.3838 179.667 29.9325C179.546 29.7057 179.366 29.1771 179.366 29.0275C179.364 29.0175 179.364 29.0051 179.364 28.9926C179.348 28.0127 183.468 23.6022 184.001 23.2307L184.366 22.929C184.606 22.777 184.787 22.7046 184.969 22.6298C185.15 22.4778 185.33 22.403 185.45 22.403C185.571 22.3282 185.749 22.2509 185.813 22.1761C185.935 21.9492 185.993 21.7996 185.993 21.4979C186.112 21.0466 185.993 19.3886 185.749 18.9374C185.637 18.7878 184.245 18.7878 183.883 18.7878H179.847C178.642 18.7878 176.411 18.7878 175.992 18.8626C175.268 18.9374 175.268 21.1987 175.386 21.7996C175.449 22.0265 175.753 22.2509 175.809 22.2509C176.114 22.403 176.533 22.6298 176.655 22.777C176.772 23.0786 176.896 23.1559 176.952 23.4576C177.133 23.9837 174.364 27.1476 174.061 27.372C173.64 27.8233 173.101 28.4989 172.674 28.651C172.494 28.7258 172.315 28.7258 172.255 28.4266V10.7321C172.135 10.4329 172.075 10.1313 171.954 9.82958C171.832 9.67749 171.654 9.5279 171.475 9.37581C171.233 9.15142 163.639 9.15142 163.336 9.37581C163.158 9.37581 163.037 9.45061 162.979 9.67749C162.676 10.2809 162.554 11.1834 162.676 11.9364C162.733 12.3128 163.037 12.5397 163.336 12.7616C163.699 12.991 164.479 13.365 164.539 13.5944C164.968 14.1952 165.084 14.9482 165.208 15.928V39.3445C165.208 39.4941 165.208 39.7958 165.144 39.9454C165.144 40.2446 165.084 40.6983 165.022 41.0025C164.968 41.5286 164.783 42.0571 164.539 42.4311C164.302 42.8076 163.759 43.1068 163.458 43.2614C163.276 43.3337 162.917 43.5581 162.855 43.7849C162.733 44.3858 162.676 46.722 163.097 47.0985C163.22 47.1708 163.398 47.3253 163.577 47.248L163.759 47.3253H173.342C173.582 47.3253 174.003 47.3253 174.125 47.248C174.304 47.1708 174.364 47.0237 174.422 47.0237C174.667 46.6472 174.725 45.3657 174.725 44.7648C174.725 44.3858 174.725 43.937 174.607 43.7101C174.486 43.5581 174.364 43.4085 174.184 43.4085C173.823 43.1816 173.52 43.0345 173.219 42.8076C172.979 42.5807 172.86 42.3563 172.74 42.0571C172.558 41.6782 172.494 41.2244 172.439 40.6983C172.255 39.7958 172.075 37.7638 172.439 36.8587C172.618 36.6343 173.823 35.1284 174.125 35.2032C174.364 35.2032 174.725 36.1058 174.909 36.5571C175.386 37.6117 176.114 39.2697 176.712 40.6235C177.195 41.6782 178.039 43.6354 178.702 45.064C178.821 45.5177 179.003 45.8942 179.185 46.2707C179.366 46.6472 179.546 47.0237 179.608 47.0985C179.787 47.3253 180.573 47.3253 180.93 47.3253H185.571C186.052 47.3253 186.956 47.248 187.08 47.248C187.198 47.1708 187.321 47.0237 187.381 46.7968C187.559 46.0438 187.798 44.6152 187.559 43.8597Z" fill="#AEAEAE"/>
<path fill-rule="evenodd" clip-rule="evenodd" d="M194.426 31.36C194.28 30.6718 194.288 29.8391 194.346 28.9864C194.384 28.4479 194.442 27.8969 194.484 27.3708C194.55 26.9918 194.787 26.0893 195.027 25.4136C195.268 24.5834 195.932 23.8304 196.535 23.4564C197.197 23.0774 197.978 22.9278 198.706 23.0774C199.304 23.1547 200.089 23.6808 200.452 24.2817C200.755 24.8102 200.992 25.2615 201.232 25.7153C201.479 26.2414 201.657 26.8422 201.779 27.4481C201.85 27.9043 201.902 28.4753 201.848 28.9864C201.814 29.3155 201.739 29.6197 201.597 29.8565C201.417 30.1557 201.232 30.3826 200.992 30.5347C200.212 31.0608 196.052 33.1676 195.332 32.7163C194.847 32.6415 194.55 31.9633 194.426 31.36ZM209.131 39.645C208.766 38.74 207.505 37.3836 206.657 38.0643C206.599 38.1391 206.479 38.2887 206.418 38.366L206.174 38.7399C206.174 38.7399 205.693 39.1912 205.514 39.4181C204.851 40.1686 204.191 40.7744 203.401 41.2232C202.924 41.5274 202.439 41.8266 201.96 41.9737C201.356 42.2031 200.693 42.3551 200.029 42.3551C199.548 42.4299 199.067 42.3551 198.586 42.2803C198.341 42.2031 197.738 41.9737 197.321 41.8266C196.355 41.3728 195.268 39.645 195.027 38.4383C194.911 37.8349 195.027 37.5357 195.39 37.234C195.571 37.234 195.695 37.1567 195.813 37.0819C195.932 37.0819 196.052 37.0072 196.114 37.0072C196.234 36.9324 196.659 36.8576 196.898 36.7828C197.259 36.6332 198.464 36.1046 199.304 35.7281C201.176 34.9752 203.225 34.1449 204.851 33.1676C205.576 32.7163 207.02 31.8137 207.26 31.5869C207.563 31.36 208.165 30.8339 208.285 30.6095L208.405 30.3826C208.467 30.3078 208.525 30.2305 208.584 30.1557C208.65 30.0061 208.706 29.8565 208.766 29.6297C208.832 29.4477 208.86 29.2283 208.856 28.9864C208.848 28.3232 208.626 27.5129 208.405 27.0691C207.742 25.4136 206.958 23.7556 205.939 22.327C205.091 21.1975 204.069 20.2925 202.924 19.6168C201.779 19.0135 200.452 18.5622 199.127 18.4101C198.522 18.3353 197.922 18.3353 197.321 18.4101C196.659 18.4101 196.052 18.637 195.39 18.8614C194.787 19.0883 194.123 19.3875 193.584 19.7664C192.197 20.669 191.17 21.6488 190.09 22.853L189.847 23.1547C189.607 23.5312 189.607 23.5312 189.424 23.6808L188.883 24.6606C188.699 25.0371 188.221 26.2414 187.917 27.0691C187.7 27.645 187.53 28.2933 187.401 28.9864C186.884 31.7439 187.029 35.2195 187.558 37.6853C187.861 39.1912 188.46 40.4703 189.126 41.7543C189.424 42.4299 189.907 43.0333 190.332 43.4821C190.93 44.1627 191.537 44.8359 192.197 45.3645C192.802 45.8158 193.342 46.2695 193.947 46.646C194.607 47.0225 195.268 47.3242 195.992 47.5486C196.659 47.7729 197.443 47.8502 198.161 47.925C199.67 47.9998 201.176 47.7729 202.563 47.2469C203.89 46.7956 205.091 45.9678 206.236 44.9905C206.721 44.5392 207.505 43.6342 208.106 42.956C208.766 42.1283 209.55 40.8517 209.131 39.645Z" fill="#AEAEAE"/>
<path fill-rule="evenodd" clip-rule="evenodd" d="M234.794 43.1053C234.732 42.8061 234.373 42.2028 234.191 42.0532C234.014 41.9011 233.886 41.8238 233.706 41.754C233.465 41.754 233.229 41.9011 232.984 42.0532C232.681 42.2801 232.14 42.6566 232.08 42.6566C231.96 42.7289 231.841 42.6566 231.841 42.5793C231.661 42.3524 231.661 41.9734 231.661 41.754C231.661 41.5271 231.599 39.7943 231.599 38.8145L231.557 28.9886L231.537 24.6604C231.537 24.5831 231.537 24.5831 231.482 24.3562C231.416 24.057 231.358 23.6805 231.302 23.3789C231.118 22.7755 230.935 21.9477 230.572 21.4192C230.272 21.0452 229.915 20.5166 229.792 20.367C228.644 19.2376 227.258 18.6367 225.755 18.6367C224.61 18.7115 223.463 19.0132 222.379 19.6141C221.896 19.841 221.238 20.2922 220.691 20.5939C220.511 20.7435 220.09 21.0452 219.971 21.0452C219.789 21.0452 219.608 20.5939 219.488 20.367C219.308 19.841 219.129 19.3124 218.582 19.3872H211.475C211.11 19.3872 210.81 19.3872 210.631 19.841C210.449 20.5166 210.268 22.4015 210.81 22.7755C211.96 23.6057 212.377 23.9074 212.439 25.5604C212.439 25.7898 212.498 26.3159 212.498 26.3159L212.484 28.9886L212.439 39.6447V40.2431C212.377 40.6969 212.257 41.3725 212.137 41.8238C211.894 42.5045 211.535 42.8061 211.052 43.1053C210.691 43.2599 210.326 43.4818 210.146 43.7062C209.849 44.0827 210.146 46.7953 210.391 47.097C210.569 47.2466 210.81 47.2466 210.996 47.3239H220.753C220.935 47.3239 221.294 47.3239 221.417 47.2466C221.539 47.1693 221.717 47.0222 221.779 46.8726C222.018 46.0424 222.142 44.8356 222.018 44.0129C221.896 43.7835 221.717 43.5566 221.599 43.407C221.176 43.1801 220.452 42.8061 220.332 42.6566C220.21 42.4272 219.971 42.0532 219.911 41.9011C219.851 41.754 219.789 41.3725 219.729 41.2229V41.001C219.608 40.6221 219.608 40.6221 219.608 40.47C219.548 40.096 219.548 38.1388 219.548 37.0069V33.3942C219.548 31.9905 219.548 29.6444 219.604 28.9861C219.604 28.9762 219.608 28.9612 219.608 28.9512C219.608 28.4975 219.729 27.7445 219.851 27.3705C220.035 26.9916 220.332 26.2411 220.39 26.2411C220.873 25.5604 221.356 25.0369 222.078 24.81C222.621 24.6604 223.165 24.81 223.646 25.1117C223.826 25.2612 224.129 25.6402 224.309 25.9394C224.428 26.3159 224.548 26.842 224.61 27.2957V28.9861C224.61 32.5739 224.608 36.224 224.548 39.9439C224.548 40.7742 224.61 42.8061 224.61 42.8809C224.61 43.407 224.734 43.9356 224.913 44.4617C225.093 44.8356 225.274 45.2121 225.512 45.5911C225.755 45.9676 226.116 46.2693 226.418 46.5684C227.202 47.2466 228.165 47.5483 229.007 47.6231C229.552 47.6979 230.033 47.6979 230.572 47.5483C231.118 47.4735 231.661 47.2466 232.202 47.0222C232.926 46.7205 233.585 46.1197 234.069 45.3642C234.373 44.9154 234.732 44.2348 234.852 43.7835C234.915 43.5566 234.852 43.3322 234.794 43.1053Z" fill="#AEAEAE"/>
<path fill-rule="evenodd" clip-rule="evenodd" d="M110.313 14.6481C110.432 13.8204 110.554 12.6884 110.313 11.8607C110.131 11.4094 109.951 10.806 109.768 10.5816C109.528 10.28 109.227 9.82869 109.046 9.6018C108.024 8.77405 106.877 8.39757 105.733 8.62196C105.31 8.69676 104.949 8.92364 104.648 9.07324C104.225 9.37492 103.864 9.6766 103.565 10.0531C103.381 10.4321 103.082 10.8833 102.9 11.1825C102.599 12.1624 102.417 13.2145 102.599 14.1943C102.78 15.1742 103.201 16.2263 103.864 16.8297C105.61 18.4104 107.24 18.3356 109.046 16.9045C109.588 16.5305 109.951 15.4759 110.313 14.6481Z" fill="#AEAEAE"/>
<path fill-rule="evenodd" clip-rule="evenodd" d="M232.205 9.52641C232.382 9.60121 232.747 9.97519 232.568 10.2794C232.504 10.5062 232.446 10.581 232.382 10.6558C232.205 10.6558 231.179 10.8054 231.121 10.7306V9.44912C231.54 9.44912 231.963 9.44912 232.205 9.52641ZM230.098 8.39697V14.0441H231.121V11.8601C231.121 11.7853 232.083 11.9349 232.143 12.0122C232.326 12.0845 232.382 12.2366 232.446 12.3861C232.504 12.613 232.568 12.8399 232.568 12.9895C232.684 13.3635 232.747 13.6677 232.809 14.0441H233.889L233.775 13.5929C233.775 13.4408 233.775 13.4408 233.647 13.2164C233.647 12.9147 233.587 12.6878 233.528 12.3861C233.468 12.0122 233.288 11.6357 232.929 11.4088L233.111 11.2567C233.168 11.2567 233.232 11.1819 233.288 11.1071C233.348 10.955 233.468 10.7306 233.528 10.581C233.647 10.2046 233.647 9.75329 233.528 9.37432C233.468 9.14993 233.288 8.92305 233.168 8.77345C232.809 8.54657 232.446 8.47177 232.023 8.39697" fill="#AEAEAE"/>
<path fill-rule="evenodd" clip-rule="evenodd" d="M235.395 14.1189C235.76 13.4407 235.94 12.6154 236 11.7104C236 11.2566 236 10.6558 235.818 10.2793C235.696 9.7532 235.457 8.99775 235.395 8.84816C235.158 8.39688 234.918 8.0204 234.613 7.64393C234.375 7.34474 234.016 7.11785 233.647 6.81617C232.929 6.43969 232.083 6.28761 231.241 6.43969C230.818 6.43969 230.395 6.66408 230.036 6.81617C229.431 7.19016 228.647 8.0952 228.35 8.84816C228.168 9.29943 227.927 9.9028 227.865 10.2793C227.807 10.7306 227.749 11.1818 227.749 11.7104C227.749 12.2365 227.865 12.76 227.988 13.2163C228.108 13.6676 228.35 14.1937 228.527 14.6474C228.828 14.9466 229.068 15.4004 229.373 15.6223C230.036 16.2256 230.638 16.5273 231.418 16.6794C232.568 16.7517 233.775 16.3029 234.613 15.3231C234.918 15.0214 235.213 14.5701 235.395 14.1189ZM234.918 12.9146C234.854 13.2911 234.675 13.5928 234.493 13.8945C234.252 14.2709 234.016 14.6474 233.647 14.8718C233.348 15.0962 232.987 15.4004 232.628 15.4752C232.023 15.6223 231.36 15.6996 230.818 15.3231C230.395 15.0962 230.097 14.9466 229.794 14.6474C229.672 14.4953 229.313 13.9668 229.068 13.5928C228.89 13.2911 228.769 12.6877 228.647 12.3113C228.589 11.7852 228.527 11.1818 228.647 10.6558C229.068 8.84816 230.036 7.71872 231.54 7.41704C232.266 7.26745 233.051 7.56663 233.647 8.0952C234.016 8.31959 234.252 8.69607 234.493 9.07255C234.735 9.44903 234.854 9.9028 234.98 10.2793C235.158 10.8826 235.213 12.3113 234.918 12.9146Z" fill="#AEAEAE"/>
</svg>
