<svg width="382" height="213" viewBox="0 0 382 213" fill="none" xmlns="http://www.w3.org/2000/svg">
<g clip-path="url(#clip0)">
<g filter="url(#filter0_d)">
<rect x="24" y="25" width="321" height="152" rx="15" fill="#FEFEFB"/>
<path d="M216.667 110.1H219C219 106.128 215.786 104.317 213.167 103.899V101H210.833V103.899C208.214 104.317 205 106.128 205 110.1C205 113.888 208.11 115.858 210.833 116.302V123.26C209.144 122.909 207.333 121.826 207.333 119.9H205C205 123.525 207.829 125.667 210.833 126.11V129H213.167V126.102C215.786 125.685 219 123.872 219 119.9C219 115.928 215.786 114.117 213.167 113.699V106.74C214.718 107.075 216.667 108.057 216.667 110.1ZM207.333 110.1C207.333 108.057 209.282 107.075 210.833 106.74V113.459C209.234 113.104 207.333 112.056 207.333 110.1ZM216.667 119.9C216.667 121.943 214.718 122.925 213.167 123.26V116.54C214.718 116.875 216.667 117.857 216.667 119.9Z" fill="#767474"/>
<path d="M99.8 85V65.736H102.208V85H99.8ZM117.108 76.964C117.108 75.6387 117.024 74.696 116.856 74.136C116.688 73.5573 116.37 73.1747 115.904 72.988C115.437 72.8013 114.653 72.708 113.552 72.708C112.376 72.708 111.508 72.8947 110.948 73.268C110.406 73.6413 110.061 74.1547 109.912 74.808C109.781 75.4613 109.716 76.404 109.716 77.636V85H107.448V70.72H109.464L109.576 72.736H109.744C110.061 72.008 110.584 71.4573 111.312 71.084C112.04 70.692 113.094 70.496 114.476 70.496C115.857 70.496 116.893 70.692 117.584 71.084C118.293 71.476 118.769 72.064 119.012 72.848C119.254 73.6133 119.376 74.6867 119.376 76.068V85H117.108V76.964ZM133.281 84.86C132.777 84.9533 132.161 85.0373 131.433 85.112C130.724 85.1867 130.043 85.224 129.389 85.224C127.635 85.224 126.347 84.972 125.525 84.468C124.704 83.964 124.172 83.2173 123.929 82.228C123.705 81.2387 123.593 79.7827 123.593 77.86C123.593 75.9747 123.733 74.5187 124.013 73.492C124.293 72.4653 124.844 71.7093 125.665 71.224C126.487 70.7387 127.7 70.496 129.305 70.496C129.94 70.496 130.612 70.5333 131.321 70.608C132.049 70.6827 132.665 70.7667 133.169 70.86V72.876C132.049 72.6707 130.948 72.568 129.865 72.568C128.671 72.568 127.793 72.708 127.233 72.988C126.692 73.268 126.328 73.7627 126.141 74.472C125.955 75.1813 125.861 76.3107 125.861 77.86C125.861 79.428 125.955 80.576 126.141 81.304C126.347 82.0133 126.72 82.4987 127.261 82.76C127.821 83.0213 128.717 83.152 129.949 83.152C130.864 83.152 131.975 83.0587 133.281 82.872V84.86ZM142.744 85.224C140.747 85.224 139.319 85.028 138.46 84.636C137.602 84.2253 137.051 83.544 136.808 82.592C136.584 81.6213 136.472 80.044 136.472 77.86C136.472 75.676 136.584 74.108 136.808 73.156C137.051 72.1853 137.602 71.504 138.46 71.112C139.319 70.7013 140.747 70.496 142.744 70.496C144.723 70.496 146.142 70.7013 147 71.112C147.859 71.504 148.4 72.1853 148.624 73.156C148.867 74.108 148.988 75.676 148.988 77.86C148.988 80.044 148.867 81.6213 148.624 82.592C148.4 83.544 147.859 84.2253 147 84.636C146.142 85.028 144.723 85.224 142.744 85.224ZM142.744 83.152C144.107 83.152 145.05 83.0307 145.572 82.788C146.095 82.5453 146.412 82.1067 146.524 81.472C146.655 80.8187 146.72 79.6147 146.72 77.86C146.72 76.1053 146.655 74.9107 146.524 74.276C146.412 73.6227 146.095 73.1747 145.572 72.932C145.05 72.6893 144.107 72.568 142.744 72.568C141.382 72.568 140.43 72.6893 139.888 72.932C139.366 73.1747 139.039 73.6227 138.908 74.276C138.796 74.9107 138.74 76.1053 138.74 77.86C138.74 79.6147 138.796 80.8187 138.908 81.472C139.039 82.1067 139.366 82.5453 139.888 82.788C140.43 83.0307 141.382 83.152 142.744 83.152ZM170.833 76.964C170.833 75.62 170.758 74.668 170.609 74.108C170.478 73.548 170.207 73.1747 169.797 72.988C169.386 72.8013 168.695 72.708 167.725 72.708C166.679 72.708 165.914 72.8853 165.429 73.24C164.943 73.5947 164.635 74.0987 164.505 74.752C164.374 75.4053 164.309 76.3667 164.309 77.636V85H162.041V76.964C162.041 75.62 161.966 74.668 161.817 74.108C161.686 73.548 161.415 73.1747 161.005 72.988C160.594 72.8013 159.903 72.708 158.933 72.708C157.887 72.708 157.122 72.8947 156.637 73.268C156.151 73.6227 155.843 74.136 155.713 74.808C155.582 75.4613 155.517 76.404 155.517 77.636V85H153.249V70.72H155.265L155.377 72.736H155.545C155.825 72.008 156.301 71.4573 156.973 71.084C157.663 70.692 158.634 70.496 159.885 70.496C161.117 70.496 162.05 70.6733 162.685 71.028C163.319 71.3827 163.758 71.952 164.001 72.736H164.197C164.794 71.2427 166.278 70.496 168.649 70.496C169.899 70.496 170.842 70.692 171.477 71.084C172.111 71.476 172.541 72.064 172.765 72.848C172.989 73.6133 173.101 74.6867 173.101 76.068V85H170.833V76.964ZM189.391 78.672H179.619C179.619 80.0347 179.713 81.0053 179.899 81.584C180.086 82.1627 180.487 82.5733 181.103 82.816C181.738 83.04 182.793 83.152 184.267 83.152C185.705 83.152 187.226 83.0493 188.831 82.844V84.832C188.234 84.944 187.459 85.0373 186.507 85.112C185.555 85.1867 184.65 85.224 183.791 85.224C181.869 85.224 180.45 85 179.535 84.552C178.639 84.104 178.051 83.3853 177.771 82.396C177.491 81.4067 177.351 79.904 177.351 77.888C177.351 75.9093 177.473 74.4253 177.715 73.436C177.977 72.4467 178.546 71.7093 179.423 71.224C180.319 70.7387 181.729 70.496 183.651 70.496C185.443 70.496 186.741 70.7387 187.543 71.224C188.346 71.6907 188.85 72.4093 189.055 73.38C189.279 74.332 189.391 75.8253 189.391 77.86V78.672ZM183.595 72.568C182.382 72.568 181.505 72.68 180.963 72.904C180.441 73.1093 180.086 73.5107 179.899 74.108C179.731 74.6867 179.638 75.6293 179.619 76.936H187.207V76.712C187.207 75.48 187.095 74.5747 186.871 73.996C186.666 73.4173 186.321 73.0347 185.835 72.848C185.35 72.6613 184.603 72.568 183.595 72.568Z" fill="#7C7979"/>
<path d="M240.096 106.215L230.38 128H227.254L236.938 106.988H224.241V104.539H240.096V106.215ZM244.85 116.237L246.042 104.539H258.062V107.294H248.572L247.863 113.691C249.012 113.015 250.317 112.676 251.778 112.676C253.916 112.676 255.613 113.385 256.87 114.803C258.127 116.21 258.755 118.117 258.755 120.523C258.755 122.94 258.1 124.847 256.79 126.244C255.49 127.629 253.669 128.322 251.327 128.322C249.254 128.322 247.562 127.748 246.251 126.598C244.941 125.449 244.194 123.859 244.012 121.829H246.832C247.014 123.171 247.492 124.187 248.266 124.874C249.039 125.551 250.06 125.889 251.327 125.889C252.713 125.889 253.798 125.417 254.582 124.471C255.377 123.526 255.774 122.221 255.774 120.556C255.774 118.987 255.345 117.73 254.485 116.785C253.637 115.829 252.503 115.351 251.085 115.351C249.786 115.351 248.765 115.636 248.024 116.205L247.234 116.85L244.85 116.237ZM276.722 117.994C276.722 121.485 276.125 124.079 274.933 125.776C273.741 127.474 271.877 128.322 269.342 128.322C266.839 128.322 264.986 127.495 263.783 125.841C262.58 124.176 261.957 121.694 261.914 118.396V114.417C261.914 110.968 262.51 108.406 263.702 106.73C264.895 105.055 266.764 104.217 269.31 104.217C271.834 104.217 273.692 105.028 274.885 106.65C276.077 108.261 276.689 110.753 276.722 114.126V117.994ZM273.741 113.917C273.741 111.393 273.386 109.556 272.677 108.406C271.968 107.246 270.846 106.666 269.31 106.666C267.784 106.666 266.672 107.241 265.974 108.39C265.276 109.54 264.916 111.307 264.895 113.691V118.461C264.895 120.996 265.26 122.871 265.99 124.084C266.731 125.288 267.849 125.889 269.342 125.889C270.813 125.889 271.904 125.32 272.613 124.181C273.333 123.042 273.708 121.249 273.741 118.799V113.917ZM295.252 117.994C295.252 121.485 294.656 124.079 293.463 125.776C292.271 127.474 290.407 128.322 287.872 128.322C285.369 128.322 283.516 127.495 282.313 125.841C281.11 124.176 280.487 121.694 280.444 118.396V114.417C280.444 110.968 281.04 108.406 282.232 106.73C283.425 105.055 285.294 104.217 287.84 104.217C290.364 104.217 292.223 105.028 293.415 106.65C294.607 108.261 295.22 110.753 295.252 114.126V117.994ZM292.271 113.917C292.271 111.393 291.917 109.556 291.208 108.406C290.499 107.246 289.376 106.666 287.84 106.666C286.314 106.666 285.203 107.241 284.504 108.39C283.806 109.54 283.446 111.307 283.425 113.691V118.461C283.425 120.996 283.79 122.871 284.521 124.084C285.262 125.288 286.379 125.889 287.872 125.889C289.344 125.889 290.434 125.32 291.143 124.181C291.863 123.042 292.239 121.249 292.271 118.799V113.917Z" fill="#767474"/>
<rect x="24.5" y="25.5" width="320" height="151" rx="14.5" stroke="#BBB9B9"/>
</g>
<g filter="url(#filter1_d)">
<path d="M60.0427 42.4476H64.7919C64.7919 35.0543 58.2499 31.682 52.919 30.9054V25.5083H48.1698V30.9054C42.8389 31.682 36.2969 35.0543 36.2969 42.4476C36.2969 49.4996 42.6275 53.1663 48.1698 53.9924V66.9445C44.7314 66.2904 41.046 64.2759 41.046 60.69H36.2969C36.2969 67.4371 42.0552 71.4243 48.1698 72.2504V77.6293H52.919V72.2348C58.2499 71.4582 64.7919 68.0834 64.7919 60.69C64.7919 53.2966 58.2499 49.9244 52.919 49.1478V36.1931C56.0772 36.816 60.0427 38.6454 60.0427 42.4476V42.4476ZM41.046 42.4476C41.046 38.6454 45.0116 36.816 48.1698 36.1931V48.6995C44.9142 48.0402 41.046 46.0883 41.046 42.4476ZM60.0427 60.69C60.0427 64.4922 56.0772 66.3217 52.919 66.9445V54.4355C56.0772 55.0583 60.0427 56.8878 60.0427 60.69V60.69Z" fill="#7C7979"/>
</g>
<g filter="url(#filter2_d)">
<path d="M67.9176 7.66475C58.8823 3.25423 48.7331 2.41839 39.1993 5.29965C29.6655 8.18091 21.3369 14.601 15.6326 23.466C9.92837 32.331 7.20139 43.0924 7.91633 53.9166C8.63128 64.7409 12.7439 74.9582 19.5535 82.8276C26.363 90.6971 35.4482 95.7318 45.261 97.074C55.0738 98.4161 65.0071 95.9826 73.3683 90.1881C81.7295 84.3937 88.0013 75.5967 91.1152 65.2962C94.229 54.9956 93.9921 43.8288 90.4449 33.6984L84.4156 36.2413C87.4267 44.8408 87.6278 54.32 84.9845 63.064C82.3412 71.8079 77.0172 79.2755 69.9195 84.1943C62.8219 89.1131 54.3897 91.1789 46.0598 90.0395C37.7299 88.9002 30.0177 84.6263 24.2372 77.9461C18.4567 71.2659 14.9656 62.5926 14.3587 53.4041C13.7518 44.2157 16.0666 35.0805 20.9089 27.5552C25.7511 20.0298 32.8211 14.58 40.9142 12.1341C49.0072 9.68827 57.6227 10.3978 65.2926 14.1418L67.9176 7.66475Z" fill="#7C7979"/>
</g>
<path d="M72.3787 25.7224C72.2996 26.2937 72.6578 26.8193 73.1788 26.8963L81.6686 28.1506C82.1896 28.2276 82.676 27.8268 82.7552 27.2555C82.8343 26.6842 82.4761 26.1586 81.9551 26.0816L74.4086 24.9666L75.5545 16.6905C75.6336 16.1192 75.2754 15.5936 74.7544 15.5166C74.2335 15.4397 73.747 15.8404 73.6679 16.4118L72.3787 25.7224ZM111.434 -6.8325L72.7563 25.0317L73.8878 26.6918L112.566 -5.17238L111.434 -6.8325Z" fill="#048428"/>
</g>
<defs>
<filter id="filter0_d" x="15" y="25" width="330" height="165" filterUnits="userSpaceOnUse" color-interpolation-filters="sRGB">
<feFlood flood-opacity="0" result="BackgroundImageFix"/>
<feColorMatrix in="SourceAlpha" type="matrix" values="0 0 0 0 0 0 0 0 0 0 0 0 0 0 0 0 0 0 127 0" result="hardAlpha"/>
<feOffset dx="-5" dy="9"/>
<feGaussianBlur stdDeviation="2"/>
<feComposite in2="hardAlpha" operator="out"/>
<feColorMatrix type="matrix" values="0 0 0 0 0 0 0 0 0 0 0 0 0 0 0 0 0 0 0.25 0"/>
<feBlend mode="normal" in2="BackgroundImageFix" result="effect1_dropShadow"/>
<feBlend mode="normal" in="SourceGraphic" in2="effect1_dropShadow" result="shape"/>
</filter>
<filter id="filter1_d" x="26.2969" y="25.5083" width="38.495" height="60.121" filterUnits="userSpaceOnUse" color-interpolation-filters="sRGB">
<feFlood flood-opacity="0" result="BackgroundImageFix"/>
<feColorMatrix in="SourceAlpha" type="matrix" values="0 0 0 0 0 0 0 0 0 0 0 0 0 0 0 0 0 0 127 0" result="hardAlpha"/>
<feOffset dx="-6" dy="4"/>
<feGaussianBlur stdDeviation="2"/>
<feComposite in2="hardAlpha" operator="out"/>
<feColorMatrix type="matrix" values="0 0 0 0 0 0 0 0 0 0 0 0 0 0 0 0 0 0 0.25 0"/>
<feBlend mode="normal" in2="BackgroundImageFix" result="effect1_dropShadow"/>
<feBlend mode="normal" in="SourceGraphic" in2="effect1_dropShadow" result="shape"/>
</filter>
<filter id="filter2_d" x="-1.19531" y="3.61621" width="94.4851" height="101.818" filterUnits="userSpaceOnUse" color-interpolation-filters="sRGB">
<feFlood flood-opacity="0" result="BackgroundImageFix"/>
<feColorMatrix in="SourceAlpha" type="matrix" values="0 0 0 0 0 0 0 0 0 0 0 0 0 0 0 0 0 0 127 0" result="hardAlpha"/>
<feOffset dx="-5" dy="4"/>
<feGaussianBlur stdDeviation="2"/>
<feComposite in2="hardAlpha" operator="out"/>
<feColorMatrix type="matrix" values="0 0 0 0 0 0 0 0 0 0 0 0 0 0 0 0 0 0 0.25 0"/>
<feBlend mode="normal" in2="BackgroundImageFix" result="effect1_dropShadow"/>
<feBlend mode="normal" in="SourceGraphic" in2="effect1_dropShadow" result="shape"/>
</filter>
<clipPath id="clip0">
<rect width="382" height="213" fill="white"/>
</clipPath>
</defs>
</svg>
