<svg width="27" height="38" viewBox="0 0 27 38" fill="none" xmlns="http://www.w3.org/2000/svg">
<path d="M14.5125 10.6316C13.8375 10.4797 13.1625 10.176 12.6562 9.72031C12.15 9.56843 11.9813 9.11279 11.9813 8.80903C11.9813 8.50527 12.15 8.04963 12.4875 7.89775C12.9937 7.59399 13.5 7.29024 14.0063 7.44211C15.0188 7.44211 15.8625 7.89775 16.3687 8.50527L17.8875 6.68272C17.3813 6.22708 16.875 5.92332 16.3687 5.61956C15.8625 5.3158 15.1875 5.16392 14.5125 5.16392V3.0376H12.4875V5.16392C11.6437 5.3158 10.8 5.77144 10.125 6.37896C9.45 7.13835 8.94375 8.04963 9.1125 8.96091C9.1125 9.87219 9.45 10.7835 10.125 11.391C10.9688 12.1504 12.15 12.606 13.1625 13.0617C13.6688 13.2136 14.3438 13.5173 14.85 13.8211C15.1875 14.1248 15.3563 14.5805 15.3563 15.0361C15.3563 15.4917 15.1875 15.9474 14.85 16.403C14.3438 16.8587 13.6688 17.0105 13.1625 17.0105C12.4875 17.0105 11.6438 16.8587 11.1375 16.403C10.6313 16.0993 10.125 15.6436 9.7875 15.188L8.1 16.8587C8.60625 17.4662 9.1125 17.9218 9.7875 18.3775C10.6313 18.8331 11.6437 19.2887 12.6562 19.2887V21.2632H14.5125V18.985C15.525 18.8331 16.3688 18.3775 17.0438 17.7699C17.8875 17.0105 18.3937 15.7955 18.3937 14.7323C18.3937 13.8211 18.0562 12.7579 17.2125 12.1504C16.3687 11.391 15.525 10.9354 14.5125 10.6316ZM13.5 0C6.075 0 0 5.46768 0 12.1504C0 18.8331 6.075 24.3008 13.5 24.3008C20.925 24.3008 27 18.8331 27 12.1504C27 5.46768 20.925 0 13.5 0ZM13.5 22.6301C7.0875 22.6301 1.85625 17.9218 1.85625 12.1504C1.85625 6.37896 7.0875 1.67068 13.5 1.67068C19.9125 1.67068 25.1437 6.37896 25.1437 12.1504C25.1437 17.9218 19.9125 22.6301 13.5 22.6301Z" fill="#403F3F"/>
<path d="M12.9393 37.2607C13.5251 37.8464 14.4749 37.8464 15.0607 37.2607L24.6066 27.7147C25.1924 27.1289 25.1924 26.1792 24.6066 25.5934C24.0208 25.0076 23.0711 25.0076 22.4853 25.5934L14 34.0787L5.51472 25.5934C4.92893 25.0076 3.97918 25.0076 3.3934 25.5934C2.80761 26.1792 2.80761 27.1289 3.3934 27.7147L12.9393 37.2607ZM12.5 17V36.2H15.5L15.5 17H12.5Z" fill="#403F3F"/>
</svg>
