<svg width="213" height="82" viewBox="0 0 213 82" fill="none" xmlns="http://www.w3.org/2000/svg">
<path d="M21.3583 43.004C21.3583 40.104 21.919 37.3587 23.0403 34.768C24.1616 32.1387 25.689 29.838 27.6223 27.866C29.5556 25.894 31.8176 24.3473 34.4083 23.226C36.999 22.066 39.783 21.486 42.7603 21.486C45.699 21.486 48.4636 22.066 51.0543 23.226C53.6836 24.3473 55.9843 25.894 57.9563 27.866C59.9283 29.838 61.475 32.1387 62.5963 34.768C63.7563 37.3587 64.3363 40.104 64.3363 43.004C64.3363 45.9813 63.8143 48.7653 62.7703 51.356C61.7263 53.9467 60.2763 56.3247 58.4203 58.49L65.6703 57.968V64H47.2843C46.511 64.1547 45.757 64.2707 45.0223 64.348C44.2876 64.4253 43.5336 64.464 42.7603 64.464C39.783 64.464 36.999 63.9033 34.4083 62.782C31.8176 61.6607 29.5556 60.1333 27.6223 58.2C25.689 56.228 24.1616 53.9467 23.0403 51.356C21.919 48.7653 21.3583 45.9813 21.3583 43.004ZM27.6803 43.062C27.6803 45.1887 28.067 47.1993 28.8403 49.094C29.6523 50.95 30.735 52.574 32.0883 53.966C33.4803 55.358 35.1043 56.46 36.9603 57.272C38.8163 58.084 40.8076 58.49 42.9343 58.49C45.0223 58.49 46.975 58.084 48.7923 57.272C50.6483 56.46 52.253 55.358 53.6063 53.966C54.9983 52.574 56.081 50.95 56.8543 49.094C57.6663 47.1993 58.0723 45.1693 58.0723 43.004C58.0723 40.8773 57.6663 38.886 56.8543 37.03C56.0423 35.1353 54.9403 33.492 53.5483 32.1C52.195 30.708 50.5903 29.606 48.7343 28.794C46.8783 27.982 44.9063 27.576 42.8183 27.576C40.7303 27.576 38.7583 27.982 36.9023 28.794C35.0463 29.606 33.4416 30.708 32.0883 32.1C30.735 33.492 29.6523 35.1353 28.8403 37.03C28.067 38.9247 27.6803 40.9353 27.6803 43.062Z" fill="#3C5C9B"/>
<path d="M23.0403 34.768L25.7935 35.9597L25.7967 35.9523L25.7998 35.9449L23.0403 34.768ZM27.6223 27.866L29.7645 29.9662L29.7645 29.9662L27.6223 27.866ZM34.4083 23.226L35.6 25.9792L35.6172 25.9717L35.6343 25.9641L34.4083 23.226ZM51.0543 23.226L49.8283 25.9641L49.8528 25.975L49.8774 25.9855L51.0543 23.226ZM62.5963 34.768L59.8368 35.9449L59.8473 35.9695L59.8582 35.994L62.5963 34.768ZM62.7703 51.356L65.5529 52.4773L65.5529 52.4773L62.7703 51.356ZM58.4203 58.49L56.1425 56.5376L51.4615 61.9988L58.6357 61.4823L58.4203 58.49ZM65.6703 57.968H68.6703V54.7442L65.4549 54.9757L65.6703 57.968ZM65.6703 64V67H68.6703V64H65.6703ZM47.2843 64V61H46.9872L46.6959 61.0583L47.2843 64ZM45.0223 64.348L44.7082 61.3645L44.7082 61.3645L45.0223 64.348ZM34.4083 62.782L35.6 60.0288L35.6 60.0288L34.4083 62.782ZM27.6223 58.2L25.4801 60.3002L25.4905 60.3108L25.501 60.3213L27.6223 58.2ZM23.0403 51.356L20.2871 52.5477L20.2871 52.5477L23.0403 51.356ZM28.8403 49.094L26.0628 50.2277L26.0769 50.2623L26.0918 50.2965L28.8403 49.094ZM32.0883 53.966L29.9373 56.0572L29.952 56.0724L29.967 56.0873L32.0883 53.966ZM36.9603 57.272L35.7578 60.0205L35.7578 60.0205L36.9603 57.272ZM48.7923 57.272L47.5898 54.5235L47.5791 54.5282L47.5685 54.533L48.7923 57.272ZM53.6063 53.966L51.485 51.8447L51.47 51.8596L51.4553 51.8748L53.6063 53.966ZM56.8543 49.094L54.0969 47.9122L54.0909 47.9262L54.0851 47.9402L56.8543 49.094ZM56.8543 37.03L54.0969 38.2118L54.1013 38.2221L54.1058 38.2325L56.8543 37.03ZM53.5483 32.1L51.3973 34.1912L51.412 34.2064L51.427 34.2213L53.5483 32.1ZM48.7343 28.794L49.9368 26.0455L49.9368 26.0455L48.7343 28.794ZM36.9023 28.794L35.6998 26.0455L35.6998 26.0455L36.9023 28.794ZM32.0883 32.1L29.9373 30.0088L29.9373 30.0088L32.0883 32.1ZM28.8403 37.03L26.0829 35.8482L26.0726 35.8722L26.0628 35.8963L28.8403 37.03ZM24.3583 43.004C24.3583 40.5024 24.8395 38.1638 25.7935 35.9597L20.2871 33.5763C18.9985 36.5536 18.3583 39.7056 18.3583 43.004H24.3583ZM25.7998 35.9449C26.7799 33.6468 28.1018 31.6622 29.7645 29.9662L25.4801 25.7658C23.2761 28.0138 21.5434 30.6305 20.2808 33.5911L25.7998 35.9449ZM29.7645 29.9662C31.4201 28.2775 33.3573 26.9499 35.6 25.9792L33.2166 20.4728C30.278 21.7448 27.6912 23.5105 25.4801 25.7658L29.7645 29.9662ZM35.6343 25.9641C37.8205 24.9852 40.1844 24.486 42.7603 24.486V18.486C39.3815 18.486 36.1774 19.1468 33.1823 20.4879L35.6343 25.9641ZM42.7603 24.486C45.2917 24.486 47.637 24.9829 49.8283 25.9641L52.2803 20.4879C49.2903 19.1491 46.1062 18.486 42.7603 18.486V24.486ZM49.8774 25.9855C52.1631 26.9603 54.141 28.2933 55.835 29.9873L60.0776 25.7447C57.8276 23.4947 55.2042 21.7344 52.2312 20.4665L49.8774 25.9855ZM55.835 29.9873C57.529 31.6813 58.862 33.6592 59.8368 35.9449L65.3558 33.5911C64.0879 30.6181 62.3276 27.9946 60.0776 25.7447L55.835 29.9873ZM59.8582 35.994C60.8418 38.1905 61.3363 40.5171 61.3363 43.004H67.3363C67.3363 39.6909 66.6708 36.5268 65.3344 33.542L59.8582 35.994ZM61.3363 43.004C61.3363 45.6227 60.8788 48.0234 59.9877 50.2347L65.5529 52.4773C66.7498 49.5072 67.3363 46.34 67.3363 43.004H61.3363ZM59.9877 50.2347C59.0683 52.5163 57.7907 54.6147 56.1425 56.5376L60.6981 60.4424C62.7619 58.0346 64.3843 55.377 65.5529 52.4773L59.9877 50.2347ZM58.6357 61.4823L65.8857 60.9603L65.4549 54.9757L58.2049 55.4977L58.6357 61.4823ZM62.6703 57.968V64H68.6703V57.968H62.6703ZM65.6703 61H47.2843V67H65.6703V61ZM46.6959 61.0583C46.0073 61.196 45.345 61.2975 44.7082 61.3645L45.3364 67.3315C46.169 67.2439 47.0146 67.1133 47.8726 66.9417L46.6959 61.0583ZM44.7082 61.3645C44.0826 61.4303 43.4336 61.464 42.7603 61.464V67.464C43.6337 67.464 44.4926 67.4203 45.3364 67.3315L44.7082 61.3645ZM42.7603 61.464C40.1701 61.464 37.7941 60.9785 35.6 60.0288L33.2166 65.5352C36.2039 66.8282 39.3959 67.464 42.7603 67.464V61.464ZM35.6 60.0288C33.3447 59.0527 31.4009 57.736 29.7436 56.0787L25.501 60.3213C27.7103 62.5307 30.2905 64.2686 33.2166 65.5352L35.6 60.0288ZM29.7645 56.0998C28.0946 54.3965 26.7719 52.4249 25.7935 50.1643L20.2871 52.5477C21.5513 55.4684 23.2833 58.0595 25.4801 60.3002L29.7645 56.0998ZM25.7935 50.1643C24.8438 47.9702 24.3583 45.5942 24.3583 43.004H18.3583C18.3583 46.3684 18.9941 49.5604 20.2871 52.5477L25.7935 50.1643ZM24.6803 43.062C24.6803 45.5619 25.1368 47.959 26.0628 50.2277L31.6178 47.9603C30.9972 46.4397 30.6803 44.8155 30.6803 43.062H24.6803ZM26.0918 50.2965C27.0417 52.4676 28.3223 54.3961 29.9373 56.0572L34.2393 51.8748C33.1476 50.7519 32.2629 49.4324 31.5888 47.8915L26.0918 50.2965ZM29.967 56.0873C31.6312 57.7516 33.5693 59.063 35.7578 60.0205L38.1628 54.5235C36.6393 53.857 35.3294 52.9644 34.2096 51.8447L29.967 56.0873ZM35.7578 60.0205C38.0118 61.0066 40.4148 61.49 42.9343 61.49V55.49C41.2005 55.49 39.6208 55.1614 38.1628 54.5235L35.7578 60.0205ZM42.9343 61.49C45.4229 61.49 47.7949 61.0035 50.0161 60.011L47.5685 54.533C46.155 55.1645 44.6216 55.49 42.9343 55.49V61.49ZM49.9948 60.0205C52.1907 59.0597 54.1216 57.7397 55.7573 56.0572L51.4553 51.8748C50.3844 52.9763 49.1059 53.8603 47.5898 54.5235L49.9948 60.0205ZM55.7276 56.0873C57.4027 54.4122 58.7028 52.4576 59.6235 50.2478L54.0851 47.9402C53.4592 49.4424 52.5939 50.7358 51.485 51.8447L55.7276 56.0873ZM59.6117 50.2758C60.5918 47.9889 61.0723 45.5547 61.0723 43.004H55.0723C55.0723 44.7839 54.7408 46.4097 54.0969 47.9122L59.6117 50.2758ZM61.0723 43.004C61.0723 40.4845 60.5889 38.0815 59.6028 35.8275L54.1058 38.2325C54.7437 39.6905 55.0723 41.2702 55.0723 43.004H61.0723ZM59.6117 35.8482C58.6566 33.6196 57.3441 31.6532 55.6696 29.9787L51.427 34.2213C52.5365 35.3308 53.428 36.6511 54.0969 38.2118L59.6117 35.8482ZM55.6993 30.0088C54.0636 28.3263 52.1327 27.0063 49.9368 26.0455L47.5318 31.5425C49.0479 32.2057 50.3264 33.0897 51.3973 34.1912L55.6993 30.0088ZM49.9368 26.0455C47.6898 25.0625 45.3072 24.576 42.8183 24.576V30.576C44.5054 30.576 46.0668 30.9015 47.5318 31.5425L49.9368 26.0455ZM42.8183 24.576C40.3294 24.576 37.9468 25.0625 35.6998 26.0455L38.1048 31.5425C39.5698 30.9015 41.1312 30.576 42.8183 30.576V24.576ZM35.6998 26.0455C33.5039 27.0063 31.573 28.3263 29.9373 30.0088L34.2393 34.1912C35.3102 33.0897 36.5887 32.2057 38.1048 31.5425L35.6998 26.0455ZM29.9373 30.0088C28.3123 31.6802 27.0306 33.6369 26.0829 35.8482L31.5977 38.2118C32.274 36.6338 33.1576 35.3038 34.2393 34.1912L29.9373 30.0088ZM26.0628 35.8963C25.1368 38.165 24.6803 40.5621 24.6803 43.062H30.6803C30.6803 41.3085 30.9972 39.6843 31.6178 38.1637L26.0628 35.8963Z" fill="#3C5C9B"/>
<path d="M87.016 49.2133L83.273 47.5223C83.0197 47.5856 82.7537 47.63 82.475 47.6553C82.209 47.6806 81.9367 47.6933 81.658 47.6933C80.9487 47.6933 80.2837 47.592 79.663 47.3893C79.0424 47.1866 78.4914 46.832 78.01 46.3253C77.5287 45.8186 77.1487 45.1156 76.87 44.2163C76.604 43.317 76.471 42.1706 76.471 40.7773C76.471 39.384 76.604 38.244 76.87 37.3573C77.1487 36.458 77.5287 35.7613 78.01 35.2673C78.504 34.7606 79.0677 34.4123 79.701 34.2223C80.3344 34.0196 81.0057 33.9183 81.715 33.9183C82.437 33.9183 83.1084 34.0196 83.729 34.2223C84.3624 34.425 84.9197 34.7733 85.401 35.2673C85.8824 35.7613 86.2624 36.458 86.541 37.3573C86.8197 38.2566 86.959 39.403 86.959 40.7963C86.959 42.3036 86.788 43.5006 86.446 44.3873C86.1167 45.274 85.686 45.977 85.154 46.4963L85.135 46.5913L87.719 47.3323L87.016 49.2133ZM81.715 45.7173C82.2217 45.7173 82.6587 45.6603 83.026 45.5463C83.3934 45.4323 83.691 45.2106 83.919 44.8813C84.1597 44.5393 84.337 44.0453 84.451 43.3993C84.565 42.7533 84.622 41.8983 84.622 40.8343C84.622 39.7703 84.565 38.9153 84.451 38.2693C84.3497 37.6106 84.1787 37.1103 83.938 36.7683C83.71 36.4263 83.4124 36.1983 83.045 36.0843C82.6777 35.9576 82.2344 35.8943 81.715 35.8943C81.1957 35.8943 80.7524 35.9576 80.385 36.0843C80.0177 36.1983 79.7137 36.4263 79.473 36.7683C79.245 37.1103 79.074 37.6106 78.96 38.2693C78.846 38.9153 78.789 39.7703 78.789 40.8343C78.789 41.8983 78.846 42.7533 78.96 43.3993C79.074 44.0453 79.2514 44.5393 79.492 44.8813C79.7327 45.2106 80.0367 45.4323 80.404 45.5463C80.7714 45.6603 81.2084 45.7173 81.715 45.7173ZM94.6242 47.6933C92.6735 47.6933 91.6982 46.3443 91.6982 43.6463V36.3313H93.9022V43.2093C93.9022 44.4253 93.9845 45.1536 94.1492 45.3943C94.2379 45.5083 94.3645 45.5906 94.5292 45.6413C94.6939 45.692 94.8902 45.7173 95.1182 45.7173C95.5995 45.7173 96.0935 45.6223 96.6002 45.4323C97.1069 45.2296 97.5629 45.0206 97.9682 44.8053V36.3313H100.153V47.4463H98.7282L98.4622 46.3443H98.3482C98.0822 46.4836 97.7529 46.661 97.3602 46.8763C96.9802 47.0916 96.5559 47.2816 96.0872 47.4463C95.6185 47.611 95.1309 47.6933 94.6242 47.6933ZM105.345 34.6213V32.7973H107.796V34.6213H105.345ZM105.459 47.4463V36.3313H107.663V47.4463H105.459ZM117.044 47.6933C116.132 47.6933 115.322 47.497 114.612 47.1043C113.916 46.7116 113.365 46.0846 112.959 45.2233C112.567 44.362 112.37 43.241 112.37 41.8603C112.37 40.7203 112.503 39.7766 112.769 39.0293C113.035 38.282 113.403 37.693 113.871 37.2623C114.34 36.8316 114.885 36.5276 115.505 36.3503C116.126 36.173 116.791 36.0843 117.5 36.0843C118.083 36.0843 118.64 36.1286 119.172 36.2173C119.704 36.2933 120.122 36.3693 120.426 36.4453L120.179 38.1743C119.875 38.1363 119.445 38.0856 118.887 38.0223C118.343 37.9463 117.792 37.9083 117.234 37.9083C116.728 37.9083 116.335 37.9463 116.056 38.0223C115.79 38.0983 115.581 38.2123 115.429 38.3643C115.189 38.6176 114.992 39.0546 114.84 39.6753C114.701 40.296 114.631 41.0433 114.631 41.9173C114.631 42.7406 114.688 43.4056 114.802 43.9123C114.929 44.4063 115.075 44.7863 115.239 45.0523C115.404 45.3056 115.562 45.483 115.714 45.5843C115.803 45.6603 115.93 45.73 116.094 45.7933C116.259 45.8566 116.493 45.8883 116.797 45.8883C117.127 45.8883 117.481 45.844 117.861 45.7553C118.241 45.6666 118.596 45.5653 118.925 45.4513C119.267 45.3246 119.54 45.217 119.742 45.1283C119.958 45.0396 120.065 44.9953 120.065 44.9953L120.692 46.6103C120.692 46.6103 120.54 46.7053 120.236 46.8953C119.945 47.0726 119.521 47.25 118.963 47.4273C118.419 47.6046 117.779 47.6933 117.044 47.6933ZM124.688 47.4463L124.764 41.3473L124.688 33.0633H126.873V41.4613L130.939 36.3313H133.656L129.21 41.3663V41.4613L134.055 47.4463H131.3L126.873 41.5183V47.4463H124.688ZM143.796 47.4463L143.872 41.2713L143.796 34.1843C143.796 34.1843 143.942 34.1716 144.233 34.1463C144.525 34.121 144.905 34.0893 145.373 34.0513C145.855 34.0133 146.368 33.9816 146.912 33.9563C147.47 33.931 148.008 33.9183 148.527 33.9183C149.769 33.9183 150.731 34.2983 151.415 35.0583C152.099 35.8183 152.441 36.9583 152.441 38.4783C152.441 39.4283 152.315 40.2136 152.061 40.8343C151.821 41.4423 151.491 41.9236 151.073 42.2783C150.668 42.6203 150.212 42.8673 149.705 43.0193C149.199 43.1586 148.673 43.2283 148.128 43.2283C147.685 43.2283 147.254 43.2156 146.836 43.1903C146.418 43.165 146.146 43.146 146.019 43.1333V47.4463H143.796ZM148.223 41.4043C148.933 41.4043 149.401 41.2966 149.629 41.0813C149.807 40.904 149.933 40.5873 150.009 40.1313C150.085 39.6753 150.123 39.0673 150.123 38.3073C150.123 37.6866 150.092 37.218 150.028 36.9013C149.965 36.5846 149.889 36.363 149.8 36.2363C149.724 36.097 149.648 35.9956 149.572 35.9323C149.471 35.8563 149.287 35.793 149.021 35.7423C148.768 35.679 148.458 35.6473 148.09 35.6473C147.685 35.6473 147.292 35.6663 146.912 35.7043C146.545 35.7423 146.247 35.7803 146.019 35.8183V41.2143C146.121 41.2396 146.38 41.2776 146.798 41.3283C147.229 41.379 147.704 41.4043 148.223 41.4043ZM156.975 47.4653L157.051 41.3473L156.975 34.1653H159.217L159.141 40.0553L159.217 47.4463L156.975 47.4653ZM168.976 47.7123C168.001 47.7123 167.139 47.4906 166.392 47.0473C165.645 46.604 165.056 45.8883 164.625 44.9003C164.207 43.8996 163.998 42.5823 163.998 40.9483C163.998 39.4916 164.131 38.3073 164.397 37.3953C164.663 36.4706 165.03 35.755 165.499 35.2483C165.98 34.7416 166.538 34.3933 167.171 34.2033C167.817 34.0133 168.514 33.9183 169.261 33.9183C169.565 33.9183 169.939 33.9373 170.382 33.9753C170.838 34.0133 171.281 34.064 171.712 34.1273C172.155 34.178 172.504 34.235 172.757 34.2983L172.51 36.1413C172.383 36.1286 172.174 36.1096 171.883 36.0843C171.604 36.0463 171.3 36.0146 170.971 35.9893C170.642 35.964 170.331 35.945 170.04 35.9323C169.749 35.907 169.521 35.8943 169.356 35.8943C168.786 35.8943 168.33 35.926 167.988 35.9893C167.646 36.0526 167.399 36.1666 167.247 36.3313C167.07 36.496 166.911 36.7556 166.772 37.1103C166.633 37.465 166.519 37.959 166.43 38.5923C166.354 39.213 166.316 40.0173 166.316 41.0053C166.316 42.2466 166.43 43.2346 166.658 43.9693C166.899 44.6913 167.139 45.16 167.38 45.3753C167.684 45.654 168.159 45.7933 168.805 45.7933C169.261 45.7933 169.711 45.7426 170.154 45.6413C170.597 45.5273 171.003 45.407 171.37 45.2803C171.75 45.141 172.048 45.0206 172.263 44.9193C172.491 44.818 172.605 44.7673 172.605 44.7673L173.308 46.4773C173.308 46.4773 173.2 46.5406 172.985 46.6673C172.77 46.7813 172.472 46.9206 172.092 47.0853C171.712 47.25 171.256 47.3956 170.724 47.5223C170.192 47.649 169.609 47.7123 168.976 47.7123ZM185.195 47.4463L180.084 40.5683L184.834 34.1653H187.513L182.554 40.4353V40.5493L187.931 47.4463H185.195ZM177.804 47.4463L177.861 40.7013L177.804 34.1653H180.027V47.4463H177.804Z" fill="url(#paint0_linear)"/>
<defs>
<linearGradient id="paint0_linear" x1="131.5" y1="29.4463" x2="131.5" y2="53.8155" gradientUnits="userSpaceOnUse">
<stop stop-color="#DFC1FE"/>
<stop offset="1" stop-opacity="0.95"/>
</linearGradient>
</defs>
</svg>
