<svg width="98" height="71" viewBox="0 0 98 71" fill="none" xmlns="http://www.w3.org/2000/svg">
<path d="M2.3583 43.004C2.3583 40.104 2.91896 37.3587 4.0403 34.768C5.16163 32.1387 6.68896 29.838 8.6223 27.866C10.5556 25.894 12.8176 24.3473 15.4083 23.226C17.999 22.066 20.783 21.486 23.7603 21.486C26.699 21.486 29.4636 22.066 32.0543 23.226C34.6836 24.3473 36.9843 25.894 38.9563 27.866C40.9283 29.838 42.475 32.1387 43.5963 34.768C44.7563 37.3587 45.3363 40.104 45.3363 43.004C45.3363 45.9813 44.8143 48.7653 43.7703 51.356C42.7263 53.9467 41.2763 56.3247 39.4203 58.49L46.6703 57.968V64H28.2843C27.511 64.1547 26.757 64.2707 26.0223 64.348C25.2876 64.4253 24.5336 64.464 23.7603 64.464C20.783 64.464 17.999 63.9033 15.4083 62.782C12.8176 61.6607 10.5556 60.1333 8.6223 58.2C6.68896 56.228 5.16163 53.9467 4.0403 51.356C2.91896 48.7653 2.3583 45.9813 2.3583 43.004ZM8.6803 43.062C8.6803 45.1887 9.06696 47.1993 9.8403 49.094C10.6523 50.95 11.735 52.574 13.0883 53.966C14.4803 55.358 16.1043 56.46 17.9603 57.272C19.8163 58.084 21.8076 58.49 23.9343 58.49C26.0223 58.49 27.975 58.084 29.7923 57.272C31.6483 56.46 33.253 55.358 34.6063 53.966C35.9983 52.574 37.081 50.95 37.8543 49.094C38.6663 47.1993 39.0723 45.1693 39.0723 43.004C39.0723 40.8773 38.6663 38.886 37.8543 37.03C37.0423 35.1353 35.9403 33.492 34.5483 32.1C33.195 30.708 31.5903 29.606 29.7343 28.794C27.8783 27.982 25.9063 27.576 23.8183 27.576C21.7303 27.576 19.7583 27.982 17.9023 28.794C16.0463 29.606 14.4416 30.708 13.0883 32.1C11.735 33.492 10.6523 35.1353 9.8403 37.03C9.06696 38.9247 8.6803 40.9353 8.6803 43.062Z" fill="#3C5C9B"/>
<path d="M53.6968 64L53.7728 57.825L53.6968 50.738C53.6968 50.738 53.8424 50.7253 54.1338 50.7C54.4251 50.6747 54.8051 50.643 55.2738 50.605C55.7551 50.567 56.2681 50.5353 56.8128 50.51C57.3701 50.4847 57.9084 50.472 58.4278 50.472C59.6691 50.472 60.6318 50.852 61.3158 51.612C61.9998 52.372 62.3418 53.512 62.3418 55.032C62.3418 55.982 62.2151 56.7673 61.9618 57.388C61.7211 57.996 61.3918 58.4773 60.9738 58.832C60.5684 59.174 60.1124 59.421 59.6058 59.573C59.0991 59.7123 58.5734 59.782 58.0288 59.782C57.5854 59.782 57.1548 59.7693 56.7368 59.744C56.3188 59.7187 56.0464 59.6997 55.9198 59.687V64H53.6968ZM58.1238 57.958C58.8331 57.958 59.3018 57.8503 59.5298 57.635C59.7071 57.4577 59.8338 57.141 59.9098 56.685C59.9858 56.229 60.0238 55.621 60.0238 54.861C60.0238 54.2403 59.9921 53.7717 59.9288 53.455C59.8654 53.1383 59.7894 52.9167 59.7008 52.79C59.6248 52.6507 59.5488 52.5493 59.4728 52.486C59.3714 52.41 59.1878 52.3467 58.9218 52.296C58.6684 52.2327 58.3581 52.201 57.9908 52.201C57.5854 52.201 57.1928 52.22 56.8128 52.258C56.4454 52.296 56.1478 52.334 55.9198 52.372V57.768C56.0211 57.7933 56.2808 57.8313 56.6988 57.882C57.1294 57.9327 57.6044 57.958 58.1238 57.958ZM66.8758 64.019L66.9518 57.901L66.8758 50.719H69.1178L69.0418 56.609L69.1178 64L66.8758 64.019ZM78.8765 64.266C77.9012 64.266 77.0399 64.0443 76.2925 63.601C75.5452 63.1577 74.9562 62.442 74.5255 61.454C74.1075 60.4533 73.8985 59.136 73.8985 57.502C73.8985 56.0453 74.0315 54.861 74.2975 53.949C74.5635 53.0243 74.9309 52.3087 75.3995 51.802C75.8809 51.2953 76.4382 50.947 77.0715 50.757C77.7175 50.567 78.4142 50.472 79.1615 50.472C79.4655 50.472 79.8392 50.491 80.2825 50.529C80.7385 50.567 81.1819 50.6177 81.6125 50.681C82.0559 50.7317 82.4042 50.7887 82.6575 50.852L82.4105 52.695C82.2839 52.6823 82.0749 52.6633 81.7835 52.638C81.5049 52.6 81.2009 52.5683 80.8715 52.543C80.5422 52.5177 80.2319 52.4987 79.9405 52.486C79.6492 52.4607 79.4212 52.448 79.2565 52.448C78.6865 52.448 78.2305 52.4797 77.8885 52.543C77.5465 52.6063 77.2995 52.7203 77.1475 52.885C76.9702 53.0497 76.8119 53.3093 76.6725 53.664C76.5332 54.0187 76.4192 54.5127 76.3305 55.146C76.2545 55.7667 76.2165 56.571 76.2165 57.559C76.2165 58.8003 76.3305 59.7883 76.5585 60.523C76.7992 61.245 77.0399 61.7137 77.2805 61.929C77.5845 62.2077 78.0595 62.347 78.7055 62.347C79.1615 62.347 79.6112 62.2963 80.0545 62.195C80.4979 62.081 80.9032 61.9607 81.2705 61.834C81.6505 61.6947 81.9482 61.5743 82.1635 61.473C82.3915 61.3717 82.5055 61.321 82.5055 61.321L83.2085 63.031C83.2085 63.031 83.1009 63.0943 82.8855 63.221C82.6702 63.335 82.3725 63.4743 81.9925 63.639C81.6125 63.8037 81.1565 63.9493 80.6245 64.076C80.0925 64.2027 79.5099 64.266 78.8765 64.266ZM95.0956 64L89.9846 57.122L94.7346 50.719H97.4136L92.4546 56.989V57.103L97.8316 64H95.0956ZM87.7046 64L87.7616 57.255L87.7046 50.719H89.9276V64H87.7046Z" fill="url(#paint0_linear)"/>
<defs>
<linearGradient id="paint0_linear" x1="71.5" y1="46" x2="71.5" y2="65.5862" gradientUnits="userSpaceOnUse">
<stop stop-color="white"/>
<stop offset="1" stop-color="#BD70BE" stop-opacity="0.95"/>
</linearGradient>
</defs>
</svg>
