<svg width="120" height="120" viewBox="0 0 120 120" fill="none" xmlns="http://www.w3.org/2000/svg">
<path d="M120 60C120 61.9891 119.21 63.8968 117.803 65.3033C116.397 66.7098 114.489 67.5 112.5 67.5H67.5V112.5C67.5 114.489 66.7098 116.397 65.3033 117.803C63.8968 119.21 61.9891 120 60 120C58.0109 120 56.1032 119.21 54.6967 117.803C53.2902 116.397 52.5 114.489 52.5 112.5V67.5H7.5C5.51088 67.5 3.60322 66.7098 2.1967 65.3033C0.790178 63.8968 0 61.9891 0 60C0 58.0109 0.790178 56.1032 2.1967 54.6967C3.60322 53.2902 5.51088 52.5 7.5 52.5H52.5V7.5C52.5 5.51088 53.2902 3.60322 54.6967 2.1967C56.1032 0.790176 58.0109 0 60 0C61.9891 0 63.8968 0.790176 65.3033 2.1967C66.7098 3.60322 67.5 5.51088 67.5 7.5V52.5H112.5C114.489 52.5 116.397 53.2902 117.803 54.6967C119.21 56.1032 120 58.0109 120 60V60Z" fill="#EBEAEA"/>
</svg>
