<svg width="255" height="49" viewBox="0 0 255 49" fill="none" xmlns="http://www.w3.org/2000/svg">
<path fill-rule="evenodd" clip-rule="evenodd" d="M32.8736 21.4107C33.3017 21.4107 33.6467 20.9687 33.6467 20.4253C33.6494 20.294 33.6315 20.1632 33.5938 20.0408C33.5562 19.9184 33.4996 19.8068 33.4275 19.7126C33.3553 19.6184 33.2691 19.5436 33.1738 19.4925C33.0785 19.4414 32.9762 19.415 32.8728 19.415C32.7693 19.415 32.667 19.4414 32.5717 19.4925C32.4764 19.5436 32.3902 19.6184 32.318 19.7126C32.2459 19.8068 32.1893 19.9184 32.1517 20.0408C32.114 20.1632 32.0961 20.294 32.0988 20.4253C32.0988 20.9687 32.4433 21.4107 32.8736 21.4107ZM42.2315 41.6036C43.3812 41.6036 44.1548 41.4065 44.7778 41.1144C45.3975 40.8216 45.8738 40.469 46.2205 40.1079C46.5494 39.7658 46.7582 39.4188 47.1093 39.1908C47.4189 38.9874 47.8547 38.9395 48.3437 38.9395C49.0459 38.9395 49.8362 39.2154 50.4138 39.6194L50.4968 38.2532C50.112 38.0118 48.7552 37.4072 47.5767 37.4072C46.2376 37.4072 45.7315 37.8661 45.2369 38.4334C44.6616 39.0965 43.9344 39.8848 41.9685 39.8848C41.4446 39.8848 40.1875 39.7046 39.6769 39.7046C39.3668 39.7046 39.1286 39.8031 39.1286 39.8031C39.2222 40.1769 39.4227 41.2066 39.4227 41.2066C39.8934 41.2812 40.7147 41.6036 42.2315 41.6036V41.6036ZM36.1875 37.5522C36.5856 37.5522 37.7436 37.7767 39.081 37.94C39.8408 38.0308 40.6538 38.1026 41.4213 38.1026C42.9238 38.1026 44.5691 37.1946 46.0239 36.2466L45.7392 34.9311C45.0597 35.404 43.7666 35.9298 42.689 36.148C42.4237 36.2029 41.6534 36.2163 41.4341 36.1719C41.0708 36.1002 40.6349 35.934 40.1664 35.8256C39.5085 35.6687 38.7897 35.6314 38.3639 35.6075C37.8937 35.5807 37.0508 35.6821 36.6366 35.7166C35.1148 35.832 34.1091 36.2874 33.1466 37.113C32.6604 37.5311 32.0396 38.2138 31.5605 39.0401C31.807 39.0634 32.5097 39.3125 32.5097 39.3125C33.5475 38.1906 35.107 37.5522 36.1875 37.5522V37.5522Z" fill="#AEAEAE"/>
<path fill-rule="evenodd" clip-rule="evenodd" d="M17.7438 38.0196C18.4876 38.0196 18.7861 38.3222 19.1964 38.6318C19.4837 38.8542 19.7094 39.0997 19.924 39.343C20.3832 39.8576 20.252 40.3297 19.8918 40.686C19.7067 40.8708 19.5482 41.0932 19.0813 41.4739C18.8562 41.6601 18.467 41.9592 18.2013 42.1C17.7338 42.3427 17.5304 42.3699 17.3608 42.3699C17.1891 42.3699 16.9156 42.3364 16.7622 42.1447L15.5731 43.0567C15.93 43.406 16.3352 43.5246 17.0173 43.5246C17.7878 43.5246 18.4026 43.3161 19.1619 42.943C20.1464 42.4543 21.2531 41.4941 21.6205 41.2312C22.3727 40.6923 23.132 40.3422 23.9452 40.3422C24.6618 40.3422 25.4695 40.8742 26.3744 41.4167C27.4428 42.0596 28.7475 42.6892 29.9471 42.6892C30.6664 42.6892 31.4718 42.5575 32.3151 42.342C33.8127 41.9585 35.423 41.3254 36.999 40.6553L36.487 39.5013C36.1029 39.6791 34.7871 40.1435 33.3724 40.5382C32.1995 40.861 31.0099 41.1532 30.3929 41.1532C29.8887 41.1532 29.295 41.1071 28.7636 40.9014C27.8614 40.5612 27.0509 40.2042 27.0509 39.2949C27.0509 38.666 27.2655 38.2211 27.8725 37.915C28.8548 37.42 30.3851 37.4506 31.19 37.4506C31.3407 37.2484 31.9499 36.3294 31.9499 36.3294C31.3048 36.1665 30.6485 36.0831 29.9904 36.0805C28.9815 36.0805 28.0493 36.2423 27.2766 36.6495C26.5601 37.0274 25.9964 37.5727 25.5884 38.3097C25.4244 38.6025 25.2554 38.8814 25.0092 38.8814C24.6006 38.8814 23.8919 38.4638 23.1514 38.4638C22.829 38.4638 22.5555 38.5474 22.2709 38.5474C21.5216 38.5474 20.5449 37.8641 19.675 37.2819C19.1274 36.9151 18.5638 36.5714 17.9089 36.5714C17.6377 36.5714 17.2652 36.6557 16.9345 36.8308C16.2986 37.1641 15.6537 37.703 15.3291 38.0426L15.9117 38.5447C16.2513 38.3222 16.8694 38.0196 17.7438 38.0196V38.0196ZM70.3345 48.501C67.5346 45.539 64.8258 42.2981 62.9158 39.6484C59.6172 35.0799 55.1234 26.3619 53.5886 21.4287C53.0216 19.6137 51.8515 20.2301 52.4508 22.0758C53.8999 26.5341 57.2419 33.0899 60.7311 38.4944C59.9179 38.0426 58.9095 37.436 58.3642 37.1341C58.1785 37.5148 57.7194 38.2685 57.2469 38.8877C56.6999 39.6017 56.1362 40.1805 55.9617 40.3827C55.5776 40.831 55.2963 40.8645 55.0378 40.3666C54.9205 40.1302 54.6709 39.707 54.5414 38.9721L53.7999 37.7944C53.4024 37.1682 51.5408 33.9733 50.9705 32.8988C50.4018 31.8285 49.6641 30.6829 48.469 30.6829C46.9903 30.6829 46.48 32.7371 46.365 34.612L47.3467 34.0765C47.5757 32.9149 48.0298 32.3089 48.4695 32.3089C48.7831 32.3089 49.1677 32.8814 49.1677 33.3088C49.0254 33.8109 48.7669 34.8477 48.6413 35.6489L49.6085 36.0603C49.6085 35.4704 49.8059 34.3994 50.0777 33.8443C50.0777 33.8443 50.3456 34.1302 50.4457 34.3631C50.5096 34.5137 50.9877 35.4299 51.5413 36.6488C52.0355 37.7365 52.5847 39.0802 53.0895 40.1505C53.3335 40.6658 53.6137 41.1273 53.8004 41.4906C54.05 41.9697 54.274 42.305 54.5114 42.4745C54.7338 42.6286 54.9739 42.6328 55.1673 42.6328C55.7927 42.6328 56.0795 42.3727 56.5037 41.9195C57.2986 41.0597 57.9834 39.8653 58.6916 38.7943L60.3615 39.7398C61.0072 40.1251 61.6588 40.4944 62.316 40.8477C63.7396 42.8754 65.3333 44.8619 67.0054 46.7509L68.141 48.0066C68.4506 48.3427 68.7608 48.6725 69.076 48.9996L70.3345 48.501V48.501Z" fill="#AEAEAE"/>
<path fill-rule="evenodd" clip-rule="evenodd" d="M76.6472 47.8498C73.7932 39.9037 70.0327 30.1316 66.8159 24.1456L66.0648 22.8029C64.9909 20.9606 63.8287 19.4331 62.6899 17.9514L61.8057 16.8444C59.5768 14.0976 57.0756 11.3515 55.1695 9.39499C53.4882 7.67199 52.2927 3.69824 48.4413 3.69824C44.9699 3.69824 43.7828 6.69972 43.3944 8.4587C43.1365 9.61301 43.025 10.0117 42.7831 10.4449L40.5781 13.7843L43.1792 13.5183L41.8612 16.3018C42.6167 16.1014 47.1782 14.9358 48.1162 16.8098C49.2551 19.0761 48.4779 21.5357 50.6069 26.6912L51.5278 28.7289C52.5873 30.8964 53.8421 33.0251 54.9571 34.7051L53.8909 37.6318L54.6309 38.8235L56.2884 34.3777C55.4425 33.4167 52.9101 29.0859 51.8634 26.6771C49.4842 21.1984 50.4189 18.3804 48.9672 15.8693C47.6225 13.5388 43.7767 14.6395 43.7767 14.6395L45.1951 12.1086L42.7399 12.4896L43.8754 10.7525C44.1173 10.3031 44.1733 10.0307 44.272 9.59678C44.7541 7.37283 46.0183 5.16794 48.4186 5.16794C51.3331 5.16794 52.1663 8.01349 54.1921 10.2791C56.2429 12.5757 60.5431 16.9911 64.4772 22.7013C67.6497 27.3044 71.7158 38.0064 74.8394 46.4535C71.4245 44.3368 65.641 37.0595 63.2185 31.6076L62.0753 31.4376C64.6764 37.7136 70.2585 45.0212 75.7797 48.9998L76.6472 47.8498Z" fill="#AEAEAE"/>
<path fill-rule="evenodd" clip-rule="evenodd" d="M68.8585 21.2027C69.7727 20.3705 70.8551 19.6921 71.9954 19.1437C72.6973 20.2208 74.3518 21.1646 75.6643 21.3863L75.4543 23.146C73.9986 22.215 71.4255 21.267 68.8585 21.2027L67.7076 22.4564C71.1904 22.5383 73.4076 23.4319 76.2782 24.9623L76.8481 20.3161C75.71 20.1185 73.9156 19.7063 73.2945 18.5881C75.92 17.5752 78.6446 17.1933 80.2534 17.2215V11.4975C79.5354 12.0298 78.6312 12.5274 77.7784 12.862C76.735 13.2672 75.7863 13.4451 75.525 12.862C75.2364 12.2211 76.6759 11.079 78.1594 10.0801L74.8203 6.56554C74.3145 7.42813 73.1653 9.84154 71.9937 11.4361C71.1615 12.5684 70.3041 13.311 69.8145 12.8479C69.5577 12.6023 69.5476 11.8935 69.7599 11.0006C70.166 9.28531 71.2339 6.90295 71.8845 5.8533L67.2692 5.3006C67.2692 7.69072 66.3835 10.3222 65.2933 12.4491C64.3529 14.2794 62.9887 15.61 61.8963 16.4274L62.7842 17.535C64.1346 16.3455 65.4498 14.89 66.467 12.8168C67.2854 11.1502 68.0458 9.13566 68.331 6.7766L69.9292 7.01166C69.2646 8.55542 68.5137 10.9526 68.4569 12.5204C68.497 13.587 68.6591 13.7775 69.0925 14.1834C69.8941 14.9437 70.8868 14.4326 71.8333 13.4063C72.8767 12.2775 73.9028 10.3858 74.944 8.67401L76.2932 10.0999C74.583 11.4354 74.0989 12.8641 74.6209 13.8114C74.8242 14.1792 75.2637 14.4559 75.8091 14.4764C76.35 14.4933 76.9907 14.2914 77.6903 14.0804C78.1822 13.93 78.7154 13.7126 79.2072 13.5213V15.7985C75.3206 16.15 68.687 18.1434 66.174 22.3872L66.9283 23.7305C67.1461 23.2773 67.409 22.8538 67.7082 22.455L68.8585 21.2027V21.2027ZM18.0342 10.0152L18.5562 10.5121C19.9232 9.10107 21.5209 6.53448 22.4222 4.11754L21.9565 3.69824C21.0847 4.71118 19.0052 8.01331 18.0342 10.0152Z" fill="#AEAEAE"/>
<path fill-rule="evenodd" clip-rule="evenodd" d="M17.5856 8.93138C16.8172 5.47062 18.7879 3.39858 20.8458 3.59096C21.6176 1.69492 22.8277 1.31657 24.1144 2.30057C25.3117 3.21973 25.2117 5.55541 24.2138 6.64985C24.5701 8.73115 23.122 11.6974 20.8732 11.5499C21.1401 14.4228 18.378 16.0574 16.7038 14.1813C15.3121 12.6237 15.6031 10.0294 17.5856 8.93138V8.93138ZM16.6334 8.40197C15.9192 8.60147 15.5467 9.05892 15.2284 10.0472C15.4417 7.79988 14.2712 5.6459 12.3429 5.8112C12.5316 1.7961 9.41439 -0.595152 6.65789 1.35932C5.02946 -0.41987 3.20892 -0.0586167 2.11381 1.59659C1.06728 3.17912 1.10246 5.84897 3.2173 7.27403C2.68287 10.0472 4.67373 12.8033 7.01418 12.1627C7.14877 13.0163 7.63964 13.4738 8.28688 13.8143C7.31351 13.887 6.91422 15.1218 6.91422 15.1218C3.81037 14.1072 2.20874 16.7393 2.15681 19.5018C-0.108253 20.3796 -0.742091 23.9921 0.992446 26.1019C2.78562 28.2901 4.92447 27.3923 5.85708 25.155C7.85799 26.1254 9.99964 24.5493 10.0555 21.7284C12.2859 21.9963 13.1409 19.7533 12.9332 17.3898L12.2262 17.3171C11.9218 19.5124 11.1042 20.4587 9.23792 20.4587C9.15694 22.5678 7.39057 24.3983 5.38966 23.9137C4.82842 25.5996 3.181 26.1497 2.05629 24.7396C0.934368 23.3288 1.30629 20.676 3.28599 20.1972C3.20501 17.61 5.17857 16.0068 7.99705 16.1785C8.79786 14.9124 9.4451 14.3751 10.6452 14.5233L10.6564 13.7873C9.53166 13.5942 8.26398 12.2347 8.17017 10.7733C5.76996 11.017 4.12701 9.26199 4.20854 6.50948C2.66611 5.58747 2.94366 3.56745 3.44291 2.80077C4.30292 1.47617 5.50526 1.58234 6.47696 2.65256C9.21949 1.31443 11.4276 4.07691 11.4276 7.09447C11.4276 7.09447 12.7092 7.06312 13.4291 8.02005C14.3812 9.28978 14.3812 10.3942 14.6074 11.6255C14.8207 12.7883 15.2792 14.3338 16.3983 15.4482C18.3775 17.4169 21.4445 16.8832 21.7572 12.7306C24.3914 13.0291 26.1231 10.3906 25.2547 7.16359C27.0993 5.48416 26.7324 2.02268 24.9984 0.683838C24.6091 0.355835 24.1689 0.139039 23.7078 0.0482924C23.2467 -0.0424538 22.7758 -0.00500553 22.3271 0.158071C21.8784 0.321147 21.4627 0.606 21.1083 0.993129C20.7539 1.38026 20.4693 1.86052 20.2739 2.40104C17.5744 1.60941 15.3741 5.04381 16.6334 8.40197V8.40197ZM28.812 28.5203C29.0494 27.309 27.7979 27.1294 27.6253 28.2452C27.4422 29.4394 26.3041 31.4765 25.2257 32.7527L25.611 33.2828C27.0267 31.9333 28.5077 30.0657 28.812 28.5203ZM35.0979 8.51169C35.3037 8.50185 35.4984 8.39065 35.6413 8.20144C35.7841 8.01223 35.8639 7.75976 35.8639 7.49705C35.8639 7.23435 35.7841 6.98187 35.6413 6.79266C35.4984 6.60346 35.3037 6.49225 35.0979 6.48241C34.6584 6.48241 34.3055 6.93985 34.3055 7.49705C34.3055 8.05781 34.6584 8.51169 35.0979 8.51169ZM46.8074 9.43727C46.8134 9.12326 46.9154 8.82467 47.0916 8.60528C47.2678 8.3859 47.5042 8.26309 47.7504 8.26309C47.9966 8.26309 48.233 8.3859 48.4092 8.60528C48.5854 8.82467 48.6873 9.12326 48.6933 9.43727C48.6937 9.59559 48.6696 9.75244 48.6224 9.89885C48.5752 10.0453 48.5058 10.1784 48.4183 10.2906C48.3307 10.4027 48.2267 10.4918 48.1121 10.5526C47.9976 10.6134 47.8747 10.6448 47.7507 10.645C47.2313 10.645 46.8074 10.1049 46.8074 9.43727ZM45.313 31.0832C39.1757 30.4818 33.0652 30.9735 33.0652 30.9735L33.4957 29.5385C39.3639 28.9948 45.3996 29.5385 45.3996 29.5385L45.313 31.0832V31.0832Z" fill="#AEAEAE"/>
<path fill-rule="evenodd" clip-rule="evenodd" d="M8.32693 36.3688C8.32693 36.3688 8.66914 36.9562 9.2025 37.6856C9.38322 38.0132 9.58151 38.2476 9.83309 38.552C10.9399 39.9394 12.568 40.9795 14.2472 41.3954C14.7245 41.5126 15.1491 41.6037 15.6215 41.6037C16.3378 41.6037 16.9975 41.1094 17.4194 40.6243L16.7619 39.6386C16.5498 39.7198 16.1093 39.7198 15.8176 39.7198C13.3826 39.7198 10.2928 37.6715 9.58151 35.2976C9.50955 35.066 9.42496 34.9368 9.49692 34.7179C9.56558 34.4998 9.65622 34.0401 9.7062 33.6171C9.84957 33.8283 10.1434 34.1453 10.5175 34.4553C11.4249 35.2023 13.1492 36.2353 13.4859 36.5121C14.1923 36.2523 14.8766 35.9015 15.5282 35.465C16.0346 35.1275 16.7273 34.8238 17.5281 34.8238C19.3078 34.8238 21.3529 36.1259 23.2737 37.3431L24.5866 36.6816C22.881 35.1373 19.1733 32.9788 17.1096 32.9788C15.8945 32.9788 14.7509 34.1248 13.9374 34.1248C12.9371 34.1248 10.0726 32.3278 10.0726 30.8309C10.0726 29.6786 11.9264 29.0234 14.9075 28.5524C14.3875 29.5384 13.9 30.552 13.4463 31.5907L14.2049 32.133C18.8734 23.4276 23.7275 17.7754 27.8126 14.3347C29.2978 13.0828 29.6351 12.3506 30.152 10.9829C31.4176 7.65514 32.6112 5.09417 34.6881 5.09417C35.6559 5.09417 36.4491 5.79673 36.9934 6.66309L38.4947 7.24278L36.9742 8.56881L38.5293 9.36669C36.4996 10.0996 33.7279 12.6401 32.6035 16.3668C30.4415 16.5137 29.3989 18.7675 28.6936 20.6563C28.2157 21.9286 27.4577 22.4363 26.3514 23.4015L17.5106 31.3358L18.7278 31.554L26.8947 24.5094C28.508 23.112 29.2715 22.0819 29.6593 21.0856C30.4151 19.1354 31.2325 17.6865 32.8347 17.6865C33.6224 17.6865 34.4628 18.1193 35.1368 18.9412L36.5716 19.5414L35.0066 20.7721L36.3195 21.8128C32.5689 23.3239 30.2476 26.7808 28.9002 33.3884L29.8922 33.675C30.3882 31.4897 30.8815 29.4816 31.7592 27.7079C33.9289 27.6776 36.1289 27.5752 38.2848 27.5752C44.0409 27.5752 48.8203 27.8887 51.3987 28.8673L50.4868 26.8281C47.7288 26.2209 43.7256 25.9109 38.2854 25.9109C36.4634 25.9109 34.6139 25.9957 32.7787 26.0232C33.9646 24.4105 35.6674 23.0499 38.2936 22.0035L36.4315 20.6838L38.5002 19.2039L35.6806 17.8531C35.1874 17.284 34.5744 16.7622 33.8031 16.5094C34.7073 12.9395 37.7817 10.853 40.7314 9.41399L38.6655 8.32592L40.7473 6.86009L37.5405 5.54324C36.7023 4.27511 35.8987 3.69824 34.6622 3.69824C31.6862 3.69824 30.4343 7.02249 29.2566 9.96898C28.6332 11.5238 28.2432 12.1783 27.1875 13.0652C24.898 14.9914 21.9829 17.9371 19.1985 21.7119C17.7446 20.3625 14.7707 16.4127 13.9676 14.2584C13.649 14.7661 13.3337 15.8718 13.3337 15.8718C13.6391 16.2835 17.1376 20.8356 18.4394 22.7653C18.3411 22.9051 18.2439 23.0449 18.1455 23.1883C16.758 23.5427 13.1563 23.9897 11.9303 23.775L11.2409 25.3475C12.1555 25.2317 15.7369 24.6887 17.2222 24.5764C16.7669 25.2873 16.3255 26.0127 15.8984 26.7519C11.2964 27.4269 8.21926 28.6407 8.21926 30.8302C8.21926 31.1917 8.33297 31.6006 8.33297 31.9854C8.33297 32.9026 8.06491 33.2408 7.55846 33.6496C7.22944 33.9194 7.20802 34.1036 7.34918 34.3557C8.1127 35.9416 5.7414 36.7289 7.39368 39.5659L8.79437 39.6746C8.79383 39.6753 7.42773 38.6536 8.32693 36.3688V36.3688ZM6.51151 4.87176L6.0556 5.47193C6.71091 6.6758 9.61282 10.0177 11.0844 11.259L11.6254 10.3962C10.6603 8.93668 7.91715 5.78967 6.51151 4.87176ZM4.50879 21.7168L4.93834 22.3198C6.04461 21.6314 8.12369 19.6536 9.24864 18.1708L8.93884 17.5806C7.61724 18.2902 5.57497 20.2333 4.50879 21.7168V21.7168Z" fill="#AEAEAE"/>
<path fill-rule="evenodd" clip-rule="evenodd" d="M217.246 7.81748C217.246 7.53458 217.188 7.25439 217.075 6.99292C216.962 6.73144 216.795 6.49382 216.586 6.29363C216.376 6.09343 216.127 5.93459 215.853 5.82618C215.579 5.71777 215.285 5.66192 214.989 5.66181L211.646 5.66019C211.349 5.66072 211.055 5.71708 210.781 5.82605C210.506 5.93501 210.257 6.09445 210.048 6.29524C209.838 6.49604 209.672 6.73425 209.559 6.99628C209.446 7.25831 209.388 7.53901 209.389 7.82234L209.391 41.1649C209.39 41.448 209.448 41.7284 209.561 41.9901C209.674 42.2518 209.84 42.4896 210.05 42.69C210.26 42.8904 210.509 43.0494 210.783 43.1579C211.057 43.2664 211.351 43.3222 211.648 43.3222H214.99C215.287 43.3215 215.581 43.2652 215.855 43.1562C216.129 43.0473 216.378 42.888 216.587 42.6874C216.797 42.4867 216.963 42.2488 217.076 41.987C217.189 41.7252 217.247 41.4447 217.246 41.1617V7.81748V7.81748ZM221.507 8.70435V10.2895C221.507 10.4458 221.54 10.6003 221.603 10.7445C221.667 10.8886 221.759 11.0194 221.875 11.1295C221.991 11.2396 222.129 11.3267 222.281 11.386C222.432 11.4453 222.595 11.4755 222.758 11.475H245.825C246.876 11.475 247.729 10.6658 247.729 9.66243V6.97755C247.729 5.97578 246.865 5.06705 245.82 5.16497C245.82 5.16497 223.525 7.25105 222.805 7.32874C221.974 7.41613 221.507 8.0481 221.507 8.70435V8.70435ZM202.834 43.3238C197.096 43.3238 193.484 39.1751 193.484 34.5555L193.479 21.2152H191.837C191.629 21.2155 191.422 21.1767 191.23 21.101C191.038 21.0253 190.863 20.9142 190.716 20.774C190.569 20.6338 190.452 20.4673 190.373 20.2841C190.293 20.1008 190.252 19.9044 190.252 19.7061V17.4727C190.252 16.6384 190.965 15.9684 191.838 15.9684L193.479 15.97L193.476 7.76731C193.475 7.49136 193.532 7.21802 193.642 6.96293C193.753 6.70784 193.915 6.47602 194.119 6.28075C194.324 6.08547 194.567 5.93057 194.834 5.82492C195.101 5.71927 195.388 5.66494 195.677 5.66505H198.938C199.522 5.66676 200.083 5.88968 200.495 6.28488C200.908 6.68008 201.139 7.21526 201.139 7.77298L201.141 15.9692H206.224C207.1 15.9692 207.813 16.6409 207.813 17.4751V19.7085C207.813 19.9066 207.772 20.1028 207.692 20.2858C207.612 20.4687 207.496 20.6349 207.348 20.7748C207.201 20.9147 207.027 21.0255 206.834 21.1009C206.642 21.1764 206.436 21.2149 206.229 21.2144H201.141L201.144 33.5545C201.144 35.9772 202.683 37.6304 205.437 37.6304L205.899 37.6271C206.849 37.6271 207.621 38.357 207.621 39.2625V41.6868C207.621 41.902 207.577 42.1151 207.49 42.3139C207.404 42.5127 207.277 42.6932 207.117 42.8452C206.958 42.9971 206.768 43.1174 206.559 43.1993C206.35 43.2812 206.127 43.3229 205.901 43.3222H202.834V43.3238V43.3238ZM149.098 15.0087C139.822 15.0087 134.619 21.9313 134.619 29.2245C134.619 36.9968 140.192 43.8417 149.158 43.8417C155.295 43.8417 161.345 40.7579 162.488 35.6932C162.642 35.0102 162.159 34.1144 161.15 34.1112H156.765C155.969 34.1112 155.318 34.4745 154.926 35.0232C153.672 36.7775 151.833 37.7113 149.115 37.7113C145.274 37.7113 142.611 34.8257 142.411 31.6254H161.061C162.778 31.6254 163.545 30.7369 163.545 29.2229C163.547 22.111 159.132 15.0087 149.098 15.0087V15.0087ZM149.098 20.7175C152.522 20.7175 155.478 23.0407 155.777 26.1844H142.469C142.768 23.0407 145.674 20.7175 149.098 20.7175ZM234.078 15.0087C224.803 15.0087 219.6 21.9313 219.6 29.2245C219.6 36.9968 225.174 43.8417 234.139 43.8417C240.276 43.8417 246.326 40.7579 247.47 35.6932C247.624 35.0102 247.141 34.1144 246.132 34.1112H241.747C240.951 34.1112 240.3 34.4745 239.907 35.0232C238.654 36.7775 236.814 37.7113 234.096 37.7113C230.256 37.7113 227.594 34.8257 227.392 31.6254H246.043C247.76 31.6254 248.528 30.7369 248.528 29.2229C248.528 22.111 244.113 15.0087 234.078 15.0087V15.0087ZM234.078 20.7175C237.504 20.7175 240.459 23.0407 240.759 26.1844H227.45C227.748 23.0407 230.654 20.7175 234.078 20.7175Z" fill="white"/>
<path fill-rule="evenodd" clip-rule="evenodd" d="M187.283 5.80731H126.96C126.634 5.80731 126.312 5.86989 126.011 5.99148C125.71 6.11306 125.436 6.29127 125.206 6.5159C124.976 6.74052 124.793 7.00715 124.669 7.30054C124.545 7.59394 124.481 7.90833 124.481 8.22572L124.689 31.303C124.689 31.303 111.69 8.43372 111.012 7.26661C110.376 6.16883 109.007 5.15771 107.113 5.15771H102.153C101.827 5.15771 101.504 5.22033 101.202 5.34197C100.901 5.46361 100.627 5.64189 100.397 5.86664C100.166 6.09138 99.9831 6.35819 99.8584 6.65179C99.7338 6.9454 99.6697 7.26005 99.6699 7.57778L99.6725 41.4208C99.6722 41.7384 99.7362 42.0529 99.8608 42.3464C99.9854 42.6399 100.168 42.9066 100.398 43.1313C100.629 43.3561 100.902 43.5344 101.204 43.6561C101.505 43.7779 101.828 43.8406 102.154 43.8409H105.336C105.995 43.8393 106.626 43.5829 107.091 43.128C107.556 42.6731 107.816 42.0569 107.815 41.415L107.615 17.6914C107.615 17.6914 120.739 40.7893 121.301 41.6989C122.058 42.9288 123.339 43.8417 125.197 43.8417H129.754C130.08 43.8415 130.403 43.7787 130.704 43.6569C131.005 43.5352 131.278 43.3569 131.509 43.1321C131.739 42.9074 131.922 42.6407 132.046 42.3472C132.171 42.0537 132.235 41.7392 132.234 41.4216L132.233 11.543L187.286 11.5446C187.509 11.5453 187.73 11.5032 187.936 11.4207C188.141 11.3382 188.329 11.217 188.486 11.064C188.644 10.9109 188.769 10.7291 188.855 10.5289C188.94 10.3287 188.984 10.114 188.985 9.89716V7.45645C188.983 7.01805 188.803 6.59809 188.484 6.28886C188.165 5.97963 187.733 5.80643 187.283 5.80731V5.80731Z" fill="white"/>
<path fill-rule="evenodd" clip-rule="evenodd" d="M177.252 20.8249C179.894 20.8249 181.869 21.7196 182.581 23.2644C182.923 24.0069 183.585 24.1495 184.495 24.1495H188.128C188.728 24.1495 189.419 23.6675 189.419 22.9346C189.419 18.9934 184.382 15.4736 177.246 15.4736C169.869 15.4736 165.023 18.7536 165.023 23.9806C165.023 27.9783 168.408 30.3572 172.57 31.373C174.466 31.8351 177.705 32.5824 179.281 32.9696C180.982 33.3846 182.502 33.8706 182.502 35.2289C182.502 37.3744 180.079 38.1042 177.433 38.1042C174.926 38.1042 172.43 37.0597 171.714 35.3907C171.3 34.4243 170.573 34.2841 169.472 34.2841H165.777C165.132 34.2841 164.391 34.8003 164.391 35.5851V36.0304C164.391 39.8457 169.875 43.8419 177.44 43.8419C182.805 43.8419 190.279 41.7601 190.279 35.0457C190.279 31.1571 187.491 28.4651 182.955 27.3888C181.181 26.969 176.917 25.9572 175.989 25.7333C174.336 25.3334 172.792 24.8307 172.792 23.5082C172.793 21.5045 174.777 20.8249 177.252 20.8249Z" fill="white"/>
<path fill-rule="evenodd" clip-rule="evenodd" d="M217.246 7.81748C217.246 7.53458 217.188 7.25439 217.075 6.99292C216.961 6.73144 216.795 6.49382 216.586 6.29363C216.376 6.09343 216.127 5.93459 215.853 5.82618C215.579 5.71777 215.285 5.66192 214.988 5.66181L211.646 5.66019C211.349 5.66072 211.055 5.71708 210.78 5.82605C210.506 5.93501 210.257 6.09445 210.047 6.29524C209.838 6.49604 209.672 6.73425 209.559 6.99628C209.446 7.25831 209.388 7.53901 209.389 7.82234L209.39 41.1649C209.39 41.448 209.448 41.7284 209.561 41.9901C209.674 42.2518 209.84 42.4896 210.05 42.69C210.259 42.8904 210.508 43.0494 210.783 43.1579C211.057 43.2664 211.351 43.3222 211.648 43.3222H214.99C215.287 43.3215 215.581 43.2652 215.855 43.1562C216.129 43.0473 216.378 42.888 216.587 42.6874C216.797 42.4867 216.963 42.2488 217.076 41.987C217.189 41.7252 217.246 41.4447 217.246 41.1617V7.81748V7.81748ZM221.507 8.70435V10.2895C221.507 10.4458 221.54 10.6003 221.603 10.7445C221.666 10.8886 221.759 11.0194 221.875 11.1295C221.991 11.2396 222.129 11.3267 222.281 11.386C222.432 11.4453 222.594 11.4755 222.758 11.475H245.825C246.876 11.475 247.729 10.6658 247.729 9.66243V6.97755C247.729 5.97578 246.865 5.06705 245.82 5.16497C245.82 5.16497 223.525 7.25105 222.805 7.32874C221.974 7.41613 221.507 8.0481 221.507 8.70435V8.70435ZM202.834 43.3238C197.096 43.3238 193.484 39.1751 193.484 34.5555L193.479 21.2152H191.836C191.628 21.2155 191.422 21.1767 191.23 21.101C191.038 21.0253 190.863 20.9142 190.716 20.774C190.568 20.6338 190.452 20.4673 190.372 20.2841C190.293 20.1008 190.252 19.9044 190.252 19.7061V17.4727C190.252 16.6384 190.965 15.9684 191.838 15.9684L193.479 15.97L193.476 7.76731C193.475 7.49136 193.532 7.21802 193.642 6.96293C193.752 6.70784 193.914 6.47602 194.119 6.28075C194.323 6.08547 194.566 5.93057 194.834 5.82492C195.101 5.71927 195.387 5.66494 195.677 5.66505H198.937C199.522 5.66676 200.082 5.88968 200.495 6.28488C200.908 6.68008 201.139 7.21526 201.138 7.77298L201.14 15.9692H206.223C207.1 15.9692 207.813 16.6409 207.813 17.4751V19.7085C207.813 19.9066 207.772 20.1028 207.692 20.2858C207.612 20.4687 207.495 20.6349 207.348 20.7748C207.201 20.9147 207.026 21.0255 206.834 21.1009C206.642 21.1764 206.436 21.2149 206.228 21.2144H201.14L201.144 33.5545C201.144 35.9772 202.683 37.6304 205.437 37.6304L205.899 37.6271C206.849 37.6271 207.621 38.357 207.621 39.2625V41.6868C207.621 41.902 207.577 42.1151 207.49 42.3139C207.404 42.5127 207.277 42.6932 207.117 42.8452C206.957 42.9971 206.768 43.1174 206.559 43.1993C206.35 43.2812 206.127 43.3229 205.901 43.3222H202.834V43.3238V43.3238ZM163.546 29.2229C163.546 22.111 159.131 15.0087 149.098 15.0087C139.822 15.0087 134.619 21.9313 134.619 29.2245C134.619 36.9968 140.192 43.8417 149.158 43.8417C155.295 43.8417 161.345 40.7579 162.488 35.6932C162.643 35.0102 162.16 34.1144 161.15 34.1112H156.765C155.969 34.1112 155.318 34.4745 154.926 35.0232C153.672 36.7775 151.833 37.7113 149.115 37.7113C145.274 37.7113 142.611 34.8257 142.411 31.6254H161.061C162.778 31.6254 163.546 30.7369 163.546 29.2229V29.2229ZM142.469 26.1836C142.768 23.0399 145.673 20.7167 149.098 20.7167C152.522 20.7167 155.478 23.0399 155.777 26.1836H142.469ZM248.528 29.2229C248.528 22.111 244.113 15.0087 234.079 15.0087C224.803 15.0087 219.601 21.9313 219.601 29.2245C219.601 36.9968 225.174 43.8417 234.14 43.8417C240.277 43.8417 246.326 40.7579 247.47 35.6932C247.625 35.0102 247.142 34.1144 246.133 34.1112H241.747C240.951 34.1112 240.301 34.4745 239.908 35.0232C238.654 36.7775 236.815 37.7113 234.096 37.7113C230.257 37.7113 227.594 34.8257 227.393 31.6254H246.044C247.76 31.6254 248.528 30.7369 248.528 29.2229V29.2229ZM227.45 26.1836C227.749 23.0399 230.654 20.7167 234.079 20.7167C237.504 20.7167 240.46 23.0399 240.76 26.1836H227.45Z" fill="#AEAEAE"/>
<path fill-rule="evenodd" clip-rule="evenodd" d="M187.283 5.80731H126.96C126.634 5.80731 126.312 5.86989 126.011 5.99148C125.71 6.11306 125.436 6.29127 125.206 6.5159C124.976 6.74052 124.793 7.00715 124.669 7.30054C124.545 7.59394 124.481 7.90833 124.481 8.22572L124.689 31.303C124.689 31.303 111.69 8.43372 111.012 7.26661C110.376 6.16883 109.007 5.15771 107.113 5.15771H102.153C101.827 5.15771 101.504 5.22033 101.202 5.34197C100.901 5.46361 100.627 5.64189 100.397 5.86664C100.166 6.09138 99.9831 6.35819 99.8584 6.65179C99.7338 6.9454 99.6697 7.26005 99.6699 7.57778L99.6725 41.4208C99.6722 41.7384 99.7362 42.0529 99.8608 42.3464C99.9854 42.6399 100.168 42.9066 100.398 43.1313C100.629 43.3561 100.902 43.5344 101.204 43.6561C101.505 43.7779 101.828 43.8406 102.154 43.8409H105.336C105.995 43.8393 106.626 43.5829 107.091 43.128C107.556 42.6731 107.816 42.0569 107.815 41.415L107.615 17.6914C107.615 17.6914 120.739 40.7893 121.301 41.6989C122.058 42.9288 123.339 43.8417 125.197 43.8417H129.754C130.08 43.8415 130.403 43.7787 130.704 43.6569C131.005 43.5352 131.278 43.3569 131.509 43.1321C131.739 42.9074 131.922 42.6407 132.046 42.3472C132.171 42.0537 132.235 41.7392 132.234 41.4216L132.233 11.543L187.286 11.5446C187.509 11.5453 187.73 11.5032 187.936 11.4207C188.141 11.3382 188.329 11.217 188.486 11.064C188.644 10.9109 188.769 10.7291 188.855 10.5289C188.94 10.3287 188.984 10.114 188.985 9.89716V7.45645C188.983 7.01805 188.803 6.59809 188.484 6.28886C188.165 5.97963 187.733 5.80643 187.283 5.80731V5.80731Z" fill="#AEAEAE"/>
<path fill-rule="evenodd" clip-rule="evenodd" d="M177.173 20.8249C179.799 20.8249 181.763 21.7196 182.47 23.2644C182.809 24.0069 183.468 24.1495 184.372 24.1495H187.983C188.579 24.1495 189.265 23.6675 189.265 22.9346C189.265 18.9934 184.26 15.4736 177.168 15.4736C169.835 15.4736 165.019 18.7536 165.019 23.9806C165.019 27.9783 168.384 30.3572 172.52 31.373C174.405 31.8351 177.623 32.5824 179.19 32.9696C180.88 33.3846 182.391 33.8706 182.391 35.2289C182.391 37.3744 179.983 38.1042 177.354 38.1042C174.862 38.1042 172.38 37.0597 171.669 35.3907C171.257 34.4243 170.535 34.2841 169.441 34.2841H165.768C165.128 34.2841 164.391 34.8003 164.391 35.5851V36.0304C164.391 39.8457 169.841 43.8419 177.36 43.8419C182.692 43.8419 190.121 41.7601 190.121 35.0457C190.121 31.1571 187.35 28.4651 182.842 27.3888C181.079 26.969 176.84 25.9572 175.918 25.7333C174.275 25.3334 172.741 24.8307 172.741 23.5082C172.742 21.5045 174.713 20.8249 177.173 20.8249ZM250.841 41.9745H250.022V38.3798H251.453C252.44 38.3798 253.024 38.6443 253.024 39.4657C253.024 40.127 252.61 40.3667 252.103 40.4026L253.08 41.9745H252.11L251.227 40.4639H250.841V41.9745V41.9745ZM251.565 39.8553C251.933 39.8553 252.148 39.7836 252.148 39.3852C252.148 39.0148 251.724 38.9885 251.416 38.9885H250.841V39.8553H251.565ZM251.432 43.5192C249.543 43.5192 247.858 42.2915 247.858 40.1803C247.858 38.0707 249.543 36.843 251.432 36.843C253.315 36.843 255 38.0707 255 40.1803C255 42.2915 253.315 43.5192 251.432 43.5192ZM251.432 37.619C250.022 37.619 248.884 38.6443 248.884 40.1803C248.884 41.7179 250.022 42.7528 251.432 42.7433V42.7528C252.808 42.7528 253.972 41.7179 253.972 40.1803C253.972 38.6443 252.808 37.619 251.432 37.619Z" fill="#AEAEAE"/>
</svg>
