<svg width="1139" height="915" viewBox="0 0 1139 915" fill="none" xmlns="http://www.w3.org/2000/svg">
<g filter="url(#filter0_d)">
<rect x="45" y="0.51416" width="1094" height="864" rx="6" fill="#FFFFFA"/>
<rect x="45" y="1" width="288" height="92" rx="5" fill="#353535"/>
<path d="M121.56 57.5142V29.1142H124.36V57.5142H121.56ZM148.442 57.5142H145.722V45.8742C145.722 43.4208 145.349 41.6342 144.602 40.5142C143.882 39.3675 142.762 38.7942 141.242 38.7942C140.175 38.7942 139.122 39.0608 138.082 39.5942C137.042 40.1008 136.122 40.8075 135.322 41.7142C134.549 42.5942 133.989 43.6075 133.642 44.7542V57.5142H130.922V36.6742H133.402V41.3942C134.229 39.8742 135.442 38.6475 137.042 37.7142C138.642 36.7808 140.375 36.3142 142.242 36.3142C143.789 36.3142 145.015 36.6875 145.922 37.4342C146.829 38.1542 147.469 39.1942 147.842 40.5542C148.242 41.8875 148.442 43.4742 148.442 45.3142V57.5142ZM163.282 57.9142C161.256 57.9142 159.456 57.4208 157.882 56.4342C156.309 55.4208 155.069 54.1008 154.162 52.4742C153.256 50.8208 152.802 49.0075 152.802 47.0342C152.802 45.0608 153.242 43.2742 154.122 41.6742C155.002 40.0475 156.229 38.7542 157.802 37.7942C159.376 36.8075 161.189 36.3142 163.242 36.3142C165.189 36.3142 166.896 36.7675 168.362 37.6742C169.856 38.5542 170.976 39.7542 171.722 41.2742L169.082 42.1142C168.496 41.0475 167.669 40.2208 166.602 39.6342C165.562 39.0208 164.402 38.7142 163.122 38.7142C161.709 38.7142 160.429 39.0742 159.282 39.7942C158.162 40.5142 157.256 41.5142 156.562 42.7942C155.896 44.0475 155.562 45.4608 155.562 47.0342C155.562 48.6075 155.909 50.0342 156.602 51.3142C157.296 52.5942 158.216 53.6208 159.362 54.3942C160.509 55.1408 161.776 55.5142 163.162 55.5142C164.069 55.5142 164.949 55.3542 165.802 55.0342C166.656 54.7142 167.389 54.2875 168.002 53.7542C168.616 53.1942 169.029 52.5942 169.242 51.9542L171.922 52.7542C171.549 53.7408 170.936 54.6342 170.082 55.4342C169.229 56.2075 168.216 56.8208 167.042 57.2742C165.869 57.7008 164.616 57.9142 163.282 57.9142ZM184.88 57.9142C182.88 57.9142 181.093 57.4208 179.52 56.4342C177.973 55.4475 176.76 54.1408 175.88 52.5142C175 50.8608 174.56 49.0742 174.56 47.1542C174.56 45.2075 175 43.4208 175.88 41.7942C176.787 40.1408 178.013 38.8208 179.56 37.8342C181.133 36.8208 182.907 36.3142 184.88 36.3142C186.88 36.3142 188.653 36.8208 190.2 37.8342C191.773 38.8208 193 40.1408 193.88 41.7942C194.787 43.4208 195.24 45.2075 195.24 47.1542C195.24 49.0742 194.8 50.8608 193.92 52.5142C193.04 54.1408 191.813 55.4475 190.24 56.4342C188.693 57.4208 186.907 57.9142 184.88 57.9142ZM177.32 47.1942C177.32 48.7408 177.653 50.1542 178.32 51.4342C179.013 52.6875 179.933 53.6875 181.08 54.4342C182.227 55.1542 183.493 55.5142 184.88 55.5142C186.267 55.5142 187.533 55.1408 188.68 54.3942C189.827 53.6475 190.747 52.6342 191.44 51.3542C192.133 50.0742 192.48 48.6608 192.48 47.1142C192.48 45.5675 192.133 44.1542 191.44 42.8742C190.747 41.5942 189.827 40.5808 188.68 39.8342C187.533 39.0875 186.267 38.7142 184.88 38.7142C183.52 38.7142 182.267 39.1008 181.12 39.8742C179.973 40.6208 179.053 41.6342 178.36 42.9142C177.667 44.1942 177.32 45.6208 177.32 47.1942ZM230.789 57.5142H228.069V45.8742C228.069 43.4742 227.682 41.7008 226.909 40.5542C226.136 39.3808 224.989 38.7942 223.469 38.7942C221.869 38.7942 220.456 39.3542 219.229 40.4742C218.002 41.5942 217.136 43.0342 216.629 44.7942V57.5142H213.909V45.8742C213.909 43.4208 213.522 41.6342 212.749 40.5142C212.002 39.3675 210.869 38.7942 209.349 38.7942C207.776 38.7942 206.362 39.3408 205.109 40.4342C203.882 41.5275 203.016 42.9675 202.509 44.7542V57.5142H199.789V36.6742H202.269V41.3942C203.122 39.7942 204.242 38.5542 205.629 37.6742C207.016 36.7675 208.549 36.3142 210.229 36.3142C211.962 36.3142 213.362 36.8208 214.429 37.8342C215.496 38.8208 216.149 40.1008 216.389 41.6742C218.309 38.1008 220.989 36.3142 224.429 36.3142C226.776 36.3142 228.416 37.1408 229.349 38.7942C230.309 40.4208 230.789 42.5942 230.789 45.3142V57.5142ZM245.547 57.9142C243.547 57.9142 241.76 57.4208 240.187 56.4342C238.614 55.4475 237.374 54.1275 236.467 52.4742C235.56 50.8208 235.107 49.0075 235.107 47.0342C235.107 45.0875 235.547 43.3008 236.427 41.6742C237.334 40.0475 238.574 38.7542 240.147 37.7942C241.72 36.8075 243.507 36.3142 245.507 36.3142C247.56 36.3142 249.36 36.8075 250.907 37.7942C252.454 38.7808 253.654 40.0875 254.507 41.7142C255.387 43.3142 255.827 45.0742 255.827 46.9942C255.827 47.4208 255.814 47.7808 255.787 48.0742H237.947C238.08 49.5675 238.507 50.9008 239.227 52.0742C239.947 53.2208 240.867 54.1408 241.987 54.8342C243.107 55.5008 244.334 55.8342 245.667 55.8342C247.027 55.8342 248.307 55.4875 249.507 54.7942C250.707 54.1008 251.56 53.1942 252.067 52.0742L254.427 52.7142C254 53.7275 253.334 54.6342 252.427 55.4342C251.547 56.2075 250.52 56.8208 249.347 57.2742C248.174 57.7008 246.907 57.9142 245.547 57.9142ZM237.867 46.1142H253.267C253.16 44.6208 252.747 43.3008 252.027 42.1542C251.307 40.9808 250.387 40.0742 249.267 39.4342C248.147 38.7675 246.907 38.4342 245.547 38.4342C244.187 38.4342 242.947 38.7675 241.827 39.4342C240.707 40.0742 239.787 40.9808 239.067 42.1542C238.374 43.3008 237.974 44.6208 237.867 46.1142Z" fill="white"/>
<rect width="1022" height="720" transform="translate(81 109)" fill="#DBE9F4"/>
<path d="M487.172 267H474.595V265.247L481.24 257.864C482.224 256.748 482.901 255.842 483.27 255.148C483.648 254.445 483.837 253.72 483.837 252.973C483.837 251.971 483.534 251.149 482.927 250.507C482.321 249.866 481.512 249.545 480.501 249.545C479.289 249.545 478.344 249.892 477.667 250.586C476.999 251.272 476.665 252.23 476.665 253.46H474.226C474.226 251.694 474.793 250.266 475.927 249.176C477.069 248.086 478.594 247.541 480.501 247.541C482.286 247.541 483.696 248.011 484.733 248.952C485.771 249.883 486.289 251.127 486.289 252.683C486.289 254.572 485.085 256.822 482.677 259.433L477.535 265.009H487.172V267ZM497.772 267H495.32V250.745L490.402 252.551V250.336L497.39 247.712H497.772V267ZM516.15 261.99H508.108L506.302 267H503.691L511.021 247.805H513.236L520.58 267H517.982L516.15 261.99ZM508.873 259.907H515.398L512.129 250.929L508.873 259.907ZM531.43 265.589C530.48 266.706 529.087 267.264 527.25 267.264C525.73 267.264 524.57 266.824 523.77 265.945C522.979 265.058 522.579 263.748 522.57 262.017V252.735H525.009V261.951C525.009 264.113 525.888 265.194 527.646 265.194C529.509 265.194 530.749 264.5 531.364 263.111V252.735H533.803V267H531.482L531.43 265.589ZM536.94 259.749C536.94 257.525 537.455 255.759 538.483 254.449C539.511 253.131 540.874 252.472 542.57 252.472C544.31 252.472 545.668 253.087 546.644 254.317L546.762 252.735H548.99V266.657C548.99 268.503 548.441 269.958 547.342 271.021C546.252 272.084 544.785 272.616 542.939 272.616C541.911 272.616 540.904 272.396 539.92 271.957C538.936 271.518 538.184 270.916 537.666 270.151L538.931 268.688C539.977 269.979 541.256 270.625 542.768 270.625C543.954 270.625 544.877 270.292 545.536 269.624C546.204 268.956 546.538 268.015 546.538 266.802V265.576C545.562 266.701 544.231 267.264 542.543 267.264C540.874 267.264 539.52 266.591 538.483 265.247C537.455 263.902 536.94 262.069 536.94 259.749ZM539.393 260.026C539.393 261.634 539.722 262.9 540.381 263.823C541.041 264.737 541.963 265.194 543.15 265.194C544.688 265.194 545.817 264.495 546.538 263.098V256.585C545.791 255.223 544.67 254.542 543.176 254.542C541.99 254.542 541.062 255.003 540.395 255.926C539.727 256.849 539.393 258.215 539.393 260.026ZM564.455 259.841H558.021V257.851H564.455V259.841ZM585.324 258.813C585.324 261.669 584.836 263.792 583.861 265.181C582.885 266.569 581.36 267.264 579.286 267.264C577.238 267.264 575.722 266.587 574.738 265.233C573.753 263.871 573.244 261.841 573.208 259.143V255.886C573.208 253.065 573.696 250.969 574.672 249.598C575.647 248.227 577.177 247.541 579.26 247.541C581.325 247.541 582.846 248.205 583.821 249.532C584.797 250.85 585.298 252.889 585.324 255.649V258.813ZM582.885 255.478C582.885 253.412 582.595 251.909 582.015 250.969C581.435 250.02 580.517 249.545 579.26 249.545C578.012 249.545 577.102 250.015 576.531 250.956C575.959 251.896 575.665 253.342 575.647 255.293V259.195C575.647 261.27 575.946 262.803 576.544 263.796C577.15 264.781 578.064 265.273 579.286 265.273C580.49 265.273 581.382 264.807 581.962 263.875C582.551 262.944 582.859 261.476 582.885 259.472V255.478ZM596.464 267H594.012V250.745L589.095 252.551V250.336L596.082 247.712H596.464V267ZM618.982 247.805H621.526V261.397C621.526 263.234 620.973 264.671 619.865 265.708C618.767 266.745 617.299 267.264 615.462 267.264C613.555 267.264 612.069 266.776 611.006 265.8C609.942 264.825 609.411 263.458 609.411 261.7H611.942C611.942 262.799 612.241 263.656 612.838 264.271C613.445 264.886 614.319 265.194 615.462 265.194C616.508 265.194 617.352 264.864 617.993 264.205C618.644 263.546 618.973 262.623 618.982 261.437V247.805ZM634.262 265.589C633.312 266.706 631.919 267.264 630.083 267.264C628.562 267.264 627.402 266.824 626.602 265.945C625.811 265.058 625.411 263.748 625.402 262.017V252.735H627.841V261.951C627.841 264.113 628.72 265.194 630.478 265.194C632.341 265.194 633.581 264.5 634.196 263.111V252.735H636.635V267H634.314L634.262 265.589ZM643.002 267H640.563V246.75H643.002V267ZM651.585 263.427L654.907 252.735H657.518L651.783 269.202C650.895 271.575 649.484 272.761 647.551 272.761L647.089 272.722L646.18 272.55V270.573L646.839 270.625C647.665 270.625 648.307 270.458 648.764 270.125C649.229 269.791 649.612 269.18 649.911 268.292L650.451 266.842L645.362 252.735H648.025L651.585 263.427ZM658.203 270.823L656.819 269.874C657.645 268.723 658.076 267.536 658.111 266.314V264.113H660.497V266.024C660.497 266.912 660.277 267.8 659.838 268.688C659.407 269.575 658.862 270.287 658.203 270.823ZM682.606 267H670.029V265.247L676.673 257.864C677.658 256.748 678.334 255.842 678.704 255.148C679.082 254.445 679.271 253.72 679.271 252.973C679.271 251.971 678.967 251.149 678.361 250.507C677.754 249.866 676.946 249.545 675.935 249.545C674.722 249.545 673.777 249.892 673.101 250.586C672.433 251.272 672.099 252.23 672.099 253.46H669.66C669.66 251.694 670.227 250.266 671.36 249.176C672.503 248.086 674.028 247.541 675.935 247.541C677.719 247.541 679.13 248.011 680.167 248.952C681.204 249.883 681.723 251.127 681.723 252.683C681.723 254.572 680.519 256.822 678.11 259.433L672.969 265.009H682.606V267ZM697.227 258.813C697.227 261.669 696.739 263.792 695.763 265.181C694.788 266.569 693.263 267.264 691.188 267.264C689.141 267.264 687.625 266.587 686.64 265.233C685.656 263.871 685.146 261.841 685.111 259.143V255.886C685.111 253.065 685.599 250.969 686.574 249.598C687.55 248.227 689.079 247.541 691.162 247.541C693.228 247.541 694.748 248.205 695.724 249.532C696.699 250.85 697.2 252.889 697.227 255.649V258.813ZM694.788 255.478C694.788 253.412 694.498 251.909 693.917 250.969C693.337 250.02 692.419 249.545 691.162 249.545C689.914 249.545 689.004 250.015 688.433 250.956C687.862 251.896 687.567 253.342 687.55 255.293V259.195C687.55 261.27 687.849 262.803 688.446 263.796C689.053 264.781 689.967 265.273 691.188 265.273C692.393 265.273 693.285 264.807 693.865 263.875C694.454 262.944 694.761 261.476 694.788 259.472V255.478ZM712.928 267H700.351V265.247L706.996 257.864C707.98 256.748 708.657 255.842 709.026 255.148C709.404 254.445 709.593 253.72 709.593 252.973C709.593 251.971 709.29 251.149 708.683 250.507C708.077 249.866 707.268 249.545 706.257 249.545C705.044 249.545 704.1 249.892 703.423 250.586C702.755 251.272 702.421 252.23 702.421 253.46H699.982C699.982 251.694 700.549 250.266 701.683 249.176C702.825 248.086 704.35 247.541 706.257 247.541C708.042 247.541 709.452 248.011 710.489 248.952C711.526 249.883 712.045 251.127 712.045 252.683C712.045 254.572 710.841 256.822 708.433 259.433L703.291 265.009H712.928V267ZM723.528 267H721.076V250.745L716.158 252.551V250.336L723.146 247.712H723.528V267Z" fill="#101010"/>
<path d="M835 527C835 655.13 730.235 759 601 759C471.765 759 367 655.13 367 527C367 398.87 471.765 295 601 295C730.235 295 835 398.87 835 527Z" fill="url(#paint0_radial)" fill-opacity="0.88"/>
<ellipse cx="601" cy="527.486" rx="176" ry="164" fill="url(#paint1_radial)"/>
<g filter="url(#filter1_d)">
<ellipse cx="314" cy="310.5" rx="45" ry="43.5" fill="#333232"/>
</g>
<path d="M319.721 306.144H332.06V315.064H319.721V329.01H310.321V315.064H297.948V306.144H310.321V292.779H319.721V306.144Z" fill="white"/>
<path d="M516.056 538.605C516.056 542.044 514.738 544.97 512.103 547.382C509.468 549.749 505.604 551.067 500.512 551.335V559.04H497.162V551.402C493.901 551.223 490.819 550.598 487.916 549.526C485.057 548.409 482.802 547.002 481.149 545.305L483.092 541.486C484.655 543.005 486.688 544.278 489.189 545.305C491.735 546.332 494.393 546.935 497.162 547.114V529.493C494.08 528.734 491.512 527.93 489.457 527.081C487.402 526.188 485.683 524.915 484.298 523.262C482.958 521.565 482.288 519.331 482.288 516.562C482.288 513.123 483.539 510.242 486.04 507.919C488.541 505.552 492.249 504.167 497.162 503.765V496.06H500.512V503.698C503.058 503.787 505.515 504.212 507.882 504.971C510.294 505.686 512.371 506.646 514.113 507.852L512.438 511.805C510.607 510.644 508.664 509.728 506.609 509.058C504.554 508.388 502.522 508.008 500.512 507.919V525.674C503.817 526.478 506.52 527.304 508.619 528.153C510.718 528.957 512.483 530.208 513.912 531.905C515.341 533.602 516.056 535.836 516.056 538.605ZM487.179 516.428C487.179 518.751 488.028 520.515 489.725 521.721C491.467 522.927 493.946 523.954 497.162 524.803V508.053C493.857 508.321 491.355 509.237 489.658 510.8C488.005 512.319 487.179 514.195 487.179 516.428ZM500.512 547.114C504.041 546.846 506.698 545.975 508.485 544.501C510.272 543.027 511.165 541.151 511.165 538.873C511.165 536.461 510.249 534.652 508.418 533.446C506.587 532.24 503.951 531.213 500.512 530.364V547.114ZM553.238 504.1V551H548.414V508.388H537.359V504.1H553.238ZM577.447 504.1V551H572.623V508.388H561.568V504.1H577.447ZM607.351 551.402C603.733 551.402 600.494 550.442 597.636 548.521C594.822 546.6 592.611 543.853 591.003 540.28C589.439 536.662 588.658 532.419 588.658 527.55C588.658 522.681 589.439 518.46 591.003 514.887C592.611 511.269 594.822 508.5 597.636 506.579C600.494 504.658 603.733 503.698 607.351 503.698C610.969 503.698 614.185 504.658 616.999 506.579C619.857 508.5 622.091 511.269 623.699 514.887C625.307 518.46 626.111 522.681 626.111 527.55C626.111 532.419 625.307 536.662 623.699 540.28C622.091 543.853 619.857 546.6 616.999 548.521C614.185 550.442 610.969 551.402 607.351 551.402ZM607.351 546.98C610.075 546.98 612.465 546.221 614.52 544.702C616.619 543.183 618.249 540.972 619.411 538.069C620.572 535.166 621.153 531.659 621.153 527.55C621.153 523.441 620.572 519.934 619.411 517.031C618.249 514.128 616.619 511.917 614.52 510.398C612.465 508.879 610.075 508.12 607.351 508.12C604.626 508.12 602.214 508.879 600.115 510.398C598.06 511.917 596.452 514.128 595.291 517.031C594.129 519.934 593.549 523.441 593.549 527.55C593.549 531.659 594.129 535.166 595.291 538.069C596.452 540.972 598.06 543.183 600.115 544.702C602.214 546.221 604.626 546.98 607.351 546.98ZM635.917 551.335C634.935 551.335 634.086 550.978 633.371 550.263C632.701 549.548 632.366 548.677 632.366 547.65C632.366 546.623 632.701 545.774 633.371 545.104C634.086 544.389 634.935 544.032 635.917 544.032C636.9 544.032 637.749 544.389 638.463 545.104C639.178 545.774 639.535 546.623 639.535 547.65C639.535 548.677 639.178 549.548 638.463 550.263C637.749 550.978 636.9 551.335 635.917 551.335ZM664.471 551.402C660.853 551.402 657.615 550.442 654.756 548.521C651.942 546.6 649.731 543.853 648.123 540.28C646.56 536.662 645.778 532.419 645.778 527.55C645.778 522.681 646.56 518.46 648.123 514.887C649.731 511.269 651.942 508.5 654.756 506.579C657.615 504.658 660.853 503.698 664.471 503.698C668.089 503.698 671.305 504.658 674.119 506.579C676.978 508.5 679.211 511.269 680.819 514.887C682.427 518.46 683.231 522.681 683.231 527.55C683.231 532.419 682.427 536.662 680.819 540.28C679.211 543.853 676.978 546.6 674.119 548.521C671.305 550.442 668.089 551.402 664.471 551.402ZM664.471 546.98C667.196 546.98 669.585 546.221 671.64 544.702C673.739 543.183 675.37 540.972 676.531 538.069C677.692 535.166 678.273 531.659 678.273 527.55C678.273 523.441 677.692 519.934 676.531 517.031C675.37 514.128 673.739 511.917 671.64 510.398C669.585 508.879 667.196 508.12 664.471 508.12C661.746 508.12 659.334 508.879 657.235 510.398C655.18 511.917 653.572 514.128 652.411 517.031C651.25 519.934 650.669 523.441 650.669 527.55C650.669 531.659 651.25 535.166 652.411 538.069C653.572 540.972 655.18 543.183 657.235 544.702C659.334 546.221 661.746 546.98 664.471 546.98ZM702.467 523.329C709.257 523.329 714.192 524.557 717.274 527.014C720.401 529.426 721.964 532.821 721.964 537.198C721.964 539.923 721.317 542.357 720.021 544.501C718.771 546.645 716.872 548.342 714.326 549.593C711.78 550.799 708.654 551.402 704.946 551.402C701.596 551.402 698.403 550.866 695.365 549.794C692.373 548.677 689.961 547.203 688.129 545.372L690.474 541.553C692.038 543.161 694.092 544.479 696.638 545.506C699.184 546.489 701.931 546.98 704.879 546.98C708.765 546.98 711.758 546.109 713.857 544.367C716.001 542.625 717.073 540.302 717.073 537.399C717.073 534.183 715.867 531.749 713.455 530.096C711.088 528.443 707.068 527.617 701.395 527.617H691.412L693.824 504.1H719.485V508.388H698.045L696.437 523.329H702.467Z" fill="white"/>
<rect x="847" y="740" width="243" height="67" rx="3" fill="#0B0B0B"/>
<path d="M923.209 778.023H913.526L911.329 784H909.439L917.511 762.672H919.225L927.296 784H925.421L923.209 778.023ZM914.083 776.485H922.638L918.36 764.869L914.083 776.485ZM935.895 782.813C937.115 782.813 938.136 782.472 938.956 781.788C939.786 781.095 940.235 780.201 940.304 779.107H941.988C941.939 780.074 941.637 780.958 941.08 781.759C940.523 782.55 939.781 783.17 938.854 783.619C937.936 784.068 936.949 784.293 935.895 784.293C933.814 784.293 932.164 783.57 930.943 782.125C929.732 780.68 929.127 778.736 929.127 776.295V775.768C929.127 774.205 929.4 772.823 929.947 771.622C930.494 770.421 931.275 769.493 932.291 768.839C933.316 768.185 934.513 767.857 935.88 767.857C937.618 767.857 939.049 768.375 940.172 769.41C941.305 770.445 941.91 771.808 941.988 773.497H940.304C940.226 772.257 939.776 771.256 938.956 770.494C938.146 769.732 937.12 769.352 935.88 769.352C934.298 769.352 933.067 769.923 932.188 771.065C931.319 772.208 930.885 773.81 930.885 775.87V776.383C930.885 778.404 931.319 779.981 932.188 781.114C933.067 782.247 934.303 782.813 935.895 782.813ZM948.229 764.093V768.15H951.51V769.586H948.229V780.147C948.229 781.026 948.385 781.681 948.697 782.11C949.02 782.54 949.552 782.755 950.294 782.755C950.587 782.755 951.061 782.706 951.715 782.608L951.788 784.044C951.329 784.21 950.704 784.293 949.913 784.293C948.712 784.293 947.838 783.946 947.291 783.253C946.744 782.55 946.471 781.52 946.471 780.162V769.586H943.556V768.15H946.471V764.093H948.229ZM957.105 784H955.348V768.15H957.105V784ZM955.04 763.565C955.04 763.233 955.147 762.955 955.362 762.73C955.577 762.496 955.87 762.379 956.241 762.379C956.612 762.379 956.905 762.496 957.12 762.73C957.345 762.955 957.457 763.233 957.457 763.565C957.457 763.897 957.345 764.176 957.12 764.4C956.905 764.625 956.612 764.737 956.241 764.737C955.87 764.737 955.577 764.625 955.362 764.4C955.147 764.176 955.04 763.897 955.04 763.565ZM966.817 781.583L971.637 768.15H973.438L967.521 784H966.1L960.152 768.15H961.954L966.817 781.583ZM978.287 784H976.529V768.15H978.287V784ZM976.222 763.565C976.222 763.233 976.329 762.955 976.544 762.73C976.759 762.496 977.052 762.379 977.423 762.379C977.794 762.379 978.087 762.496 978.302 762.73C978.526 762.955 978.639 763.233 978.639 763.565C978.639 763.897 978.526 764.176 978.302 764.4C978.087 764.625 977.794 764.737 977.423 764.737C977.052 764.737 976.759 764.625 976.544 764.4C976.329 764.176 976.222 763.897 976.222 763.565ZM985.787 764.093V768.15H989.068V769.586H985.787V780.147C985.787 781.026 985.943 781.681 986.256 782.11C986.578 782.54 987.11 782.755 987.853 782.755C988.146 782.755 988.619 782.706 989.273 782.608L989.347 784.044C988.888 784.21 988.263 784.293 987.472 784.293C986.271 784.293 985.396 783.946 984.85 783.253C984.303 782.55 984.029 781.52 984.029 780.162V769.586H981.114V768.15H984.029V764.093H985.787ZM994.664 784H992.906V768.15H994.664V784ZM992.599 763.565C992.599 763.233 992.706 762.955 992.921 762.73C993.136 762.496 993.429 762.379 993.8 762.379C994.171 762.379 994.464 762.496 994.679 762.73C994.903 762.955 995.016 763.233 995.016 763.565C995.016 763.897 994.903 764.176 994.679 764.4C994.464 764.625 994.171 764.737 993.8 764.737C993.429 764.737 993.136 764.625 992.921 764.4C992.706 764.176 992.599 763.897 992.599 763.565ZM1005.58 784.293C1004.23 784.293 1003.01 783.961 1001.92 783.297C1000.83 782.633 999.986 781.71 999.381 780.528C998.775 779.337 998.473 778.004 998.473 776.529V775.899C998.473 774.376 998.766 773.004 999.352 771.783C999.947 770.562 1000.77 769.605 1001.83 768.912C1002.88 768.209 1004.02 767.857 1005.25 767.857C1007.18 767.857 1008.7 768.517 1009.83 769.835C1010.96 771.144 1011.52 772.936 1011.52 775.211V776.192H1000.22V776.529C1000.22 778.326 1000.73 779.825 1001.75 781.026C1002.79 782.218 1004.09 782.813 1005.65 782.813C1006.59 782.813 1007.41 782.643 1008.13 782.301C1008.85 781.959 1009.5 781.412 1010.09 780.66L1011.19 781.495C1009.9 783.36 1008.03 784.293 1005.58 784.293ZM1005.25 769.352C1003.94 769.352 1002.82 769.835 1001.92 770.802C1001.02 771.769 1000.47 773.067 1000.27 774.698H1009.78V774.508C1009.73 772.984 1009.3 771.744 1008.48 770.787C1007.66 769.83 1006.58 769.352 1005.25 769.352ZM1024.43 779.972C1024.43 779.103 1024.08 778.404 1023.38 777.877C1022.68 777.35 1021.63 776.939 1020.23 776.646C1018.82 776.344 1017.73 776.002 1016.94 775.621C1016.17 775.23 1015.6 774.757 1015.22 774.2C1014.84 773.644 1014.66 772.97 1014.66 772.179C1014.66 770.929 1015.18 769.898 1016.23 769.088C1017.27 768.268 1018.61 767.857 1020.24 767.857C1022.01 767.857 1023.42 768.297 1024.49 769.176C1025.56 770.045 1026.1 771.183 1026.1 772.589H1024.34C1024.34 771.661 1023.95 770.89 1023.17 770.274C1022.4 769.659 1021.42 769.352 1020.24 769.352C1019.09 769.352 1018.16 769.61 1017.46 770.128C1016.76 770.636 1016.42 771.3 1016.42 772.12C1016.42 772.911 1016.71 773.526 1017.28 773.966C1017.87 774.396 1018.93 774.791 1020.46 775.152C1022 775.514 1023.16 775.899 1023.92 776.31C1024.69 776.72 1025.26 777.213 1025.63 777.789C1026 778.365 1026.19 779.063 1026.19 779.884C1026.19 781.222 1025.65 782.291 1024.56 783.092C1023.49 783.893 1022.08 784.293 1020.34 784.293C1018.5 784.293 1017 783.849 1015.85 782.96C1014.7 782.062 1014.13 780.929 1014.13 779.562H1015.89C1015.96 780.587 1016.39 781.388 1017.18 781.964C1017.98 782.53 1019.03 782.813 1020.34 782.813C1021.56 782.813 1022.55 782.545 1023.3 782.008C1024.05 781.471 1024.43 780.792 1024.43 779.972Z" fill="white"/>
<path d="M368 504L427 505.486C440 452.486 470 398.486 551.5 370.486L549.5 300.5C549.5 300.5 473.712 313.895 418 381.5C373.5 435.5 368 504 368 504Z" fill="#740F97"/>
<path d="M136 215V150C136 144.343 136 141.515 137.757 139.757C139.515 138 142.343 138 148 138H1053C1058.66 138 1061.49 138 1063.24 139.757C1065 141.515 1065 144.343 1065 150V215C1065 220.657 1065 223.485 1063.24 225.243C1061.49 227 1058.66 227 1053 227H148C142.343 227 139.515 227 137.757 225.243C136 223.485 136 220.657 136 215Z" fill="#333232"/>
<g clip-path="url(#clip0)">
<rect x="616" y="156" width="136.926" height="53" rx="2" fill="url(#paint2_linear)"/>
<rect width="139" height="2" transform="translate(614 156)" fill="#2CBDD2"/>
<rect width="135" height="2" transform="translate(618 207)" fill="#2CBDD2"/>
</g>
<path d="M409.182 172.555H411.096L413.996 179.863L416.925 172.555H418.868L415.272 181.342L419.216 190.651L426.669 172.41H428.873L420.144 193H418.346L414.025 182.821L409.675 193H407.906L399.206 172.41H401.381L408.863 190.651L412.778 181.342L409.182 172.555ZM435.935 193.29C434.485 193.29 433.19 192.932 432.049 192.217C430.909 191.502 430.01 190.545 429.352 189.346C428.695 188.147 428.366 186.833 428.366 185.402C428.366 183.991 428.685 182.695 429.323 181.516C429.981 180.337 430.88 179.399 432.02 178.703C433.161 177.988 434.456 177.63 435.906 177.63C437.395 177.63 438.7 177.988 439.821 178.703C440.943 179.418 441.813 180.366 442.431 181.545C443.069 182.705 443.388 183.981 443.388 185.373C443.388 185.682 443.379 185.943 443.359 186.156H430.425C430.522 187.239 430.831 188.205 431.353 189.056C431.875 189.887 432.542 190.554 433.354 191.057C434.166 191.54 435.056 191.782 436.022 191.782C437.008 191.782 437.936 191.531 438.806 191.028C439.676 190.525 440.295 189.868 440.662 189.056L442.373 189.52C442.064 190.255 441.581 190.912 440.923 191.492C440.285 192.053 439.541 192.497 438.69 192.826C437.84 193.135 436.921 193.29 435.935 193.29ZM430.367 184.735H441.532C441.455 183.652 441.155 182.695 440.633 181.864C440.111 181.013 439.444 180.356 438.632 179.892C437.82 179.409 436.921 179.167 435.935 179.167C434.949 179.167 434.05 179.409 433.238 179.892C432.426 180.356 431.759 181.013 431.237 181.864C430.735 182.695 430.445 183.652 430.367 184.735ZM452.956 193.29C451.506 193.29 450.211 192.932 449.07 192.217C447.929 191.502 447.03 190.545 446.373 189.346C445.716 188.147 445.387 186.833 445.387 185.402C445.387 183.991 445.706 182.695 446.344 181.516C447.001 180.337 447.9 179.399 449.041 178.703C450.182 177.988 451.477 177.63 452.927 177.63C454.416 177.63 455.721 177.988 456.842 178.703C457.963 179.418 458.833 180.366 459.452 181.545C460.09 182.705 460.409 183.981 460.409 185.373C460.409 185.682 460.399 185.943 460.38 186.156H447.446C447.543 187.239 447.852 188.205 448.374 189.056C448.896 189.887 449.563 190.554 450.375 191.057C451.187 191.54 452.076 191.782 453.043 191.782C454.029 191.782 454.957 191.531 455.827 191.028C456.697 190.525 457.316 189.868 457.683 189.056L459.394 189.52C459.085 190.255 458.601 190.912 457.944 191.492C457.306 192.053 456.562 192.497 455.711 192.826C454.86 193.135 453.942 193.29 452.956 193.29ZM447.388 184.735H458.553C458.476 183.652 458.176 182.695 457.654 181.864C457.132 181.013 456.465 180.356 455.653 179.892C454.841 179.409 453.942 179.167 452.956 179.167C451.97 179.167 451.071 179.409 450.259 179.892C449.447 180.356 448.78 181.013 448.258 181.864C447.755 182.695 447.465 183.652 447.388 184.735ZM474.239 193L468.642 185.257L465.423 188.273V193H463.451V171.83H465.423V186.156L473.978 177.92H476.153L469.976 184.097L476.385 193H474.239Z" fill="white"/>
<path d="M201.547 193V172.41H208.536C210.72 172.41 212.538 172.874 213.988 173.802C215.457 174.711 216.559 175.948 217.294 177.514C218.028 179.061 218.396 180.781 218.396 182.676C218.396 184.764 217.99 186.581 217.178 188.128C216.366 189.675 215.225 190.873 213.756 191.724C212.286 192.575 210.546 193 208.536 193H201.547ZM216.366 182.676C216.366 181.033 216.056 179.573 215.438 178.297C214.838 177.021 213.949 176.025 212.77 175.31C211.61 174.575 210.198 174.208 208.536 174.208H203.577V191.202H208.536C210.237 191.202 211.668 190.825 212.828 190.071C213.988 189.317 214.867 188.302 215.467 187.026C216.066 185.75 216.366 184.3 216.366 182.676ZM220.54 188.65C220.54 187.722 220.811 186.92 221.352 186.243C221.893 185.547 222.638 185.006 223.585 184.619C224.552 184.232 225.663 184.039 226.92 184.039C227.655 184.039 228.418 184.107 229.211 184.242C230.004 184.358 230.709 184.522 231.328 184.735V183.459C231.328 182.183 230.951 181.168 230.197 180.414C229.443 179.66 228.399 179.283 227.065 179.283C226.272 179.283 225.48 179.438 224.687 179.747C223.894 180.037 223.073 180.472 222.222 181.052L221.468 179.66C222.454 178.983 223.421 178.481 224.368 178.152C225.315 177.804 226.282 177.63 227.268 177.63C229.124 177.63 230.593 178.162 231.676 179.225C232.759 180.288 233.3 181.758 233.3 183.633V190.622C233.3 191.144 233.542 191.415 234.025 191.434V193C233.6 193.058 233.3 193.077 233.126 193.058C232.643 193.039 232.275 192.884 232.024 192.594C231.773 192.304 231.637 191.995 231.618 191.666L231.589 190.564C230.912 191.434 230.033 192.111 228.95 192.594C227.867 193.058 226.765 193.29 225.644 193.29C224.658 193.29 223.778 193.087 223.005 192.681C222.232 192.256 221.623 191.695 221.178 190.999C220.753 190.284 220.54 189.501 220.54 188.65ZM230.661 189.81C231.106 189.288 231.328 188.805 231.328 188.36V186.156C229.994 185.634 228.602 185.373 227.152 185.373C225.741 185.373 224.6 185.653 223.73 186.214C222.86 186.775 222.425 187.538 222.425 188.505C222.425 189.336 222.744 190.09 223.382 190.767C224.039 191.444 224.948 191.782 226.108 191.782C227.055 191.782 227.935 191.598 228.747 191.231C229.578 190.864 230.216 190.39 230.661 189.81ZM237.978 197.64C238.248 197.659 238.509 197.669 238.761 197.669C239.012 197.688 239.196 197.679 239.312 197.64C239.544 197.621 239.756 197.485 239.95 197.234C240.162 197.002 240.414 196.557 240.704 195.9C241.013 195.262 241.429 194.295 241.951 193L235.368 177.891H237.456L242.995 190.97L248.099 177.891H250.071L242.241 197.379C242.028 197.94 241.67 198.423 241.168 198.829C240.665 199.235 239.998 199.448 239.167 199.467C238.993 199.486 238.809 199.486 238.616 199.467C238.422 199.467 238.21 199.448 237.978 199.409V197.64Z" fill="white"/>
<path d="M661.551 193V176.238L654.098 189.259H652.822L645.34 176.238V193H643.31V172.41H645.398L653.431 186.504L661.522 172.41H663.581V193H661.551ZM674.547 193.29C673.097 193.29 671.801 192.932 670.661 192.217C669.539 191.502 668.66 190.554 668.022 189.375C667.384 188.176 667.065 186.881 667.065 185.489C667.065 184.078 667.384 182.782 668.022 181.603C668.679 180.404 669.568 179.447 670.69 178.732C671.83 177.997 673.116 177.63 674.547 177.63C675.997 177.63 677.282 177.997 678.404 178.732C679.544 179.447 680.434 180.404 681.072 181.603C681.729 182.782 682.058 184.078 682.058 185.489C682.058 186.881 681.739 188.176 681.101 189.375C680.463 190.554 679.573 191.502 678.433 192.217C677.311 192.932 676.016 193.29 674.547 193.29ZM669.066 185.518C669.066 186.639 669.307 187.664 669.791 188.592C670.293 189.501 670.96 190.226 671.792 190.767C672.623 191.289 673.541 191.55 674.547 191.55C675.552 191.55 676.47 191.279 677.302 190.738C678.133 190.197 678.8 189.462 679.303 188.534C679.805 187.606 680.057 186.581 680.057 185.46C680.057 184.339 679.805 183.314 679.303 182.386C678.8 181.458 678.133 180.723 677.302 180.182C676.47 179.641 675.552 179.37 674.547 179.37C673.561 179.37 672.652 179.65 671.821 180.211C670.989 180.752 670.322 181.487 669.82 182.415C669.317 183.343 669.066 184.377 669.066 185.518ZM698.058 193H696.086V184.561C696.086 182.782 695.815 181.487 695.274 180.675C694.752 179.844 693.94 179.428 692.838 179.428C692.064 179.428 691.301 179.621 690.547 180.008C689.793 180.375 689.126 180.888 688.546 181.545C687.985 182.183 687.579 182.918 687.328 183.749V193H685.356V177.891H687.154V181.313C687.753 180.211 688.633 179.322 689.793 178.645C690.953 177.968 692.209 177.63 693.563 177.63C694.684 177.63 695.573 177.901 696.231 178.442C696.888 178.964 697.352 179.718 697.623 180.704C697.913 181.671 698.058 182.821 698.058 184.155V193ZM709.371 192.275C709.139 192.372 708.714 192.546 708.095 192.797C707.477 193.048 706.761 193.174 705.949 193.174C705.099 193.174 704.354 192.932 703.716 192.449C703.078 191.966 702.759 191.241 702.759 190.274V179.457H700.671V177.891H702.759V172.787H704.731V177.891H708.211V179.457H704.731V189.723C704.77 190.284 704.963 190.699 705.311 190.97C705.679 191.221 706.094 191.347 706.558 191.347C707.1 191.347 707.583 191.26 708.008 191.086C708.453 190.893 708.733 190.757 708.849 190.68L709.371 192.275ZM724.537 193H722.565V184.561C722.565 181.139 721.405 179.428 719.085 179.428C718.331 179.428 717.596 179.621 716.881 180.008C716.166 180.375 715.528 180.888 714.967 181.545C714.426 182.183 714.039 182.918 713.807 183.749V193H711.835V171.83H713.807V181.313C714.406 180.192 715.238 179.302 716.301 178.645C717.384 177.968 718.534 177.63 719.752 177.63C720.912 177.63 721.84 177.91 722.536 178.471C723.232 179.012 723.735 179.776 724.044 180.762C724.373 181.729 724.537 182.86 724.537 184.155V193Z" fill="white"/>
<path d="M925.273 172.41L932.001 183.488L938.787 172.41H940.991L933.016 185.344V193H930.986V185.286L923.04 172.41H925.273ZM947.504 193.29C946.054 193.29 944.758 192.932 943.618 192.217C942.477 191.502 941.578 190.545 940.921 189.346C940.263 188.147 939.935 186.833 939.935 185.402C939.935 183.991 940.254 182.695 940.892 181.516C941.549 180.337 942.448 179.399 943.589 178.703C944.729 177.988 946.025 177.63 947.475 177.63C948.963 177.63 950.268 177.988 951.39 178.703C952.511 179.418 953.381 180.366 954 181.545C954.638 182.705 954.957 183.981 954.957 185.373C954.957 185.682 954.947 185.943 954.928 186.156H941.994C942.09 187.239 942.4 188.205 942.922 189.056C943.444 189.887 944.111 190.554 944.923 191.057C945.735 191.54 946.624 191.782 947.591 191.782C948.577 191.782 949.505 191.531 950.375 191.028C951.245 190.525 951.863 189.868 952.231 189.056L953.942 189.52C953.632 190.255 953.149 190.912 952.492 191.492C951.854 192.053 951.109 192.497 950.259 192.826C949.408 193.135 948.49 193.29 947.504 193.29ZM941.936 184.735H953.101C953.023 183.652 952.724 182.695 952.202 181.864C951.68 181.013 951.013 180.356 950.201 179.892C949.389 179.409 948.49 179.167 947.504 179.167C946.518 179.167 945.619 179.409 944.807 179.892C943.995 180.356 943.328 181.013 942.806 181.864C942.303 182.695 942.013 183.652 941.936 184.735ZM956.781 188.65C956.781 187.722 957.052 186.92 957.593 186.243C958.135 185.547 958.879 185.006 959.826 184.619C960.793 184.232 961.905 184.039 963.161 184.039C963.896 184.039 964.66 184.107 965.452 184.242C966.245 184.358 966.951 184.522 967.569 184.735V183.459C967.569 182.183 967.192 181.168 966.438 180.414C965.684 179.66 964.64 179.283 963.306 179.283C962.514 179.283 961.721 179.438 960.928 179.747C960.136 180.037 959.314 180.472 958.463 181.052L957.709 179.66C958.695 178.983 959.662 178.481 960.609 178.152C961.557 177.804 962.523 177.63 963.509 177.63C965.365 177.63 966.835 178.162 967.917 179.225C969 180.288 969.541 181.758 969.541 183.633V190.622C969.541 191.144 969.783 191.415 970.266 191.434V193C969.841 193.058 969.541 193.077 969.367 193.058C968.884 193.039 968.517 192.884 968.265 192.594C968.014 192.304 967.879 191.995 967.859 191.666L967.83 190.564C967.154 191.434 966.274 192.111 965.191 192.594C964.109 193.058 963.007 193.29 961.885 193.29C960.899 193.29 960.02 193.087 959.246 192.681C958.473 192.256 957.864 191.695 957.419 190.999C956.994 190.284 956.781 189.501 956.781 188.65ZM966.902 189.81C967.347 189.288 967.569 188.805 967.569 188.36V186.156C966.235 185.634 964.843 185.373 963.393 185.373C961.982 185.373 960.841 185.653 959.971 186.214C959.101 186.775 958.666 187.538 958.666 188.505C958.666 189.336 958.985 190.09 959.623 190.767C960.281 191.444 961.189 191.782 962.349 191.782C963.297 191.782 964.176 191.598 964.988 191.231C965.82 190.864 966.458 190.39 966.902 189.81ZM981.342 179.631C980.027 179.67 978.867 180.037 977.862 180.733C976.876 181.429 976.18 182.386 975.774 183.604V193H973.802V177.891H975.658V181.516C976.18 180.453 976.866 179.592 977.717 178.935C978.587 178.278 979.505 177.91 980.472 177.833C980.665 177.814 980.83 177.804 980.965 177.804C981.1 177.804 981.226 177.814 981.342 177.833V179.631Z" fill="white"/>
<path d="M930.338 56.8482V59.5142H909.827V28.9842H929.951V31.6502H912.837V42.6582H927.758V45.1952H912.837V56.8482H930.338ZM936.116 37.1112L942.695 45.8832L943.039 46.5282L943.383 45.8832L949.919 37.1112H953.23L944.716 48.3772L953.23 59.5142H949.919L943.383 50.7852L943.039 50.1832L942.695 50.7852L936.159 59.5142H932.848L941.319 48.3772L932.848 37.1112H936.116ZM968.534 59.9442C966.671 59.9442 964.994 59.4568 963.503 58.4822C962.041 57.5075 960.88 56.3035 960.02 54.8702V68.6732H957.096V37.1112H959.719V41.4542C960.608 40.0495 961.783 38.9172 963.245 38.0572C964.736 37.1685 966.341 36.7242 968.061 36.7242C969.609 36.7242 971.028 37.0538 972.318 37.7132C973.608 38.3438 974.726 39.2038 975.672 40.2932C976.647 41.3825 977.392 42.6295 977.908 44.0342C978.424 45.4102 978.682 46.8435 978.682 48.3342C978.682 50.4268 978.252 52.3618 977.392 54.1392C976.561 55.8878 975.371 57.2925 973.823 58.3532C972.304 59.4138 970.541 59.9442 968.534 59.9442ZM967.717 57.3642C969.351 57.3642 970.756 56.9342 971.931 56.0742C973.135 55.1855 974.067 54.0532 974.726 52.6772C975.385 51.3012 975.715 49.8535 975.715 48.3342C975.715 46.7288 975.342 45.2382 974.597 43.8622C973.852 42.4862 972.848 41.3825 971.587 40.5512C970.354 39.7198 968.95 39.3042 967.373 39.3042C966.398 39.3042 965.366 39.5622 964.277 40.0782C963.216 40.5655 962.27 41.2392 961.439 42.0992C960.636 42.9305 960.163 43.8478 960.02 44.8512V51.7312C960.679 53.3078 961.711 54.6408 963.116 55.7302C964.521 56.8195 966.054 57.3642 967.717 57.3642ZM993.31 59.9442C991.16 59.9442 989.239 59.4138 987.548 58.3532C985.857 57.2925 984.524 55.8735 983.549 54.0962C982.574 52.3188 982.087 50.3695 982.087 48.2482C982.087 46.1555 982.56 44.2348 983.506 42.4862C984.481 40.7375 985.814 39.3472 987.505 38.3152C989.196 37.2545 991.117 36.7242 993.267 36.7242C995.474 36.7242 997.409 37.2545 999.072 38.3152C1000.73 39.3758 1002.02 40.7805 1002.94 42.5292C1003.89 44.2492 1004.36 46.1412 1004.36 48.2052C1004.36 48.6638 1004.35 49.0508 1004.32 49.3662H985.14C985.283 50.9715 985.742 52.4048 986.516 53.6662C987.29 54.8988 988.279 55.8878 989.483 56.6332C990.687 57.3498 992.006 57.7082 993.439 57.7082C994.901 57.7082 996.277 57.3355 997.567 56.5902C998.857 55.8448 999.774 54.8702 1000.32 53.6662L1002.86 54.3542C1002.4 55.4435 1001.68 56.4182 1000.71 57.2782C999.76 58.1095 998.656 58.7688 997.395 59.2562C996.134 59.7148 994.772 59.9442 993.31 59.9442ZM985.054 47.2592H1001.61C1001.49 45.6538 1001.05 44.2348 1000.28 43.0022C999.502 41.7408 998.513 40.7662 997.309 40.0782C996.105 39.3615 994.772 39.0032 993.31 39.0032C991.848 39.0032 990.515 39.3615 989.311 40.0782C988.107 40.7662 987.118 41.7408 986.344 43.0022C985.599 44.2348 985.169 45.6538 985.054 47.2592ZM1027.71 59.5142H1024.78V47.0012C1024.78 44.3638 1024.38 42.4432 1023.58 41.2392C1022.8 40.0065 1021.6 39.3902 1019.97 39.3902C1018.82 39.3902 1017.69 39.6768 1016.57 40.2502C1015.45 40.7948 1014.46 41.5545 1013.6 42.5292C1012.77 43.4752 1012.17 44.5645 1011.8 45.7972V59.5142H1008.87V37.1112H1011.54V42.1852C1012.43 40.5512 1013.73 39.2325 1015.45 38.2292C1017.17 37.2258 1019.03 36.7242 1021.04 36.7242C1022.7 36.7242 1024.02 37.1255 1025 37.9282C1025.97 38.7022 1026.66 39.8202 1027.06 41.2822C1027.49 42.7155 1027.71 44.4212 1027.71 46.3992V59.5142ZM1041.29 59.9442C1039.46 59.9442 1037.75 59.6432 1036.18 59.0412C1034.63 58.4105 1033.27 57.4932 1032.09 56.2892L1033.3 54.2252C1034.56 55.4005 1035.82 56.2605 1037.08 56.8052C1038.37 57.3212 1039.73 57.5792 1041.17 57.5792C1042.89 57.5792 1044.29 57.2352 1045.38 56.5472C1046.5 55.8305 1047.06 54.8128 1047.06 53.4942C1047.06 52.6055 1046.78 51.9318 1046.24 51.4732C1045.72 50.9858 1044.96 50.5988 1043.96 50.3122C1042.99 50.0255 1041.81 49.6958 1040.43 49.3232C1038.89 48.8932 1037.58 48.4488 1036.52 47.9902C1035.49 47.5028 1034.7 46.9008 1034.16 46.1842C1033.64 45.4388 1033.38 44.4785 1033.38 43.3032C1033.38 41.8698 1033.74 40.6658 1034.46 39.6912C1035.2 38.7165 1036.21 37.9855 1037.47 37.4982C1038.76 36.9822 1040.19 36.7242 1041.77 36.7242C1043.49 36.7242 1045.01 36.9965 1046.33 37.5412C1047.64 38.0858 1048.72 38.8455 1049.55 39.8202L1048.13 41.7982C1047.36 40.8808 1046.4 40.2072 1045.25 39.7772C1044.13 39.3185 1042.91 39.0892 1041.6 39.0892C1040.68 39.0892 1039.8 39.2182 1038.97 39.4762C1038.14 39.7055 1037.45 40.1068 1036.91 40.6802C1036.39 41.2248 1036.13 41.9845 1036.13 42.9592C1036.13 44.1632 1036.58 44.9945 1037.47 45.4532C1038.36 45.9118 1039.7 46.3992 1041.51 46.9152C1043.2 47.3738 1044.68 47.8325 1045.94 48.2912C1047.2 48.7498 1048.17 49.3662 1048.86 50.1402C1049.55 50.8855 1049.89 51.9318 1049.89 53.2792C1049.89 55.3718 1049.11 57.0058 1047.53 58.1812C1045.95 59.3565 1043.87 59.9442 1041.29 59.9442ZM1064.4 59.9442C1062.25 59.9442 1060.33 59.4138 1058.64 58.3532C1056.95 57.2925 1055.62 55.8735 1054.64 54.0962C1053.67 52.3188 1053.18 50.3695 1053.18 48.2482C1053.18 46.1555 1053.65 44.2348 1054.6 42.4862C1055.57 40.7375 1056.91 39.3472 1058.6 38.3152C1060.29 37.2545 1062.21 36.7242 1064.36 36.7242C1066.57 36.7242 1068.5 37.2545 1070.16 38.3152C1071.83 39.3758 1073.12 40.7805 1074.03 42.5292C1074.98 44.2492 1075.45 46.1412 1075.45 48.2052C1075.45 48.6638 1075.44 49.0508 1075.41 49.3662H1056.23C1056.38 50.9715 1056.83 52.4048 1057.61 53.6662C1058.38 54.8988 1059.37 55.8878 1060.58 56.6332C1061.78 57.3498 1063.1 57.7082 1064.53 57.7082C1065.99 57.7082 1067.37 57.3355 1068.66 56.5902C1069.95 55.8448 1070.87 54.8702 1071.41 53.6662L1073.95 54.3542C1073.49 55.4435 1072.77 56.4182 1071.8 57.2782C1070.85 58.1095 1069.75 58.7688 1068.49 59.2562C1067.23 59.7148 1065.86 59.9442 1064.4 59.9442ZM1056.15 47.2592H1072.7C1072.59 45.6538 1072.14 44.2348 1071.37 43.0022C1070.59 41.7408 1069.61 40.7662 1068.4 40.0782C1067.2 39.3615 1065.86 39.0032 1064.4 39.0032C1062.94 39.0032 1061.61 39.3615 1060.4 40.0782C1059.2 40.7662 1058.21 41.7408 1057.44 43.0022C1056.69 44.2348 1056.26 45.6538 1056.15 47.2592Z" fill="#808080"/>
</g>
<defs>
<filter id="filter0_d" x="0" y="0.51416" width="1139" height="914" filterUnits="userSpaceOnUse" color-interpolation-filters="sRGB">
<feFlood flood-opacity="0" result="BackgroundImageFix"/>
<feColorMatrix in="SourceAlpha" type="matrix" values="0 0 0 0 0 0 0 0 0 0 0 0 0 0 0 0 0 0 127 0" result="hardAlpha"/>
<feOffset dx="-25" dy="30"/>
<feGaussianBlur stdDeviation="10"/>
<feComposite in2="hardAlpha" operator="out"/>
<feColorMatrix type="matrix" values="0 0 0 0 0 0 0 0 0 0 0 0 0 0 0 0 0 0 0.25 0"/>
<feBlend mode="normal" in2="BackgroundImageFix" result="effect1_dropShadow"/>
<feBlend mode="normal" in="SourceGraphic" in2="effect1_dropShadow" result="shape"/>
</filter>
<filter id="filter1_d" x="268" y="267" width="92" height="92" filterUnits="userSpaceOnUse" color-interpolation-filters="sRGB">
<feFlood flood-opacity="0" result="BackgroundImageFix"/>
<feColorMatrix in="SourceAlpha" type="matrix" values="0 0 0 0 0 0 0 0 0 0 0 0 0 0 0 0 0 0 127 0" result="hardAlpha"/>
<feMorphology radius="1" operator="dilate" in="SourceAlpha" result="effect1_dropShadow"/>
<feOffset dy="4"/>
<feComposite in2="hardAlpha" operator="out"/>
<feColorMatrix type="matrix" values="0 0 0 0 0 0 0 0 0 0 0 0 0 0 0 0 0 0 0.37 0"/>
<feBlend mode="normal" in2="BackgroundImageFix" result="effect1_dropShadow"/>
<feBlend mode="normal" in="SourceGraphic" in2="effect1_dropShadow" result="shape"/>
</filter>
<radialGradient id="paint0_radial" cx="0" cy="0" r="1" gradientUnits="userSpaceOnUse" gradientTransform="translate(601 527) rotate(90) scale(232 234)">
<stop stop-color="#90EADA"/>
<stop offset="1" stop-color="#047762"/>
</radialGradient>
<radialGradient id="paint1_radial" cx="0" cy="0" r="1" gradientUnits="userSpaceOnUse" gradientTransform="translate(601 527.486) rotate(90) scale(164 176)">
<stop/>
<stop offset="0.0001" stop-color="#001E25"/>
<stop offset="1" stop-opacity="0.85"/>
</radialGradient>
<linearGradient id="paint2_linear" x1="752.926" y1="209" x2="616" y2="202.507" gradientUnits="userSpaceOnUse">
<stop stop-color="#222222"/>
<stop offset="1" stop-color="#181818"/>
</linearGradient>
<clipPath id="clip0">
<rect x="616" y="156" width="136.926" height="53" rx="2" fill="white"/>
</clipPath>
</defs>
</svg>
