<svg width="332" height="183" viewBox="0 0 332 183" fill="none" xmlns="http://www.w3.org/2000/svg">
<g filter="url(#filter0_d)">
<rect x="11" width="321" height="171" rx="8" fill="#FFFFFA"/>
<rect width="50" height="50" transform="translate(21 12)" fill="#CCF1DD"/>
<path d="M57.6712 40.4165C56.7087 43.2165 54.4045 45.579 51.2545 46.8186L49.417 47.5478V49.1665H43.5837V47.5478L41.7316 46.8186C38.5816 45.579 36.2774 43.2165 35.3149 40.4165H57.6712ZM61.0837 22.9165L34.8337 25.8186V37.4998H31.917C31.917 42.8811 35.5191 47.504 40.667 49.5311V52.0832H52.3337V49.5311C57.4816 47.504 61.0837 42.8811 61.0837 37.4998H44.3128V31.6665H61.0837V29.479H44.3128V26.9707L61.0837 25.1186V22.9165ZM40.667 29.479V27.379L42.1253 27.2186V29.479H40.667ZM37.0212 29.479V27.7873L38.4795 27.6269V29.479H37.0212ZM40.667 37.4998V31.6665H42.1253V37.4998H40.667ZM37.0212 37.4998V31.6665H38.4795V37.4998H37.0212Z" fill="#080809"/>
<path d="M81.31 37C81.17 37 81.051 36.958 80.953 36.874C80.869 36.776 80.827 36.657 80.827 36.517V22.804C80.827 22.65 80.869 22.531 80.953 22.447C81.051 22.349 81.17 22.3 81.31 22.3H86.434C88.044 22.3 89.304 22.678 90.214 23.434C91.124 24.19 91.579 25.282 91.579 26.71C91.579 27.774 91.313 28.649 90.781 29.335C90.263 30.021 89.528 30.497 88.576 30.763L91.81 36.349C91.852 36.433 91.873 36.51 91.873 36.58C91.873 36.692 91.824 36.79 91.726 36.874C91.642 36.958 91.544 37 91.432 37H90.424C90.214 37 90.046 36.951 89.92 36.853C89.808 36.755 89.703 36.615 89.605 36.433L86.56 31.099H82.885V36.517C82.885 36.657 82.836 36.776 82.738 36.874C82.64 36.958 82.521 37 82.381 37H81.31ZM86.35 29.314C88.436 29.314 89.479 28.439 89.479 26.689C89.479 24.939 88.436 24.064 86.35 24.064H82.885V29.314H86.35ZM97.3597 37.21C96.6737 37.21 96.0367 37.07 95.4487 36.79C94.8607 36.51 94.3917 36.132 94.0417 35.656C93.7057 35.166 93.5377 34.627 93.5377 34.039C93.5377 33.115 93.9157 32.359 94.6717 31.771C95.4417 31.169 96.4777 30.777 97.7797 30.595L100.909 30.154V29.545C100.909 28.117 100.09 27.403 98.4517 27.403C97.8357 27.403 97.3317 27.536 96.9397 27.802C96.5477 28.054 96.2537 28.355 96.0577 28.705C96.0157 28.831 95.9597 28.922 95.8897 28.978C95.8337 29.034 95.7497 29.062 95.6377 29.062H94.7347C94.6087 29.062 94.4967 29.02 94.3987 28.936C94.3147 28.838 94.2727 28.726 94.2727 28.6C94.2867 28.264 94.4407 27.886 94.7347 27.466C95.0427 27.032 95.5117 26.661 96.1417 26.353C96.7717 26.031 97.5487 25.87 98.4727 25.87C100.041 25.87 101.168 26.241 101.854 26.983C102.54 27.711 102.883 28.621 102.883 29.713V36.517C102.883 36.657 102.834 36.776 102.736 36.874C102.652 36.958 102.54 37 102.4 37H101.434C101.294 37 101.175 36.958 101.077 36.874C100.993 36.776 100.951 36.657 100.951 36.517V35.614C100.643 36.062 100.195 36.44 99.6067 36.748C99.0187 37.056 98.2697 37.21 97.3597 37.21ZM97.8007 35.635C98.7107 35.635 99.4527 35.341 100.027 34.753C100.615 34.151 100.909 33.29 100.909 32.17V31.582L98.4727 31.939C97.4787 32.079 96.7297 32.317 96.2257 32.653C95.7217 32.975 95.4697 33.388 95.4697 33.892C95.4697 34.452 95.7007 34.886 96.1627 35.194C96.6247 35.488 97.1707 35.635 97.8007 35.635ZM106.385 37C106.245 37 106.126 36.958 106.028 36.874C105.944 36.776 105.902 36.657 105.902 36.517V26.563C105.902 26.423 105.944 26.311 106.028 26.227C106.126 26.129 106.245 26.08 106.385 26.08H107.33C107.47 26.08 107.582 26.129 107.666 26.227C107.764 26.311 107.813 26.423 107.813 26.563V27.298C108.541 26.346 109.556 25.87 110.858 25.87C112.412 25.87 113.511 26.514 114.155 27.802C114.491 27.214 114.967 26.745 115.583 26.395C116.199 26.045 116.892 25.87 117.662 25.87C118.81 25.87 119.748 26.262 120.476 27.046C121.204 27.83 121.568 28.964 121.568 30.448V36.517C121.568 36.657 121.519 36.776 121.421 36.874C121.337 36.958 121.225 37 121.085 37H120.098C119.958 37 119.839 36.958 119.741 36.874C119.657 36.776 119.615 36.657 119.615 36.517V30.637C119.615 29.545 119.384 28.761 118.922 28.285C118.474 27.809 117.879 27.571 117.137 27.571C116.479 27.571 115.912 27.816 115.436 28.306C114.96 28.782 114.722 29.559 114.722 30.637V36.517C114.722 36.657 114.673 36.776 114.575 36.874C114.491 36.958 114.379 37 114.239 37H113.252C113.112 37 112.993 36.958 112.895 36.874C112.811 36.776 112.769 36.657 112.769 36.517V30.637C112.769 29.545 112.531 28.761 112.055 28.285C111.593 27.809 111.005 27.571 110.291 27.571C109.633 27.571 109.066 27.816 108.59 28.306C108.114 28.782 107.876 29.552 107.876 30.616V36.517C107.876 36.657 107.827 36.776 107.729 36.874C107.645 36.958 107.533 37 107.393 37H106.385ZM128.932 37.21C127.49 37.21 126.335 36.769 125.467 35.887C124.613 34.991 124.144 33.773 124.06 32.233L124.039 31.519L124.06 30.826C124.158 29.314 124.634 28.11 125.488 27.214C126.356 26.318 127.497 25.87 128.911 25.87C130.465 25.87 131.669 26.367 132.523 27.361C133.377 28.341 133.804 29.671 133.804 31.351V31.708C133.804 31.848 133.755 31.967 133.657 32.065C133.573 32.149 133.461 32.191 133.321 32.191H126.055V32.38C126.097 33.29 126.37 34.067 126.874 34.711C127.392 35.341 128.071 35.656 128.911 35.656C129.555 35.656 130.08 35.53 130.486 35.278C130.906 35.012 131.214 34.739 131.41 34.459C131.536 34.291 131.627 34.193 131.683 34.165C131.753 34.123 131.872 34.102 132.04 34.102H133.069C133.195 34.102 133.3 34.137 133.384 34.207C133.468 34.277 133.51 34.375 133.51 34.501C133.51 34.809 133.314 35.18 132.922 35.614C132.544 36.048 132.005 36.426 131.305 36.748C130.619 37.056 129.828 37.21 128.932 37.21ZM131.809 30.742V30.679C131.809 29.713 131.543 28.929 131.011 28.327C130.493 27.711 129.793 27.403 128.911 27.403C128.029 27.403 127.329 27.711 126.811 28.327C126.307 28.929 126.055 29.713 126.055 30.679V30.742H131.809ZM136.798 37C136.658 37 136.539 36.958 136.441 36.874C136.357 36.776 136.315 36.657 136.315 36.517V26.563C136.315 26.423 136.357 26.311 136.441 26.227C136.539 26.129 136.658 26.08 136.798 26.08H137.785C137.925 26.08 138.037 26.129 138.121 26.227C138.219 26.311 138.268 26.423 138.268 26.563V27.487C138.674 26.969 139.15 26.57 139.696 26.29C140.256 26.01 140.949 25.87 141.775 25.87C143.119 25.87 144.162 26.304 144.904 27.172C145.66 28.026 146.038 29.167 146.038 30.595V36.517C146.038 36.657 145.989 36.776 145.891 36.874C145.807 36.958 145.695 37 145.555 37H144.505C144.365 37 144.246 36.958 144.148 36.874C144.064 36.776 144.022 36.657 144.022 36.517V30.7C144.022 29.706 143.777 28.936 143.287 28.39C142.811 27.844 142.118 27.571 141.208 27.571C140.326 27.571 139.626 27.851 139.108 28.411C138.59 28.957 138.331 29.72 138.331 30.7V36.517C138.331 36.657 138.282 36.776 138.184 36.874C138.1 36.958 137.988 37 137.848 37H136.798ZM158.839 37.21C157.313 37.21 156.046 36.832 155.038 36.076C154.03 35.32 153.498 34.214 153.442 32.758C153.442 32.632 153.484 32.527 153.568 32.443C153.652 32.345 153.764 32.296 153.904 32.296H155.038C155.332 32.296 155.514 32.457 155.584 32.779C155.668 33.675 156.011 34.34 156.613 34.774C157.215 35.208 157.971 35.425 158.881 35.425C159.931 35.425 160.736 35.082 161.296 34.396C161.87 33.696 162.157 32.758 162.157 31.582V24.127H154.702C154.562 24.127 154.443 24.085 154.345 24.001C154.261 23.903 154.219 23.784 154.219 23.644V22.783C154.219 22.643 154.261 22.531 154.345 22.447C154.443 22.349 154.562 22.3 154.702 22.3H163.753C163.907 22.3 164.026 22.349 164.11 22.447C164.208 22.531 164.257 22.65 164.257 22.804V31.624C164.257 33.332 163.774 34.69 162.808 35.698C161.856 36.706 160.533 37.21 158.839 37.21ZM167.822 24.043C167.682 24.043 167.563 24.001 167.465 23.917C167.381 23.819 167.339 23.7 167.339 23.56V22.426C167.339 22.286 167.381 22.167 167.465 22.069C167.563 21.971 167.682 21.922 167.822 21.922H169.145C169.285 21.922 169.404 21.971 169.502 22.069C169.6 22.167 169.649 22.286 169.649 22.426V23.56C169.649 23.7 169.6 23.819 169.502 23.917C169.404 24.001 169.285 24.043 169.145 24.043H167.822ZM167.99 37C167.85 37 167.731 36.958 167.633 36.874C167.549 36.776 167.507 36.657 167.507 36.517V26.563C167.507 26.423 167.549 26.311 167.633 26.227C167.731 26.129 167.85 26.08 167.99 26.08H168.998C169.138 26.08 169.25 26.129 169.334 26.227C169.432 26.311 169.481 26.423 169.481 26.563V36.517C169.481 36.657 169.432 36.776 169.334 36.874C169.25 36.958 169.138 37 168.998 37H167.99ZM173.076 37C172.936 37 172.817 36.958 172.719 36.874C172.635 36.776 172.593 36.657 172.593 36.517V26.584C172.593 26.444 172.635 26.325 172.719 26.227C172.817 26.129 172.936 26.08 173.076 26.08H174.042C174.182 26.08 174.301 26.129 174.399 26.227C174.497 26.325 174.546 26.444 174.546 26.584V27.508C175.12 26.556 176.1 26.08 177.486 26.08H178.305C178.445 26.08 178.557 26.129 178.641 26.227C178.739 26.311 178.788 26.423 178.788 26.563V27.424C178.788 27.564 178.739 27.676 178.641 27.76C178.557 27.844 178.445 27.886 178.305 27.886H177.045C176.289 27.886 175.694 28.11 175.26 28.558C174.826 28.992 174.609 29.587 174.609 30.343V36.517C174.609 36.657 174.56 36.776 174.462 36.874C174.364 36.958 174.245 37 174.105 37H173.076ZM184.839 37.21C183.299 37.21 182.102 36.776 181.248 35.908C180.408 35.04 179.96 33.885 179.904 32.443L179.883 31.54L179.904 30.637C179.96 29.209 180.415 28.061 181.269 27.193C182.123 26.311 183.313 25.87 184.839 25.87C186.365 25.87 187.555 26.311 188.409 27.193C189.263 28.061 189.718 29.209 189.774 30.637C189.788 30.791 189.795 31.092 189.795 31.54C189.795 31.988 189.788 32.289 189.774 32.443C189.718 33.885 189.263 35.04 188.409 35.908C187.569 36.776 186.379 37.21 184.839 37.21ZM184.839 35.593C185.721 35.593 186.414 35.313 186.918 34.753C187.436 34.193 187.716 33.388 187.758 32.338C187.772 32.198 187.779 31.932 187.779 31.54C187.779 31.148 187.772 30.882 187.758 30.742C187.716 29.692 187.436 28.887 186.918 28.327C186.414 27.767 185.721 27.487 184.839 27.487C183.957 27.487 183.257 27.767 182.739 28.327C182.221 28.887 181.948 29.692 181.92 30.742L181.899 31.54L181.92 32.338C181.948 33.388 182.221 34.193 182.739 34.753C183.257 35.313 183.957 35.593 184.839 35.593Z" fill="#616161"/>
<path d="M86.5537 51.6646C86.5537 52.8283 86.355 53.693 85.9575 54.2588C85.5601 54.8245 84.9388 55.1074 84.0938 55.1074C83.2594 55.1074 82.6418 54.8317 82.2407 54.2803C81.8397 53.7253 81.632 52.8981 81.6177 51.7988V50.4722C81.6177 49.3228 81.8164 48.4688 82.2139 47.9102C82.6113 47.3516 83.2344 47.0723 84.083 47.0723C84.9245 47.0723 85.5439 47.3426 85.9414 47.8833C86.3389 48.4204 86.543 49.2511 86.5537 50.3755V51.6646ZM85.5601 50.3057C85.5601 49.4642 85.4419 48.8519 85.2056 48.4688C84.9692 48.082 84.5951 47.8887 84.083 47.8887C83.5745 47.8887 83.2039 48.0802 82.9712 48.4634C82.7384 48.8465 82.6185 49.4355 82.6113 50.2305V51.8203C82.6113 52.6654 82.7331 53.2902 82.9766 53.6948C83.2236 54.0959 83.596 54.2964 84.0938 54.2964C84.5843 54.2964 84.9478 54.1066 85.1841 53.7271C85.424 53.3475 85.5493 52.7495 85.5601 51.9331V50.3057ZM92.9507 55H87.8267V54.2856L90.5337 51.2778C90.9347 50.8231 91.2104 50.4543 91.3608 50.1714C91.5148 49.8849 91.5918 49.5895 91.5918 49.2852C91.5918 48.877 91.4683 48.5422 91.2212 48.2808C90.9741 48.0194 90.6447 47.8887 90.2329 47.8887C89.7388 47.8887 89.3538 48.0301 89.0781 48.313C88.806 48.5923 88.6699 48.9826 88.6699 49.4839H87.6763C87.6763 48.7642 87.9072 48.1823 88.3691 47.7383C88.8346 47.2943 89.4559 47.0723 90.2329 47.0723C90.9598 47.0723 91.5345 47.2638 91.957 47.647C92.3796 48.0265 92.5908 48.5332 92.5908 49.167C92.5908 49.9368 92.1003 50.8535 91.1191 51.917L89.0244 54.189H92.9507V55ZM100.266 47.1797H101.303V52.7173C101.303 53.4657 101.077 54.0511 100.626 54.4736C100.178 54.8962 99.5804 55.1074 98.832 55.1074C98.055 55.1074 97.4499 54.9087 97.0166 54.5112C96.5833 54.1138 96.3667 53.557 96.3667 52.8408H97.3979C97.3979 53.2884 97.5197 53.6375 97.7632 53.8882C98.0103 54.1388 98.3665 54.2642 98.832 54.2642C99.2581 54.2642 99.6019 54.1299 99.8633 53.8613C100.128 53.5928 100.263 53.2168 100.266 52.7334V47.1797ZM106.491 54.4253C106.104 54.88 105.537 55.1074 104.789 55.1074C104.169 55.1074 103.696 54.9284 103.371 54.5703C103.048 54.2087 102.885 53.6751 102.882 52.9697V49.1885H103.875V52.9429C103.875 53.8237 104.234 54.2642 104.95 54.2642C105.709 54.2642 106.214 53.9813 106.464 53.4155V49.1885H107.458V55H106.513L106.491 54.4253ZM110.052 55H109.059V46.75H110.052V55ZM111.615 56.5576L111.051 56.1709C111.388 55.7018 111.563 55.2184 111.578 54.7207V53.8237H112.55V54.6025C112.55 54.9642 112.46 55.3258 112.281 55.6875C112.106 56.0492 111.884 56.3392 111.615 56.5576ZM121.557 55H116.433V54.2856L119.14 51.2778C119.541 50.8231 119.817 50.4543 119.967 50.1714C120.121 49.8849 120.198 49.5895 120.198 49.2852C120.198 48.877 120.075 48.5422 119.828 48.2808C119.581 48.0194 119.251 47.8887 118.839 47.8887C118.345 47.8887 117.96 48.0301 117.685 48.313C117.412 48.5923 117.276 48.9826 117.276 49.4839H116.283C116.283 48.7642 116.514 48.1823 116.976 47.7383C117.441 47.2943 118.062 47.0723 118.839 47.0723C119.566 47.0723 120.141 47.2638 120.563 47.647C120.986 48.0265 121.197 48.5332 121.197 49.167C121.197 49.9368 120.707 50.8535 119.726 51.917L117.631 54.189H121.557V55ZM127.514 51.6646C127.514 52.8283 127.315 53.693 126.917 54.2588C126.52 54.8245 125.899 55.1074 125.054 55.1074C124.219 55.1074 123.602 54.8317 123.201 54.2803C122.8 53.7253 122.592 52.8981 122.578 51.7988V50.4722C122.578 49.3228 122.776 48.4688 123.174 47.9102C123.571 47.3516 124.194 47.0723 125.043 47.0723C125.884 47.0723 126.504 47.3426 126.901 47.8833C127.299 48.4204 127.503 49.2511 127.514 50.3755V51.6646ZM126.52 50.3057C126.52 49.4642 126.402 48.8519 126.166 48.4688C125.929 48.082 125.555 47.8887 125.043 47.8887C124.535 47.8887 124.164 48.0802 123.931 48.4634C123.698 48.8465 123.578 49.4355 123.571 50.2305V51.8203C123.571 52.6654 123.693 53.2902 123.937 53.6948C124.184 54.0959 124.556 54.2964 125.054 54.2964C125.544 54.2964 125.908 54.1066 126.144 53.7271C126.384 53.3475 126.509 52.7495 126.52 51.9331V50.3057ZM130.231 50.6064H130.978C131.447 50.5993 131.816 50.4757 132.084 50.2358C132.353 49.9959 132.487 49.6719 132.487 49.2637C132.487 48.347 132.031 47.8887 131.118 47.8887C130.688 47.8887 130.344 48.0122 130.086 48.2593C129.832 48.5028 129.705 48.8268 129.705 49.2314H128.711C128.711 48.612 128.937 48.0981 129.388 47.6899C129.843 47.2782 130.419 47.0723 131.118 47.0723C131.855 47.0723 132.434 47.2674 132.853 47.6577C133.271 48.048 133.481 48.5905 133.481 49.2852C133.481 49.6253 133.37 49.9548 133.148 50.2734C132.93 50.5921 132.631 50.8302 132.251 50.9878C132.681 51.1239 133.012 51.3494 133.245 51.6646C133.481 51.9797 133.599 52.3646 133.599 52.8193C133.599 53.5212 133.37 54.078 132.912 54.4897C132.453 54.9015 131.857 55.1074 131.123 55.1074C130.389 55.1074 129.791 54.9087 129.329 54.5112C128.871 54.1138 128.642 53.5892 128.642 52.9375H129.641C129.641 53.3493 129.775 53.6787 130.043 53.9258C130.312 54.1729 130.672 54.2964 131.123 54.2964C131.603 54.2964 131.97 54.1711 132.224 53.9204C132.478 53.6698 132.605 53.3099 132.605 52.8408C132.605 52.3861 132.466 52.0369 132.187 51.7935C131.907 51.55 131.504 51.4246 130.978 51.4175H130.231V50.6064ZM140.012 47.7383L136.773 55H135.731L138.959 47.9961H134.727V47.1797H140.012V47.7383Z" fill="#676767"/>
<path d="M30.0156 105.758C30.0156 105.367 29.8672 105.065 29.5703 104.852C29.2786 104.633 28.7656 104.445 28.0312 104.289C27.3021 104.133 26.7214 103.945 26.2891 103.727C25.862 103.508 25.5443 103.247 25.3359 102.945C25.1328 102.643 25.0312 102.284 25.0312 101.867C25.0312 101.174 25.3229 100.589 25.9062 100.109C26.4948 99.6302 27.2448 99.3906 28.1562 99.3906C29.1146 99.3906 29.8906 99.638 30.4844 100.133C31.0833 100.628 31.3828 101.26 31.3828 102.031H29.9297C29.9297 101.635 29.7604 101.294 29.4219 101.008C29.0885 100.721 28.6667 100.578 28.1562 100.578C27.6302 100.578 27.2188 100.693 26.9219 100.922C26.625 101.151 26.4766 101.451 26.4766 101.82C26.4766 102.169 26.6146 102.432 26.8906 102.609C27.1667 102.786 27.6641 102.956 28.3828 103.117C29.1068 103.279 29.6927 103.471 30.1406 103.695C30.5885 103.919 30.9193 104.19 31.1328 104.508C31.3516 104.82 31.4609 105.203 31.4609 105.656C31.4609 106.411 31.1589 107.018 30.5547 107.477C29.9505 107.93 29.1667 108.156 28.2031 108.156C27.526 108.156 26.9271 108.036 26.4062 107.797C25.8854 107.557 25.4766 107.224 25.1797 106.797C24.888 106.365 24.7422 105.898 24.7422 105.398H26.1875C26.2135 105.883 26.4062 106.268 26.7656 106.555C27.1302 106.836 27.6094 106.977 28.2031 106.977C28.75 106.977 29.1875 106.867 29.5156 106.648C29.849 106.424 30.0156 106.128 30.0156 105.758ZM40.4844 103.867C40.4844 105.154 40.1901 106.19 39.6016 106.977C39.013 107.763 38.2161 108.156 37.2109 108.156C36.1849 108.156 35.3776 107.831 34.7891 107.18V111.25H33.3438V99.5469H34.6641L34.7344 100.484C35.3229 99.7552 36.1406 99.3906 37.1875 99.3906C38.2031 99.3906 39.0052 99.7734 39.5938 100.539C40.1875 101.305 40.4844 102.37 40.4844 103.734V103.867ZM39.0391 103.703C39.0391 102.75 38.8359 101.997 38.4297 101.445C38.0234 100.893 37.4661 100.617 36.7578 100.617C35.8828 100.617 35.2266 101.005 34.7891 101.781V105.82C35.2214 106.591 35.8828 106.977 36.7734 106.977C37.4661 106.977 38.0156 106.703 38.4219 106.156C38.8333 105.604 39.0391 104.786 39.0391 103.703ZM43.8984 108H42.4531V96H43.8984V108ZM47.7891 108H46.3438V99.5469H47.7891V108ZM46.2266 97.3047C46.2266 97.0703 46.2969 96.8724 46.4375 96.7109C46.5833 96.5495 46.7969 96.4688 47.0781 96.4688C47.3594 96.4688 47.5729 96.5495 47.7188 96.7109C47.8646 96.8724 47.9375 97.0703 47.9375 97.3047C47.9375 97.5391 47.8646 97.7344 47.7188 97.8906C47.5729 98.0469 47.3594 98.125 47.0781 98.125C46.7969 98.125 46.5833 98.0469 46.4375 97.8906C46.2969 97.7344 46.2266 97.5391 46.2266 97.3047ZM52.0703 97.5V99.5469H53.6484V100.664H52.0703V105.906C52.0703 106.245 52.1406 106.5 52.2812 106.672C52.4219 106.839 52.6615 106.922 53 106.922C53.1667 106.922 53.3958 106.891 53.6875 106.828V108C53.3073 108.104 52.9375 108.156 52.5781 108.156C51.9323 108.156 51.4453 107.961 51.1172 107.57C50.7891 107.18 50.625 106.625 50.625 105.906V100.664H49.0859V99.5469H50.625V97.5H52.0703ZM66.7969 106.008L68.4219 99.5469H69.8672L67.4062 108H66.2344L64.1797 101.594L62.1797 108H61.0078L58.5547 99.5469H59.9922L61.6562 105.875L63.625 99.5469H64.7891L66.7969 106.008ZM72.9141 108H71.4688V99.5469H72.9141V108ZM71.3516 97.3047C71.3516 97.0703 71.4219 96.8724 71.5625 96.7109C71.7083 96.5495 71.9219 96.4688 72.2031 96.4688C72.4844 96.4688 72.6979 96.5495 72.8438 96.7109C72.9896 96.8724 73.0625 97.0703 73.0625 97.3047C73.0625 97.5391 72.9896 97.7344 72.8438 97.8906C72.6979 98.0469 72.4844 98.125 72.2031 98.125C71.9219 98.125 71.7083 98.0469 71.5625 97.8906C71.4219 97.7344 71.3516 97.5391 71.3516 97.3047ZM77.1953 97.5V99.5469H78.7734V100.664H77.1953V105.906C77.1953 106.245 77.2656 106.5 77.4062 106.672C77.5469 106.839 77.7865 106.922 78.125 106.922C78.2917 106.922 78.5208 106.891 78.8125 106.828V108C78.4323 108.104 78.0625 108.156 77.7031 108.156C77.0573 108.156 76.5703 107.961 76.2422 107.57C75.9141 107.18 75.75 106.625 75.75 105.906V100.664H74.2109V99.5469H75.75V97.5H77.1953ZM81.9141 100.57C82.5547 99.7839 83.388 99.3906 84.4141 99.3906C86.2005 99.3906 87.1016 100.398 87.1172 102.414V108H85.6719V102.406C85.6667 101.797 85.526 101.346 85.25 101.055C84.9792 100.763 84.5547 100.617 83.9766 100.617C83.5078 100.617 83.0964 100.742 82.7422 100.992C82.388 101.242 82.112 101.57 81.9141 101.977V108H80.4688V96H81.9141V100.57Z" fill="#6E6E6F"/>
<path d="M41.5003 121.917C33.446 121.917 26.917 128.445 26.917 136.5C26.917 144.554 33.446 151.083 41.5003 151.083C49.5547 151.083 56.0837 144.554 56.0837 136.5C56.0837 128.445 49.5547 121.917 41.5003 121.917ZM41.5003 148.896C39.8724 148.896 38.2604 148.575 36.7564 147.952C35.2524 147.329 33.8859 146.415 32.7348 145.264C31.5838 144.113 30.6707 142.746 30.0478 141.242C29.4249 139.738 29.1044 138.126 29.1045 136.498C29.1046 134.87 29.4253 133.258 30.0484 131.754C30.6715 130.25 31.5847 128.884 32.7359 127.733C33.8871 126.582 35.2537 125.669 36.7578 125.046C38.2618 124.423 39.8738 124.102 41.5018 124.103C44.7896 124.103 47.9426 125.409 50.2673 127.734C52.5919 130.059 53.8978 133.212 53.8976 136.5C53.8974 139.788 52.5912 142.941 50.2662 145.265C47.9413 147.59 44.7881 148.896 41.5003 148.896ZM41.5003 137.229C37.0699 137.229 33.4795 139.749 33.4795 142.333C33.4795 144.917 37.0699 147.437 41.5003 147.437C45.9307 147.437 49.5212 144.917 49.5212 142.333C49.5212 139.749 45.9307 137.229 41.5003 137.229ZM41.5003 136.5C42.6606 136.5 43.7734 136.039 44.5939 135.218C45.4144 134.398 45.8753 133.285 45.8753 132.125C45.8753 130.965 45.4144 129.852 44.5939 129.031C43.7734 128.211 42.6606 127.75 41.5003 127.75C40.34 127.75 39.2272 128.211 38.4067 129.031C37.5863 129.852 37.1253 130.965 37.1253 132.125C37.1253 133.285 37.5863 134.398 38.4067 135.218C39.2272 136.039 40.34 136.5 41.5003 136.5V136.5Z" fill="#474762"/>
<path d="M79.5003 121.917C71.446 121.917 64.917 128.445 64.917 136.5C64.917 144.554 71.446 151.083 79.5003 151.083C87.5547 151.083 94.0837 144.554 94.0837 136.5C94.0837 128.445 87.5547 121.917 79.5003 121.917ZM79.5003 148.896C77.8724 148.896 76.2604 148.575 74.7564 147.952C73.2524 147.329 71.8859 146.415 70.7348 145.264C69.5838 144.113 68.6707 142.746 68.0478 141.242C67.4249 139.738 67.1044 138.126 67.1045 136.498C67.1046 134.87 67.4253 133.258 68.0484 131.754C68.6715 130.25 69.5847 128.884 70.7359 127.733C71.8871 126.582 73.2537 125.669 74.7578 125.046C76.2618 124.423 77.8738 124.102 79.5018 124.103C82.7896 124.103 85.9426 125.409 88.2673 127.734C90.5919 130.059 91.8978 133.212 91.8976 136.5C91.8974 139.788 90.5912 142.941 88.2662 145.265C85.9413 147.59 82.7881 148.896 79.5003 148.896ZM79.5003 137.229C75.0699 137.229 71.4795 139.749 71.4795 142.333C71.4795 144.917 75.0699 147.437 79.5003 147.437C83.9307 147.437 87.5212 144.917 87.5212 142.333C87.5212 139.749 83.9307 137.229 79.5003 137.229ZM79.5003 136.5C80.6606 136.5 81.7734 136.039 82.5939 135.218C83.4144 134.398 83.8753 133.285 83.8753 132.125C83.8753 130.965 83.4144 129.852 82.5939 129.031C81.7734 128.211 80.6606 127.75 79.5003 127.75C78.34 127.75 77.2272 128.211 76.4067 129.031C75.5863 129.852 75.1253 130.965 75.1253 132.125C75.1253 133.285 75.5863 134.398 76.4067 135.218C77.2272 136.039 78.34 136.5 79.5003 136.5V136.5Z" fill="#474762"/>
<path d="M117.5 121.917C109.446 121.917 102.917 128.445 102.917 136.5C102.917 144.554 109.446 151.083 117.5 151.083C125.555 151.083 132.084 144.554 132.084 136.5C132.084 128.445 125.555 121.917 117.5 121.917ZM117.5 148.896C115.872 148.896 114.26 148.575 112.756 147.952C111.252 147.329 109.886 146.415 108.735 145.264C107.584 144.113 106.671 142.746 106.048 141.242C105.425 139.738 105.104 138.126 105.104 136.498C105.105 134.87 105.425 133.258 106.048 131.754C106.671 130.25 107.585 128.884 108.736 127.733C109.887 126.582 111.254 125.669 112.758 125.046C114.262 124.423 115.874 124.102 117.502 124.103C120.79 124.103 123.943 125.409 126.267 127.734C128.592 130.059 129.898 133.212 129.898 136.5C129.897 139.788 128.591 142.941 126.266 145.265C123.941 147.59 120.788 148.896 117.5 148.896ZM117.5 137.229C113.07 137.229 109.479 139.749 109.479 142.333C109.479 144.917 113.07 147.437 117.5 147.437C121.931 147.437 125.521 144.917 125.521 142.333C125.521 139.749 121.931 137.229 117.5 137.229ZM117.5 136.5C118.661 136.5 119.773 136.039 120.594 135.218C121.414 134.398 121.875 133.285 121.875 132.125C121.875 130.965 121.414 129.852 120.594 129.031C119.773 128.211 118.661 127.75 117.5 127.75C116.34 127.75 115.227 128.211 114.407 129.031C113.586 129.852 113.125 130.965 113.125 132.125C113.125 133.285 113.586 134.398 114.407 135.218C115.227 136.039 116.34 136.5 117.5 136.5V136.5Z" fill="#474762"/>
<path d="M155.5 121.917C147.446 121.917 140.917 128.445 140.917 136.5C140.917 144.554 147.446 151.083 155.5 151.083C163.555 151.083 170.084 144.554 170.084 136.5C170.084 128.445 163.555 121.917 155.5 121.917ZM155.5 148.896C153.872 148.896 152.26 148.575 150.756 147.952C149.252 147.329 147.886 146.415 146.735 145.264C145.584 144.113 144.671 142.746 144.048 141.242C143.425 139.738 143.104 138.126 143.104 136.498C143.105 134.87 143.425 133.258 144.048 131.754C144.671 130.25 145.585 128.884 146.736 127.733C147.887 126.582 149.254 125.669 150.758 125.046C152.262 124.423 153.874 124.102 155.502 124.103C158.79 124.103 161.943 125.409 164.267 127.734C166.592 130.059 167.898 133.212 167.898 136.5C167.897 139.788 166.591 142.941 164.266 145.265C161.941 147.59 158.788 148.896 155.5 148.896ZM155.5 137.229C151.07 137.229 147.479 139.749 147.479 142.333C147.479 144.917 151.07 147.437 155.5 147.437C159.931 147.437 163.521 144.917 163.521 142.333C163.521 139.749 159.931 137.229 155.5 137.229ZM155.5 136.5C156.661 136.5 157.773 136.039 158.594 135.218C159.414 134.398 159.875 133.285 159.875 132.125C159.875 130.965 159.414 129.852 158.594 129.031C157.773 128.211 156.661 127.75 155.5 127.75C154.34 127.75 153.227 128.211 152.407 129.031C151.586 129.852 151.125 130.965 151.125 132.125C151.125 133.285 151.586 134.398 152.407 135.218C153.227 136.039 154.34 136.5 155.5 136.5V136.5Z" fill="#474762"/>
<path d="M193.5 121.917C185.446 121.917 178.917 128.445 178.917 136.5C178.917 144.554 185.446 151.083 193.5 151.083C201.555 151.083 208.084 144.554 208.084 136.5C208.084 128.445 201.555 121.917 193.5 121.917ZM193.5 148.896C191.872 148.896 190.26 148.575 188.756 147.952C187.252 147.329 185.886 146.415 184.735 145.264C183.584 144.113 182.671 142.746 182.048 141.242C181.425 139.738 181.104 138.126 181.104 136.498C181.105 134.87 181.425 133.258 182.048 131.754C182.671 130.25 183.585 128.884 184.736 127.733C185.887 126.582 187.254 125.669 188.758 125.046C190.262 124.423 191.874 124.102 193.502 124.103C196.79 124.103 199.943 125.409 202.267 127.734C204.592 130.059 205.898 133.212 205.898 136.5C205.897 139.788 204.591 142.941 202.266 145.265C199.941 147.59 196.788 148.896 193.5 148.896ZM193.5 137.229C189.07 137.229 185.479 139.749 185.479 142.333C185.479 144.917 189.07 147.437 193.5 147.437C197.931 147.437 201.521 144.917 201.521 142.333C201.521 139.749 197.931 137.229 193.5 137.229ZM193.5 136.5C194.661 136.5 195.773 136.039 196.594 135.218C197.414 134.398 197.875 133.285 197.875 132.125C197.875 130.965 197.414 129.852 196.594 129.031C195.773 128.211 194.661 127.75 193.5 127.75C192.34 127.75 191.227 128.211 190.407 129.031C189.586 129.852 189.125 130.965 189.125 132.125C189.125 133.285 189.586 134.398 190.407 135.218C191.227 136.039 192.34 136.5 193.5 136.5V136.5Z" fill="#474762"/>
<path d="M311.061 137.061C311.646 136.475 311.646 135.525 311.061 134.939L301.515 125.393C300.929 124.808 299.979 124.808 299.393 125.393C298.808 125.979 298.808 126.929 299.393 127.515L307.879 136L299.393 144.485C298.808 145.071 298.808 146.021 299.393 146.607C299.979 147.192 300.929 147.192 301.515 146.607L311.061 137.061ZM278 137.5H310V134.5H278V137.5Z" fill="#716E6E"/>
<rect x="11.5" y="0.5" width="320" height="170" rx="7.5" stroke="#CCCCCC"/>
</g>
<defs>
<filter id="filter0_d" x="0" y="0" width="332" height="183" filterUnits="userSpaceOnUse" color-interpolation-filters="sRGB">
<feFlood flood-opacity="0" result="BackgroundImageFix"/>
<feColorMatrix in="SourceAlpha" type="matrix" values="0 0 0 0 0 0 0 0 0 0 0 0 0 0 0 0 0 0 127 0" result="hardAlpha"/>
<feOffset dx="-7" dy="8"/>
<feGaussianBlur stdDeviation="2"/>
<feComposite in2="hardAlpha" operator="out"/>
<feColorMatrix type="matrix" values="0 0 0 0 0 0 0 0 0 0 0 0 0 0 0 0 0 0 0.25 0"/>
<feBlend mode="normal" in2="BackgroundImageFix" result="effect1_dropShadow"/>
<feBlend mode="normal" in="SourceGraphic" in2="effect1_dropShadow" result="shape"/>
</filter>
</defs>
</svg>
