<svg width="437" height="182" viewBox="0 0 437 182" fill="none" xmlns="http://www.w3.org/2000/svg">
<g filter="url(#filter0_d)">
<rect x="26" width="410" height="152" rx="15" fill="#FFFCF6"/>
<g filter="url(#filter1_d)">
<rect x="70" y="39" width="200" height="74" rx="15" fill="#00939D"/>
<path d="M134.562 80.0562C134.755 78.6499 134.026 77.6216 132.374 76.9712L130.093 76.1406L129.328 75.811C126.762 74.6421 125.562 72.9985 125.729 70.8804C125.817 69.8169 126.182 68.8765 126.823 68.0591C127.465 67.2417 128.313 66.6133 129.368 66.1738C130.431 65.7256 131.561 65.5146 132.756 65.541C133.916 65.5674 134.949 65.8267 135.854 66.3188C136.768 66.811 137.462 67.501 137.937 68.3887C138.412 69.2676 138.623 70.2607 138.57 71.3682L136.078 71.355C136.166 70.1772 135.902 69.2676 135.287 68.626C134.672 67.9756 133.793 67.6416 132.65 67.624C131.446 67.6064 130.44 67.8877 129.631 68.4678C128.823 69.0479 128.357 69.8389 128.234 70.8408C128.058 72.1504 128.862 73.1436 130.646 73.8203L132.611 74.519L133.6 74.9409C136.078 76.0835 137.225 77.7798 137.041 80.0298C136.944 81.1108 136.579 82.0469 135.946 82.8379C135.313 83.6201 134.452 84.2266 133.362 84.6572C132.281 85.0879 131.117 85.29 129.869 85.2637C128.665 85.2549 127.562 85 126.56 84.499C125.566 83.9893 124.811 83.2949 124.292 82.416C123.773 81.5371 123.545 80.5396 123.606 79.4233L126.085 79.4365C126.006 80.5791 126.313 81.4888 127.008 82.1655C127.711 82.8335 128.7 83.1763 129.974 83.1938C131.249 83.2114 132.299 82.9346 133.125 82.3633C133.951 81.792 134.43 81.0229 134.562 80.0562ZM152.017 77.9336C151.841 79.3838 151.45 80.689 150.844 81.8491C150.237 83.0093 149.486 83.8794 148.589 84.4595C147.693 85.0308 146.7 85.3032 145.61 85.2769C143.958 85.2417 142.692 84.6836 141.813 83.6025L140.534 90.4844H138.148L141.576 70.7354L143.738 70.7222L143.474 72.3174C144.652 71.0518 146.062 70.4365 147.706 70.4717C149.077 70.5068 150.145 71.0122 150.91 71.9878C151.674 72.9634 152.079 74.3081 152.123 76.022C152.131 76.5845 152.109 77.1294 152.057 77.6567L152.017 77.9336ZM149.67 77.6567L149.736 76.5493C149.736 75.2661 149.49 74.2861 148.998 73.6094C148.515 72.9238 147.812 72.5635 146.889 72.5283C145.509 72.4932 144.318 73.1479 143.316 74.4927L142.116 81.335C142.652 82.6006 143.615 83.251 145.003 83.2861C146.19 83.3125 147.196 82.8511 148.022 81.9019C148.857 80.9438 149.407 79.5288 149.67 77.6567ZM156.526 85H154.153L157.66 64.75H160.046L156.526 85ZM163.012 85H160.639L163.118 70.7354H165.491L163.012 85ZM164.977 65.5278C165.381 65.5103 165.715 65.6333 165.979 65.897C166.251 66.1519 166.387 66.4902 166.387 66.9121C166.378 67.3252 166.242 67.6636 165.979 67.9272C165.724 68.1909 165.39 68.3315 164.977 68.3491C164.563 68.3667 164.225 68.248 163.961 67.9932C163.698 67.7383 163.57 67.4043 163.579 66.9912C163.588 66.5781 163.72 66.2354 163.975 65.9629C164.229 65.6904 164.563 65.5454 164.977 65.5278ZM173.216 67.2812L172.61 70.7354H175.207L174.877 72.6206H172.293L170.804 81.4932C170.777 81.7217 170.773 81.9326 170.791 82.126C170.852 82.8115 171.226 83.1543 171.911 83.1543C172.201 83.1543 172.588 83.1104 173.071 83.0225L172.887 85.0132C172.315 85.1714 171.735 85.2505 171.146 85.2505C170.197 85.2329 169.485 84.8857 169.011 84.209C168.536 83.5234 168.352 82.605 168.457 81.4536L169.907 72.6206H167.389L167.719 70.7354H170.237L170.843 67.2812H173.216ZM182.603 85L185.938 65.8047L191.568 65.8179C193.528 65.8179 194.996 66.2573 195.971 67.1362C196.947 68.0151 197.373 69.2412 197.25 70.8145C197.092 72.6514 195.936 74.0356 193.783 74.9673C194.644 75.3013 195.286 75.8726 195.708 76.6812C196.138 77.4897 196.314 78.3818 196.235 79.3574C196.103 81.0889 195.409 82.4644 194.152 83.4839C192.895 84.4946 191.269 85 189.274 85H182.603ZM186.637 76.022L185.438 82.9302L189.353 82.9434C190.548 82.9434 191.55 82.6226 192.359 81.981C193.167 81.3394 193.638 80.4736 193.77 79.3838C193.893 78.3467 193.712 77.5381 193.229 76.958C192.746 76.3779 191.985 76.0703 190.948 76.0352L186.637 76.022ZM186.993 73.9917L190.566 74.0049C191.682 74.0049 192.623 73.7192 193.387 73.1479C194.161 72.5767 194.613 71.79 194.745 70.7881C194.859 69.8564 194.675 69.1533 194.191 68.6787C193.717 68.2041 192.926 67.9448 191.818 67.9009L188.048 67.8877L186.993 73.9917ZM201.271 85H198.898L201.376 70.7354H203.75L201.271 85ZM203.235 65.5278C203.64 65.5103 203.974 65.6333 204.237 65.897C204.51 66.1519 204.646 66.4902 204.646 66.9121C204.637 67.3252 204.501 67.6636 204.237 67.9272C203.982 68.1909 203.648 68.3315 203.235 68.3491C202.822 68.3667 202.484 68.248 202.22 67.9932C201.957 67.7383 201.829 67.4043 201.838 66.9912C201.847 66.5781 201.979 66.2354 202.233 65.9629C202.488 65.6904 202.822 65.5454 203.235 65.5278ZM207.757 85H205.384L208.891 64.75H211.277L207.757 85ZM214.244 85H211.871L215.377 64.75H217.764L214.244 85Z" fill="#E2E2E2"/>
</g>
<path d="M319.076 78.3271L298.344 69.3481L299.488 63.0386L325.975 76.1777L325.073 81.2046L294.011 94.3784L295.259 87.4102L319.076 78.3271ZM355.408 78.3271L334.676 69.3481L335.82 63.0386L362.307 76.1777L361.405 81.2046L330.343 94.3784L331.591 87.4102L355.408 78.3271Z" fill="url(#paint0_linear)"/>
<rect x="26.5" y="0.5" width="409" height="151" rx="14.5" stroke="#BBB9B9"/>
</g>
<defs>
<filter id="filter0_d" x="16" y="0" width="420" height="163" filterUnits="userSpaceOnUse" color-interpolation-filters="sRGB">
<feFlood flood-opacity="0" result="BackgroundImageFix"/>
<feColorMatrix in="SourceAlpha" type="matrix" values="0 0 0 0 0 0 0 0 0 0 0 0 0 0 0 0 0 0 127 0" result="hardAlpha"/>
<feOffset dx="-6" dy="7"/>
<feGaussianBlur stdDeviation="2"/>
<feComposite in2="hardAlpha" operator="out"/>
<feColorMatrix type="matrix" values="0 0 0 0 0 0 0 0 0 0 0 0 0 0 0 0 0 0 0.25 0"/>
<feBlend mode="normal" in2="BackgroundImageFix" result="effect1_dropShadow"/>
<feBlend mode="normal" in="SourceGraphic" in2="effect1_dropShadow" result="shape"/>
</filter>
<filter id="filter1_d" x="64" y="39" width="206" height="82" filterUnits="userSpaceOnUse" color-interpolation-filters="sRGB">
<feFlood flood-opacity="0" result="BackgroundImageFix"/>
<feColorMatrix in="SourceAlpha" type="matrix" values="0 0 0 0 0 0 0 0 0 0 0 0 0 0 0 0 0 0 127 0" result="hardAlpha"/>
<feOffset dx="-3" dy="5"/>
<feGaussianBlur stdDeviation="1.5"/>
<feComposite in2="hardAlpha" operator="out"/>
<feColorMatrix type="matrix" values="0 0 0 0 0 0 0 0 0 0 0 0 0 0 0 0 0 0 0.25 0"/>
<feBlend mode="normal" in2="BackgroundImageFix" result="effect1_dropShadow"/>
<feBlend mode="normal" in="SourceGraphic" in2="effect1_dropShadow" result="shape"/>
</filter>
<linearGradient id="paint0_linear" x1="332" y1="35" x2="332" y2="118" gradientUnits="userSpaceOnUse">
<stop stop-color="#00A9B4"/>
<stop offset="1" stop-color="#B50082" stop-opacity="0.55"/>
</linearGradient>
</defs>
</svg>
